<svg xmlns="http://www.w3.org/2000/svg" xmlns:xlink="http://www.w3.org/1999/xlink" width="397" zoomAndPan="magnify" viewBox="0 0 297.75 419.249996" height="559" preserveAspectRatio="xMidYMid meet" version="1.0"><defs><filter x="0%" y="0%" width="100%" height="100%" id="a45e0ddc60"><feColorMatrix values="0 0 0 0 1 0 0 0 0 1 0 0 0 0 1 0 0 0 1 0" color-interpolation-filters="sRGB"/></filter><clipPath id="ac3d00cb54"><path d="M 0.359375 0.308594 L 272.992188 0.308594 L 272.992188 316.542969 L 0.359375 316.542969 Z M 0.359375 0.308594 " clip-rule="nonzero"/></clipPath><clipPath id="59534a3062"><path d="M 0.359375 1 L 272.992188 1 L 272.992188 248 L 0.359375 248 Z M 0.359375 1 " clip-rule="nonzero"/></clipPath><mask id="90e847bba7"><g filter="url(#a45e0ddc60)"><rect x="-120.381" width="514.512" fill="#000000" y="-202.606999" height="724.463993" fill-opacity="0.25"/></g></mask><clipPath id="304367f4b1"><path d="M 1 1 L 227.847656 1 L 227.847656 191.519531 L 1 191.519531 Z M 1 1 " clip-rule="nonzero"/></clipPath><clipPath id="8b890966c3"><rect x="0" width="228" y="0" height="192"/></clipPath><clipPath id="cc11ab692a"><path d="M 129 154 L 133.207031 154 L 133.207031 158.945312 L 129 158.945312 Z M 129 154 " clip-rule="nonzero"/></clipPath><clipPath id="4f6ed43613"><path d="M 129.445312 154.378906 C 129.242188 154.761719 128.742188 155.273438 128.675781 155.703125 C 128.605469 156.167969 129.183594 156.835938 129.347656 157.347656 C 129.621094 158.195312 129.921875 158.878906 130.957031 158.886719 C 131.480469 158.890625 131.976562 158.453125 132.472656 158.285156 C 132.914062 158.132812 133.117188 158.167969 133.15625 157.605469 C 133.183594 157.171875 133.132812 156.367188 132.898438 156.007812 C 132.667969 155.652344 132.140625 155.363281 131.835938 155.054688 C 131.503906 154.714844 131.277344 154.238281 130.824219 154.085938 C 130.503906 153.980469 129.765625 153.914062 129.445312 154.378906 Z M 129.445312 154.378906 " clip-rule="nonzero"/></clipPath><clipPath id="afb4bf41eb"><path d="M 129 155 L 131 155 L 131 157 L 129 157 Z M 129 155 " clip-rule="nonzero"/></clipPath><clipPath id="0534312b07"><path d="M 129.445312 154.378906 C 129.242188 154.761719 128.742188 155.273438 128.675781 155.703125 C 128.605469 156.167969 129.183594 156.835938 129.347656 157.347656 C 129.621094 158.195312 129.921875 158.878906 130.957031 158.886719 C 131.480469 158.890625 131.976562 158.453125 132.472656 158.285156 C 132.914062 158.132812 133.117188 158.167969 133.15625 157.605469 C 133.183594 157.171875 133.132812 156.367188 132.898438 156.007812 C 132.667969 155.652344 132.140625 155.363281 131.835938 155.054688 C 131.503906 154.714844 131.277344 154.238281 130.824219 154.085938 C 130.503906 153.980469 129.765625 153.914062 129.445312 154.378906 Z M 129.445312 154.378906 " clip-rule="nonzero"/></clipPath><clipPath id="ac5569f9cb"><path d="M 116.90625 158 L 136 158 L 136 170 L 116.90625 170 Z M 116.90625 158 " clip-rule="nonzero"/></clipPath><clipPath id="4be8cf35ca"><path d="M 122 158.757812 L 135.070312 158.757812 L 135.070312 169.472656 L 122 169.472656 Z M 122 158.757812 " clip-rule="nonzero"/></clipPath><clipPath id="b68300a187"><path d="M 119.976562 158.789062 C 120.519531 158.894531 121.003906 158.90625 121.535156 159.152344 C 122.253906 159.488281 122.796875 159.859375 123.628906 159.816406 C 124.089844 159.792969 124.636719 159.597656 125.105469 159.726562 C 125.652344 159.875 126.214844 160.46875 126.640625 160.816406 C 127.304688 161.359375 127.695312 162.0625 128.371094 162.589844 C 128.933594 163.03125 129.382812 163.160156 130.089844 163.195312 C 130.40625 163.210938 130.84375 163.109375 131.15625 163.191406 C 131.554688 163.292969 131.972656 163.554688 132.390625 163.683594 C 132.882812 163.832031 133.519531 163.929688 133.925781 164.257812 C 134.214844 164.488281 134.386719 164.855469 134.574219 165.15625 C 134.675781 165.320312 135 165.675781 135.011719 165.859375 C 135.050781 166.441406 133.972656 167.179688 133.585938 167.476562 C 132.832031 168.0625 131.847656 169.183594 130.835938 169.207031 C 130.304688 169.222656 129.796875 169.039062 129.253906 169.078125 C 128.472656 169.132812 127.683594 169.273438 126.914062 169.382812 C 126.0625 169.5 125.191406 169.339844 124.398438 168.96875 C 123.8125 168.695312 123.628906 167.980469 123 167.746094 C 122.332031 167.496094 121.480469 167.675781 120.855469 167.40625 C 120.242188 167.140625 119.65625 166.585938 119.09375 166.21875 C 118.683594 165.949219 118.328125 165.851562 118.132812 165.414062 C 117.882812 164.851562 117.851562 164.195312 117.585938 163.625 C 117.398438 163.21875 117.066406 162.792969 117 162.335938 C 116.90625 161.667969 117.5625 160.195312 118.121094 159.714844 C 118.46875 159.421875 119.394531 158.839844 119.976562 158.785156 Z M 119.976562 158.789062 " clip-rule="nonzero"/></clipPath><clipPath id="a40329c851"><path d="M 117 159 L 122 159 L 122 166 L 117 166 Z M 117 159 " clip-rule="nonzero"/></clipPath><clipPath id="80f0db054a"><path d="M 119.976562 158.789062 C 120.519531 158.894531 121.003906 158.90625 121.535156 159.152344 C 122.253906 159.488281 122.796875 159.859375 123.628906 159.816406 C 124.089844 159.792969 124.636719 159.597656 125.105469 159.726562 C 125.652344 159.875 126.214844 160.46875 126.640625 160.816406 C 127.304688 161.359375 127.695312 162.0625 128.371094 162.589844 C 128.933594 163.03125 129.382812 163.160156 130.089844 163.195312 C 130.40625 163.210938 130.84375 163.109375 131.15625 163.191406 C 131.554688 163.292969 131.972656 163.554688 132.390625 163.683594 C 132.882812 163.832031 133.519531 163.929688 133.925781 164.257812 C 134.214844 164.488281 134.386719 164.855469 134.574219 165.15625 C 134.675781 165.320312 135 165.675781 135.011719 165.859375 C 135.050781 166.441406 133.972656 167.179688 133.585938 167.476562 C 132.832031 168.0625 131.847656 169.183594 130.835938 169.207031 C 130.304688 169.222656 129.796875 169.039062 129.253906 169.078125 C 128.472656 169.132812 127.683594 169.273438 126.914062 169.382812 C 126.0625 169.5 125.191406 169.339844 124.398438 168.96875 C 123.8125 168.695312 123.628906 167.980469 123 167.746094 C 122.332031 167.496094 121.480469 167.675781 120.855469 167.40625 C 120.242188 167.140625 119.65625 166.585938 119.09375 166.21875 C 118.683594 165.949219 118.328125 165.851562 118.132812 165.414062 C 117.882812 164.851562 117.851562 164.195312 117.585938 163.625 C 117.398438 163.21875 117.066406 162.792969 117 162.335938 C 116.90625 161.667969 117.5625 160.195312 118.121094 159.714844 C 118.46875 159.421875 119.394531 158.839844 119.976562 158.785156 Z M 119.976562 158.789062 " clip-rule="nonzero"/></clipPath><clipPath id="ab43087bbd"><path d="M 138 166 L 144 166 L 144 171.703125 L 138 171.703125 Z M 138 166 " clip-rule="nonzero"/></clipPath><clipPath id="a98f8f4729"><path d="M 139 166.734375 L 143.332031 166.734375 L 143.332031 171.46875 L 139 171.46875 Z M 139 166.734375 " clip-rule="nonzero"/></clipPath><clipPath id="0548867543"><path d="M 139.796875 166.964844 C 140.328125 166.769531 140.785156 166.609375 141.246094 166.960938 C 141.679688 167.289062 142.171875 167.632812 142.578125 167.988281 C 143.183594 168.519531 143.378906 169.1875 143.214844 170 C 143.042969 170.820312 141.75 171.386719 140.964844 171.421875 C 140.308594 171.449219 139.355469 171.328125 138.828125 170.917969 C 138.527344 170.683594 138.375 170.015625 138.328125 169.609375 C 138.265625 169.070312 138.589844 168.523438 138.929688 168.136719 C 139.191406 167.835938 139.410156 167.300781 139.796875 166.964844 Z M 139.796875 166.964844 " clip-rule="nonzero"/></clipPath><clipPath id="d9eec2c140"><path d="M 139 167 L 141 167 L 141 170 L 139 170 Z M 139 167 " clip-rule="nonzero"/></clipPath><clipPath id="a42e2244ee"><path d="M 139.796875 166.964844 C 140.328125 166.769531 140.785156 166.609375 141.246094 166.960938 C 141.679688 167.289062 142.171875 167.632812 142.578125 167.988281 C 143.183594 168.519531 143.378906 169.1875 143.214844 170 C 143.042969 170.820312 141.75 171.386719 140.964844 171.421875 C 140.308594 171.449219 139.355469 171.328125 138.828125 170.917969 C 138.527344 170.683594 138.375 170.015625 138.328125 169.609375 C 138.265625 169.070312 138.589844 168.523438 138.929688 168.136719 C 139.191406 167.835938 139.410156 167.300781 139.796875 166.964844 Z M 139.796875 166.964844 " clip-rule="nonzero"/></clipPath><clipPath id="fc3119349f"><path d="M 140 151.71875 L 145.941406 151.71875 L 145.941406 162.996094 L 140 162.996094 Z M 140 151.71875 " clip-rule="nonzero"/></clipPath><clipPath id="c3a191baf4"><path d="M 140.039062 152.375 C 140.667969 151.949219 141.953125 151.546875 142.671875 151.792969 C 143.160156 151.960938 143.816406 152.433594 144.234375 152.761719 C 144.734375 153.15625 144.628906 153.648438 144.628906 154.253906 C 144.628906 154.921875 144.625 155.351562 144.871094 155.933594 C 145.140625 156.554688 145.660156 157.152344 145.851562 157.800781 C 146.023438 158.382812 145.699219 159.136719 145.589844 159.753906 C 145.507812 160.222656 145.46875 160.726562 145.363281 161.1875 C 145.335938 161.320312 145.242188 161.429688 145.117188 161.476562 C 144.445312 161.742188 143.988281 162.640625 143.316406 162.878906 C 142.753906 163.082031 141.886719 162.851562 141.265625 162.851562 C 140.75 162.851562 140.769531 162.878906 140.433594 162.464844 C 140.113281 162.070312 139.511719 161.621094 139.34375 161.148438 C 139.226562 160.808594 139.347656 160.542969 139.421875 160.167969 C 139.546875 159.554688 139.585938 158.925781 139.601562 158.300781 C 139.617188 157.597656 139.425781 157.363281 138.964844 156.828125 C 138.519531 156.3125 138.53125 155.878906 138.476562 155.207031 C 138.441406 154.792969 138.371094 154.507812 138.585938 154.136719 C 138.820312 153.738281 139.214844 153.457031 139.453125 153.050781 C 139.578125 152.839844 139.609375 152.652344 140.039062 152.375 Z M 140.039062 152.375 " clip-rule="nonzero"/></clipPath><clipPath id="83ecb78106"><path d="M 139 153 L 142 153 L 142 156 L 139 156 Z M 139 153 " clip-rule="nonzero"/></clipPath><clipPath id="d643c083c9"><path d="M 140.039062 152.375 C 140.667969 151.949219 141.953125 151.546875 142.671875 151.792969 C 143.160156 151.960938 143.816406 152.433594 144.234375 152.761719 C 144.734375 153.15625 144.628906 153.648438 144.628906 154.253906 C 144.628906 154.921875 144.625 155.351562 144.871094 155.933594 C 145.140625 156.554688 145.660156 157.152344 145.851562 157.800781 C 146.023438 158.382812 145.699219 159.136719 145.589844 159.753906 C 145.507812 160.222656 145.46875 160.726562 145.363281 161.1875 C 145.335938 161.320312 145.242188 161.429688 145.117188 161.476562 C 144.445312 161.742188 143.988281 162.640625 143.316406 162.878906 C 142.753906 163.082031 141.886719 162.851562 141.265625 162.851562 C 140.75 162.851562 140.769531 162.878906 140.433594 162.464844 C 140.113281 162.070312 139.511719 161.621094 139.34375 161.148438 C 139.226562 160.808594 139.347656 160.542969 139.421875 160.167969 C 139.546875 159.554688 139.585938 158.925781 139.601562 158.300781 C 139.617188 157.597656 139.425781 157.363281 138.964844 156.828125 C 138.519531 156.3125 138.53125 155.878906 138.476562 155.207031 C 138.441406 154.792969 138.371094 154.507812 138.585938 154.136719 C 138.820312 153.738281 139.214844 153.457031 139.453125 153.050781 C 139.578125 152.839844 139.609375 152.652344 140.039062 152.375 Z M 140.039062 152.375 " clip-rule="nonzero"/></clipPath><clipPath id="e3b4c3813b"><path d="M 148 147 L 155.996094 147 L 155.996094 158 L 148 158 Z M 148 147 " clip-rule="nonzero"/></clipPath><clipPath id="2b7bf7c9f3"><path d="M 150 147 L 155.941406 147 L 155.941406 157.199219 L 150 157.199219 Z M 150 147 " clip-rule="nonzero"/></clipPath><clipPath id="cc1d76309a"><path d="M 152.773438 147.292969 C 152.59375 147.398438 152.421875 147.523438 152.285156 147.640625 C 151.6875 148.144531 151.4375 148.886719 151.363281 149.628906 C 151.265625 150.613281 150.96875 151.144531 150.324219 151.933594 C 149.820312 152.550781 149.238281 152.792969 149.09375 153.589844 C 148.992188 154.144531 148.480469 155.859375 148.828125 156.253906 C 148.933594 156.367188 149.398438 156.519531 149.558594 156.632812 C 149.679688 156.714844 150.082031 157.160156 150.234375 157.179688 C 150.457031 157.207031 150.558594 157.066406 150.785156 156.941406 C 151.429688 156.578125 152.347656 156.554688 152.824219 156.085938 C 153.363281 155.558594 153.949219 154.753906 153.699219 154.050781 C 153.425781 153.289062 153.230469 152.878906 153.683594 152.097656 C 153.9375 151.65625 154.46875 151.554688 154.808594 151.179688 C 155.160156 150.792969 155.425781 150.300781 155.773438 149.902344 C 155.871094 149.789062 155.914062 149.644531 155.882812 149.503906 C 155.804688 149.167969 155.800781 148.804688 155.601562 148.515625 C 155.359375 148.164062 154.917969 147.871094 154.605469 147.585938 C 154.207031 147.234375 153.914062 146.925781 153.375 147.039062 C 153.179688 147.078125 152.96875 147.175781 152.773438 147.292969 Z M 152.773438 147.292969 " clip-rule="nonzero"/></clipPath><clipPath id="1b9cd0410e"><path d="M 149 152 L 151 152 L 151 156 L 149 156 Z M 149 152 " clip-rule="nonzero"/></clipPath><clipPath id="2f32365115"><path d="M 152.773438 147.292969 C 152.59375 147.398438 152.421875 147.523438 152.285156 147.640625 C 151.6875 148.144531 151.4375 148.886719 151.363281 149.628906 C 151.265625 150.613281 150.96875 151.144531 150.324219 151.933594 C 149.820312 152.550781 149.238281 152.792969 149.09375 153.589844 C 148.992188 154.144531 148.480469 155.859375 148.828125 156.253906 C 148.933594 156.367188 149.398438 156.519531 149.558594 156.632812 C 149.679688 156.714844 150.082031 157.160156 150.234375 157.179688 C 150.457031 157.207031 150.558594 157.066406 150.785156 156.941406 C 151.429688 156.578125 152.347656 156.554688 152.824219 156.085938 C 153.363281 155.558594 153.949219 154.753906 153.699219 154.050781 C 153.425781 153.289062 153.230469 152.878906 153.683594 152.097656 C 153.9375 151.65625 154.46875 151.554688 154.808594 151.179688 C 155.160156 150.792969 155.425781 150.300781 155.773438 149.902344 C 155.871094 149.789062 155.914062 149.644531 155.882812 149.503906 C 155.804688 149.167969 155.800781 148.804688 155.601562 148.515625 C 155.359375 148.164062 154.917969 147.871094 154.605469 147.585938 C 154.207031 147.234375 153.914062 146.925781 153.375 147.039062 C 153.179688 147.078125 152.96875 147.175781 152.773438 147.292969 Z M 152.773438 147.292969 " clip-rule="nonzero"/></clipPath><clipPath id="2b3c40514b"><path d="M 148 159 L 155.996094 159 L 155.996094 166 L 148 166 Z M 148 159 " clip-rule="nonzero"/></clipPath><clipPath id="e17a297a48"><path d="M 149 159.941406 L 155.132812 159.941406 L 155.132812 165.984375 L 149 165.984375 Z M 149 159.941406 " clip-rule="nonzero"/></clipPath><clipPath id="ef12efbb65"><path d="M 153.023438 159.960938 C 152.441406 160.03125 152.164062 159.945312 151.804688 160.445312 C 151.558594 160.796875 151.464844 161.097656 151.121094 161.371094 C 150.859375 161.582031 150.515625 161.652344 150.253906 161.835938 C 149.808594 162.144531 149.492188 162.671875 149.160156 163.09375 C 148.898438 163.429688 148.25 163.820312 148.105469 164.1875 C 147.933594 164.621094 148.347656 164.921875 148.585938 165.253906 C 148.9375 165.746094 149.207031 166.03125 149.859375 165.949219 C 150.363281 165.882812 150.792969 165.535156 151.269531 165.445312 C 151.558594 165.390625 151.902344 165.539062 152.167969 165.375 C 152.519531 165.15625 152.691406 164.390625 153.066406 164.082031 C 153.421875 163.785156 153.929688 163.765625 154.335938 163.539062 C 154.890625 163.230469 155.191406 162.449219 155.113281 161.820312 C 155.089844 161.617188 155.007812 161.316406 154.84375 161.1875 C 154.59375 160.992188 154.332031 161.238281 154.050781 161.121094 C 153.757812 160.996094 153.730469 160.558594 153.570312 160.351562 C 153.414062 160.144531 153.335938 160.058594 153.023438 159.960938 Z M 153.023438 159.960938 " clip-rule="nonzero"/></clipPath><clipPath id="bf29e71e37"><path d="M 149 162 L 151 162 L 151 165 L 149 165 Z M 149 162 " clip-rule="nonzero"/></clipPath><clipPath id="f8d1a247a9"><path d="M 153.023438 159.960938 C 152.441406 160.03125 152.164062 159.945312 151.804688 160.445312 C 151.558594 160.796875 151.464844 161.097656 151.121094 161.371094 C 150.859375 161.582031 150.515625 161.652344 150.253906 161.835938 C 149.808594 162.144531 149.492188 162.671875 149.160156 163.09375 C 148.898438 163.429688 148.25 163.820312 148.105469 164.1875 C 147.933594 164.621094 148.347656 164.921875 148.585938 165.253906 C 148.9375 165.746094 149.207031 166.03125 149.859375 165.949219 C 150.363281 165.882812 150.792969 165.535156 151.269531 165.445312 C 151.558594 165.390625 151.902344 165.539062 152.167969 165.375 C 152.519531 165.15625 152.691406 164.390625 153.066406 164.082031 C 153.421875 163.785156 153.929688 163.765625 154.335938 163.539062 C 154.890625 163.230469 155.191406 162.449219 155.113281 161.820312 C 155.089844 161.617188 155.007812 161.316406 154.84375 161.1875 C 154.59375 160.992188 154.332031 161.238281 154.050781 161.121094 C 153.757812 160.996094 153.730469 160.558594 153.570312 160.351562 C 153.414062 160.144531 153.335938 160.058594 153.023438 159.960938 Z M 153.023438 159.960938 " clip-rule="nonzero"/></clipPath><clipPath id="a5e10d7930"><path d="M 138 166 L 144 166 L 144 171.703125 L 138 171.703125 Z M 138 166 " clip-rule="nonzero"/></clipPath><clipPath id="2dd0334683"><path d="M 150 146.683594 L 155.996094 146.683594 L 155.996094 157 L 150 157 Z M 150 146.683594 " clip-rule="nonzero"/></clipPath><clipPath id="36f3b29f4a"><path d="M 150 159 L 155.996094 159 L 155.996094 166 L 150 166 Z M 150 159 " clip-rule="nonzero"/></clipPath><clipPath id="1a1f125a6d"><rect x="0" width="273" y="0" height="317"/></clipPath><clipPath id="772c1978c9"><rect x="0" width="273" y="0" height="317"/></clipPath></defs><g transform="matrix(1, 0, 0, 1, 12, 50)"><g clip-path="url(#772c1978c9)"><g clip-path="url(#ac3d00cb54)"><g transform="matrix(1, 0, 0, 1, -0.000000000000001776, 0)"><g clip-path="url(#1a1f125a6d)"><path fill="#ec5409" d="M 109.574219 227.929688 C 69.105469 264.585938 110.988281 297.597656 109.808594 310.292969 C 109.160156 317.3125 55.929688 317.449219 55.460938 310.984375 C 54.988281 304.519531 63.929688 299.441406 83.222656 300.367188 C 53.578125 267.125 84.164062 221.417969 84.164062 221.417969 C 84.164062 221.417969 142.964844 197.679688 109.574219 227.929688 Z M 163.109375 227.929688 C 203.578125 264.585938 161.699219 297.597656 162.875 310.292969 C 163.523438 317.3125 216.753906 317.449219 217.222656 310.984375 C 217.695312 304.519531 208.753906 299.441406 189.460938 300.367188 C 219.105469 267.125 188.519531 221.417969 188.519531 221.417969 C 188.519531 221.417969 129.71875 197.679688 163.109375 227.929688 Z M 189.296875 81.164062 C 189.296875 81.164062 207.929688 72.660156 224.390625 40.789062 C 240.855469 8.914062 254.683594 1.011719 263.128906 4.496094 C 274.386719 9.136719 269.359375 38.25 246.230469 71.40625 C 223.105469 104.5625 205.636719 112.023438 205.636719 112.023438 Z M 67.046875 112.023438 C 67.046875 112.023438 49.578125 104.5625 26.453125 71.40625 C 3.328125 38.25 -1.703125 9.136719 9.554688 4.496094 C 18 1.011719 31.828125 8.914062 48.292969 40.789062 C 64.753906 72.660156 83.386719 81.164062 83.386719 81.164062 Z M 67.046875 112.023438 " fill-opacity="1" fill-rule="nonzero"/><g clip-path="url(#59534a3062)"><path fill="#ff7b2c" d="M 235.453125 209.210938 C 246.394531 242.382812 205.453125 245.558594 198.183594 226.410156 C 200.867188 249.441406 164.945312 251.980469 159.925781 230.03125 C 157.28125 243.972656 143.308594 247.5 136.632812 247.5 C 129.957031 247.5 117.046875 244.5 113.339844 230.03125 C 108.324219 251.980469 72.402344 249.441406 75.085938 226.410156 C 67.8125 245.558594 26.875 242.382812 37.816406 209.210938 C 4.816406 221.386719 -6.066406 174.445312 19.816406 162.269531 C -11.828125 158.152344 -0.652344 108.625 26.167969 115.683594 C 2.699219 98.742188 24.601562 62.441406 48.953125 73.207031 C 27.957031 49.5625 67.320312 21.855469 81.59375 38.136719 C 72.636719 12.042969 114.515625 2.160156 119.34375 23.328125 C 116.519531 7.796875 127.457031 1.511719 136.632812 1.511719 C 145.808594 1.511719 156.75 7.796875 153.925781 23.328125 C 158.75 2.160156 200.632812 12.042969 191.671875 38.136719 C 205.945312 21.855469 245.3125 49.5625 224.3125 73.207031 C 248.664062 62.441406 270.570312 98.742188 247.097656 115.683594 C 273.921875 108.625 285.097656 158.152344 253.453125 162.269531 C 279.335938 174.445312 268.453125 221.386719 235.453125 209.210938 Z M 235.453125 209.210938 C 246.394531 242.382812 205.453125 245.558594 198.183594 226.410156 C 200.867188 249.441406 164.945312 251.980469 159.925781 230.03125 C 157.28125 243.972656 143.308594 247.5 136.632812 247.5 C 129.957031 247.5 117.046875 244.5 113.339844 230.03125 C 108.324219 251.980469 72.402344 249.441406 75.085938 226.410156 C 67.8125 245.558594 26.875 242.382812 37.816406 209.210938 C 4.816406 221.386719 -6.066406 174.445312 19.816406 162.269531 C -11.828125 158.152344 -0.652344 108.625 26.167969 115.683594 C 2.699219 98.742188 24.601562 62.441406 48.953125 73.207031 C 27.957031 49.5625 67.320312 21.855469 81.59375 38.136719 C 72.636719 12.042969 114.515625 2.160156 119.34375 23.328125 C 116.519531 7.796875 127.457031 1.511719 136.632812 1.511719 C 145.808594 1.511719 156.75 7.796875 153.925781 23.328125 C 158.75 2.160156 200.632812 12.042969 191.671875 38.136719 C 205.945312 21.855469 245.3125 49.5625 224.3125 73.207031 C 248.664062 62.441406 270.570312 98.742188 247.097656 115.683594 C 273.921875 108.625 285.097656 158.152344 253.453125 162.269531 C 279.335938 174.445312 268.453125 221.386719 235.453125 209.210938 Z M 235.453125 209.210938 " fill-opacity="1" fill-rule="nonzero"/></g><path fill="#ffffff" d="M 153.097656 110.820312 C 153.097656 139.996094 168.160156 146.902344 182.632812 148.15625 C 196.914062 149.390625 217.488281 143.210938 218.457031 116.011719 C 219.425781 88.816406 203.933594 73.484375 186.019531 73.484375 C 170.042969 73.484375 153.097656 80.410156 153.097656 110.820312 Z M 54.183594 110.820312 C 54.183594 139.996094 69.9375 146.902344 85.078125 148.15625 C 100.019531 149.390625 121.542969 143.210938 122.558594 116.011719 C 123.570312 88.816406 107.363281 73.484375 88.625 73.484375 C 71.910156 73.484375 54.183594 80.410156 54.183594 110.820312 Z M 54.183594 110.820312 " fill-opacity="1" fill-rule="nonzero"/><path fill="#0e0f1a" d="M 180.472656 86.238281 C 191.207031 86.238281 200.492188 96.339844 199.914062 114.269531 C 199.332031 132.195312 187 136.269531 178.441406 135.453125 C 169.769531 134.628906 160.742188 130.074219 160.742188 110.847656 C 160.742188 90.800781 170.898438 86.238281 180.472656 86.238281 Z M 92.210938 136.679688 C 81.476562 136.679688 72.191406 126.578125 72.773438 108.652344 C 73.351562 90.726562 85.683594 86.652344 94.242188 87.464844 C 102.914062 88.289062 111.941406 92.84375 111.941406 112.074219 C 111.941406 132.117188 101.785156 136.679688 92.210938 136.679688 Z M 92.210938 136.679688 " fill-opacity="1" fill-rule="nonzero"/><path fill="#c83340" d="M 73.125 246.382812 C 79.808594 248.429688 86.46875 250.5625 93.160156 252.585938 C 92.730469 254.203125 92.417969 255.800781 92.214844 257.378906 C 85.445312 255.335938 78.710938 253.175781 71.949219 251.105469 C 72.300781 249.492188 72.695312 247.914062 73.125 246.382812 Z M 92.132812 266.316406 C 84.851562 266.277344 77.574219 266.234375 70.292969 266.191406 C 70.300781 267.800781 70.375 269.425781 70.523438 271.054688 C 77.988281 271.097656 85.457031 271.140625 92.921875 271.183594 C 92.574219 269.589844 92.308594 267.96875 92.132812 266.316406 Z M 97.773438 284.730469 C 89.855469 285.445312 81.910156 285.492188 73.964844 285.574219 C 74.617188 287.195312 75.371094 288.808594 76.230469 290.410156 C 84.210938 290.332031 92.1875 290.21875 100.136719 289.359375 C 99.332031 287.867188 98.539062 286.320312 97.773438 284.730469 Z M 199.542969 246.324219 C 192.859375 248.367188 186.199219 250.5 179.507812 252.527344 C 179.9375 254.140625 180.253906 255.738281 180.460938 257.316406 C 187.226562 255.273438 193.960938 253.113281 200.722656 251.042969 C 200.371094 249.429688 199.972656 247.855469 199.542969 246.324219 Z M 202.390625 266.191406 C 195.109375 266.234375 187.832031 266.273438 180.550781 266.316406 C 180.378906 267.964844 180.109375 269.589844 179.761719 271.183594 C 187.226562 271.140625 194.695312 271.097656 202.164062 271.054688 C 202.308594 269.421875 202.382812 267.800781 202.390625 266.191406 Z M 198.71875 285.574219 C 190.769531 285.492188 182.824219 285.453125 174.898438 284.75 C 174.136719 286.339844 173.339844 287.886719 172.535156 289.378906 C 180.488281 290.226562 188.46875 290.332031 196.453125 290.414062 C 197.3125 288.8125 198.066406 287.199219 198.71875 285.574219 Z M 109.066406 157.8125 C 110.328125 158.546875 111.019531 161.234375 111.398438 163.640625 C 113.835938 161.28125 117.964844 157.695312 119.089844 159.277344 C 120.265625 160.933594 118.898438 165.585938 118.054688 168.015625 C 120.179688 167.503906 122.878906 167.125 124.128906 168.078125 C 125.9375 169.457031 120.503906 174.730469 118.394531 176.667969 C 118.265625 177.453125 118.074219 178.226562 117.808594 178.976562 C 116.5 182.6875 110.996094 191.898438 109.105469 195.34375 C 108.597656 196.269531 107.214844 196.414062 106.402344 195.867188 C 105.476562 195.242188 105.375 194.085938 105.878906 193.167969 C 106.742188 191.59375 110.789062 184.3125 111.648438 182.738281 C 112.609375 180.972656 113.648438 179.234375 114.269531 177.308594 C 115.3125 174.046875 114.449219 170.269531 110.902344 169.125 C 107.082031 167.890625 103.785156 170.355469 101.304688 173.011719 C 98.171875 176.363281 95.316406 180.015625 92.351562 183.515625 C 89.304688 187.109375 91.058594 184.976562 88.011719 188.570312 C 87.332031 189.375 86.261719 189.738281 85.3125 189.097656 C 84.511719 188.554688 84.109375 187.199219 84.789062 186.394531 C 88.816406 181.644531 88.042969 182.621094 92.070312 177.867188 C 93.796875 175.828125 95.507812 173.773438 97.257812 171.753906 C 98.921875 169.835938 100.640625 168.023438 102.8125 166.671875 C 102.96875 166.574219 103.132812 166.484375 103.292969 166.394531 C 104.28125 163.714844 107.101562 156.660156 109.066406 157.8125 Z M 169.390625 166.394531 C 169.550781 166.484375 169.714844 166.574219 169.871094 166.671875 C 172.042969 168.023438 173.765625 169.835938 175.425781 171.753906 C 177.175781 173.773438 178.886719 175.828125 180.613281 177.867188 C 184.644531 182.621094 183.867188 181.644531 187.894531 186.394531 C 188.574219 187.199219 188.171875 188.554688 187.371094 189.097656 C 186.421875 189.738281 185.351562 189.375 184.671875 188.570312 C 181.625 184.976562 183.378906 187.109375 180.332031 183.515625 C 177.367188 180.015625 174.511719 176.363281 171.382812 173.011719 C 168.898438 170.355469 165.601562 167.890625 161.785156 169.125 C 158.238281 170.269531 157.371094 174.046875 158.417969 177.308594 C 159.035156 179.234375 160.078125 180.972656 161.039062 182.738281 C 161.894531 184.3125 165.941406 191.597656 166.804688 193.167969 C 167.308594 194.089844 167.207031 195.242188 166.28125 195.867188 C 165.46875 196.414062 164.089844 196.269531 163.582031 195.34375 C 161.6875 191.898438 156.1875 182.6875 154.875 178.976562 C 154.609375 178.226562 154.417969 177.453125 154.289062 176.667969 C 152.179688 174.730469 146.746094 169.457031 148.554688 168.082031 C 149.808594 167.125 152.503906 167.503906 154.628906 168.015625 C 153.789062 165.585938 152.417969 160.933594 153.59375 159.277344 C 154.71875 157.695312 158.847656 161.28125 161.285156 163.640625 C 161.664062 161.234375 162.359375 158.550781 163.617188 157.8125 C 165.582031 156.660156 168.402344 163.714844 169.390625 166.394531 Z M 145.972656 141.835938 C 144.164062 145.4375 140.46875 147.960938 136.382812 147.980469 C 132.300781 148.003906 128.566406 145.542969 126.722656 141.957031 C 125.578125 139.730469 122.21875 141.695312 123.363281 143.917969 C 125.820312 148.6875 131.003906 151.890625 136.382812 151.871094 C 141.757812 151.847656 146.925781 148.589844 149.328125 143.796875 C 150.449219 141.566406 147.09375 139.59375 145.972656 141.835938 Z M 224.3125 73.207031 C 227.109375 71.972656 229.875 71.363281 232.539062 71.265625 C 239.8125 59.914062 258.351562 29.65625 252.191406 25.34375 C 247.933594 22.363281 237.511719 37.773438 229.148438 51.933594 C 231.492188 58.507812 230.675781 66.042969 224.3125 73.207031 Z M 48.953125 73.207031 C 43.253906 66.785156 42.007812 60.070312 43.496094 54.011719 C 34.953125 39.332031 23.699219 22.21875 19.234375 25.34375 C 13.070312 29.65625 31.625 59.933594 38.890625 71.277344 C 42.117188 71.105469 45.511719 71.683594 48.953125 73.207031 Z M 48.953125 73.207031 " fill-opacity="1" fill-rule="nonzero"/><g mask="url(#90e847bba7)"><g transform="matrix(1, 0, 0, 1, 14, 28)"><g clip-path="url(#8b890966c3)"><g clip-path="url(#304367f4b1)"><path fill="#c83340" d="M 27.925781 154.875 C 32.414062 160.191406 31.535156 168.816406 22.839844 175.667969 C 14.148438 182.519531 7.066406 178.035156 3.871094 173.472656 C 0.632812 168.847656 -0.996094 162.566406 8.070312 154.90625 C 17.519531 146.925781 23.921875 150.136719 27.925781 154.875 Z M 54 187.574219 C 51.570312 191.015625 46.34375 192.742188 41 188.691406 C 35.65625 184.636719 37.242188 178.875 39.429688 176.304688 C 41.644531 173.703125 46.480469 171.316406 52.355469 175.460938 C 58.476562 179.785156 56.167969 184.5 54 187.574219 Z M 51.25 152.957031 C 49.953125 154.792969 47.160156 155.71875 44.308594 153.554688 C 41.453125 151.386719 42.300781 148.3125 43.46875 146.9375 C 44.652344 145.546875 47.234375 144.273438 50.371094 146.488281 C 53.640625 148.796875 52.410156 151.316406 51.25 152.957031 Z M 200.976562 29.554688 C 198.574219 32.960938 193.410156 34.667969 188.128906 30.660156 C 182.847656 26.65625 184.414062 20.960938 186.574219 18.421875 C 188.765625 15.847656 193.546875 13.488281 199.351562 17.585938 C 205.402344 21.859375 203.121094 26.519531 200.976562 29.554688 Z M 163.210938 29.90625 C 161.621094 32.15625 158.210938 33.285156 154.722656 30.636719 C 151.234375 27.992188 152.265625 24.230469 153.695312 22.550781 C 155.144531 20.851562 158.300781 19.292969 162.136719 22 C 166.132812 24.824219 164.625 27.902344 163.210938 29.90625 Z M 225.9375 80.628906 C 224.351562 82.878906 220.941406 84.003906 217.453125 81.359375 C 213.964844 78.714844 214.996094 74.953125 216.425781 73.273438 C 217.871094 71.574219 221.03125 70.015625 224.867188 72.722656 C 228.863281 75.546875 227.355469 78.625 225.9375 80.628906 Z M 119.046875 27.492188 C 114.558594 33.847656 104.917969 37.03125 95.058594 29.554688 C 85.195312 22.074219 88.117188 11.441406 92.15625 6.699219 C 96.246094 1.894531 105.171875 -2.511719 116.011719 5.144531 C 127.308594 13.121094 123.050781 21.824219 119.046875 27.492188 Z M 119.046875 27.492188 " fill-opacity="1" fill-rule="nonzero"/></g></g></g></g><path fill="#ec5409" d="M 159.902344 137.011719 C 159.902344 137.011719 185.414062 114 214.007812 133.515625 C 209.378906 148.300781 175.585938 158.296875 159.902344 137.011719 Z M 115.808594 137.011719 C 115.808594 137.011719 90.375 114.992188 59.539062 134.417969 C 64.167969 149.207031 100.125 158.296875 115.808594 137.011719 Z M 115.808594 137.011719 " fill-opacity="1" fill-rule="nonzero"/><path fill="#f8b854" d="M 129.445312 154.378906 C 129.242188 154.761719 128.742188 155.273438 128.675781 155.703125 C 128.605469 156.167969 129.183594 156.835938 129.347656 157.347656 C 129.621094 158.195312 129.921875 158.878906 130.957031 158.886719 C 131.480469 158.890625 131.976562 158.453125 132.472656 158.285156 C 132.914062 158.132812 133.117188 158.167969 133.15625 157.605469 C 133.183594 157.171875 133.132812 156.367188 132.898438 156.007812 C 132.667969 155.652344 132.140625 155.363281 131.835938 155.054688 C 131.503906 154.714844 131.277344 154.238281 130.824219 154.085938 C 130.503906 153.980469 129.765625 153.914062 129.445312 154.378906 Z M 129.445312 154.378906 " fill-opacity="1" fill-rule="nonzero"/><g clip-path="url(#cc11ab692a)"><g clip-path="url(#4f6ed43613)"><path fill="#e4a15a" d="M 129.042969 153.949219 C 129.628906 154.070312 130.113281 154.054688 130.46875 154.582031 C 130.789062 155.046875 130.683594 155.496094 131.15625 155.851562 C 131.484375 156.097656 131.953125 156.097656 132.195312 156.515625 C 132.554688 157.136719 131.910156 157.457031 131.472656 157.828125 C 131.046875 158.183594 130.566406 159.039062 129.953125 158.78125 C 130.546875 159.058594 131.128906 159.367188 131.820312 159.320312 C 132.589844 159.269531 133.679688 158.667969 133.996094 157.945312 C 134.222656 157.429688 133.894531 156.757812 133.679688 156.304688 C 133.476562 155.867188 133.402344 155.359375 133.085938 154.992188 C 132.898438 154.769531 132.628906 154.675781 132.363281 154.546875 C 131.960938 154.351562 131.683594 154.160156 131.304688 153.917969 C 130.976562 153.707031 130.453125 153.492188 130.054688 153.535156 C 129.8125 153.5625 129.464844 153.777344 129.042969 153.949219 Z M 129.042969 153.949219 " fill-opacity="1" fill-rule="nonzero"/></g></g><g clip-path="url(#afb4bf41eb)"><g clip-path="url(#0534312b07)"><path fill="#ffdcac" d="M 129.714844 156.863281 C 130.34375 156.953125 130.238281 154.457031 129.40625 155.132812 C 129.214844 155.289062 129.121094 155.691406 129.042969 155.917969 C 129.207031 156.25 129.589844 156.496094 129.714844 156.863281 Z M 129.714844 156.863281 " fill-opacity="1" fill-rule="nonzero"/></g></g><g clip-path="url(#ac5569f9cb)"><path fill="#f8b854" d="M 119.976562 158.789062 C 120.519531 158.894531 121.003906 158.90625 121.535156 159.152344 C 122.253906 159.488281 122.796875 159.859375 123.628906 159.816406 C 124.089844 159.792969 124.636719 159.597656 125.105469 159.726562 C 125.652344 159.875 126.214844 160.46875 126.640625 160.816406 C 127.304688 161.359375 127.695312 162.0625 128.371094 162.589844 C 128.933594 163.03125 129.382812 163.160156 130.089844 163.195312 C 130.40625 163.210938 130.84375 163.109375 131.15625 163.191406 C 131.554688 163.292969 131.972656 163.554688 132.390625 163.683594 C 132.882812 163.832031 133.519531 163.929688 133.925781 164.257812 C 134.214844 164.488281 134.386719 164.855469 134.574219 165.15625 C 134.675781 165.320312 135 165.675781 135.011719 165.859375 C 135.050781 166.441406 133.972656 167.179688 133.585938 167.476562 C 132.832031 168.0625 131.847656 169.183594 130.835938 169.207031 C 130.304688 169.222656 129.796875 169.039062 129.253906 169.078125 C 128.472656 169.132812 127.683594 169.273438 126.914062 169.382812 C 126.0625 169.5 125.191406 169.339844 124.398438 168.96875 C 123.8125 168.695312 123.628906 167.980469 123 167.746094 C 122.332031 167.496094 121.480469 167.675781 120.855469 167.40625 C 120.242188 167.140625 119.65625 166.585938 119.09375 166.21875 C 118.683594 165.949219 118.328125 165.851562 118.132812 165.414062 C 117.882812 164.851562 117.851562 164.195312 117.585938 163.625 C 117.398438 163.21875 117.066406 162.792969 117 162.335938 C 116.90625 161.667969 117.5625 160.195312 118.121094 159.714844 C 118.46875 159.421875 119.394531 158.839844 119.976562 158.785156 Z M 119.976562 158.789062 " fill-opacity="1" fill-rule="nonzero"/></g><g clip-path="url(#4be8cf35ca)"><g clip-path="url(#b68300a187)"><path fill="#e4a15a" d="M 123.152344 159.4375 C 123.472656 159.691406 124.324219 159.800781 124.804688 160.046875 C 125.375 160.339844 125.699219 160.671875 126.007812 161.230469 C 126.738281 162.542969 127.363281 163.574219 128.863281 163.984375 C 130.230469 164.359375 131.988281 164.234375 132.628906 165.816406 C 132.910156 166.515625 132.332031 166.96875 131.78125 167.445312 C 130.941406 168.171875 130.425781 168.269531 129.296875 168.265625 C 127.949219 168.265625 126.65625 169.011719 125.339844 168.925781 C 124.226562 168.851562 123.394531 167.746094 122.207031 168.28125 C 122.839844 168.746094 123.484375 169.34375 124.238281 169.640625 C 125.363281 170.085938 126.734375 169.902344 127.914062 170 C 130.195312 170.1875 132.953125 170.304688 134.414062 168.160156 C 134.820312 167.570312 135.164062 167.050781 135.675781 166.546875 C 136.046875 166.179688 136.371094 166.039062 136.347656 165.5 C 136.304688 164.421875 134.769531 163.335938 133.886719 163.015625 C 132.792969 162.613281 131.550781 162.6875 130.480469 162.242188 C 129.449219 161.8125 128.582031 161.046875 127.875 160.1875 C 127.046875 159.183594 126.496094 158.277344 125.023438 158.546875 C 124.40625 158.660156 123.691406 159.382812 123.152344 159.4375 Z M 123.152344 159.4375 " fill-opacity="1" fill-rule="nonzero"/></g></g><g clip-path="url(#a40329c851)"><g clip-path="url(#80f0db054a)"><path fill="#ffdcac" d="M 121.191406 160.09375 C 120.007812 159.445312 118.519531 159.90625 117.925781 161.144531 C 117.671875 161.675781 117.675781 162.261719 117.933594 162.777344 C 118.230469 163.378906 118.410156 163.96875 118.695312 164.566406 C 118.929688 165.0625 119.976562 165.773438 119.933594 164.699219 C 119.386719 164.425781 119.285156 164.128906 119.171875 163.558594 C 119.0625 163 118.683594 162.609375 118.578125 162.09375 C 118.472656 161.578125 119.007812 160.777344 119.4375 160.539062 C 119.699219 160.394531 120.78125 160.238281 121.191406 160.09375 Z M 121.191406 160.09375 " fill-opacity="1" fill-rule="nonzero"/></g></g><g clip-path="url(#ab43087bbd)"><path fill="#f8b854" d="M 139.796875 166.964844 C 140.328125 166.769531 140.785156 166.609375 141.246094 166.960938 C 141.679688 167.289062 142.171875 167.632812 142.578125 167.988281 C 143.183594 168.519531 143.378906 169.1875 143.214844 170 C 143.042969 170.820312 141.75 171.386719 140.964844 171.421875 C 140.308594 171.449219 139.355469 171.328125 138.828125 170.917969 C 138.527344 170.683594 138.375 170.015625 138.328125 169.609375 C 138.265625 169.070312 138.589844 168.523438 138.929688 168.136719 C 139.191406 167.835938 139.410156 167.300781 139.796875 166.964844 Z M 139.796875 166.964844 " fill-opacity="1" fill-rule="nonzero"/></g><g clip-path="url(#a98f8f4729)"><g clip-path="url(#0548867543)"><path fill="#e4a15a" d="M 140.582031 166.417969 C 140.980469 165.960938 141.339844 167.148438 141.414062 167.402344 C 141.5625 167.917969 141.875 168.027344 142.144531 168.445312 C 142.40625 168.855469 142.324219 169.308594 142.039062 169.695312 C 141.640625 170.25 141.304688 170.109375 140.699219 170.234375 C 140.347656 170.308594 139.753906 170.644531 139.6875 171.070312 C 139.585938 171.714844 140.914062 171.5 141.445312 171.578125 C 141.90625 171.648438 142.695312 171.90625 143.125 171.714844 C 143.898438 171.375 144.316406 170.015625 144.125 169.28125 C 143.851562 168.25 142.976562 168.085938 142.425781 167.28125 C 141.957031 166.59375 141.871094 166.183594 140.582031 166.417969 Z M 140.582031 166.417969 " fill-opacity="1" fill-rule="nonzero"/></g></g><g clip-path="url(#d9eec2c140)"><g clip-path="url(#a42e2244ee)"><path fill="#ffdcac" d="M 140.289062 167.554688 C 139.710938 167.363281 139.089844 168.707031 139.101562 169.167969 C 139.109375 169.507812 139.316406 170.097656 139.707031 169.628906 C 139.828125 169.484375 139.765625 169.226562 139.820312 169.054688 C 139.882812 168.851562 139.984375 168.679688 140.117188 168.515625 C 140.304688 168.285156 140.808594 167.851562 140.289062 167.554688 Z M 140.289062 167.554688 " fill-opacity="1" fill-rule="nonzero"/></g></g><path fill="#f8b854" d="M 140.039062 152.375 C 140.667969 151.949219 141.953125 151.546875 142.671875 151.792969 C 143.160156 151.960938 143.816406 152.433594 144.234375 152.761719 C 144.734375 153.15625 144.628906 153.648438 144.628906 154.253906 C 144.628906 154.921875 144.625 155.351562 144.871094 155.933594 C 145.140625 156.554688 145.660156 157.152344 145.851562 157.800781 C 146.023438 158.382812 145.699219 159.136719 145.589844 159.753906 C 145.507812 160.222656 145.46875 160.726562 145.363281 161.1875 C 145.335938 161.320312 145.242188 161.429688 145.117188 161.476562 C 144.445312 161.742188 143.988281 162.640625 143.316406 162.878906 C 142.753906 163.082031 141.886719 162.851562 141.265625 162.851562 C 140.75 162.851562 140.769531 162.878906 140.433594 162.464844 C 140.113281 162.070312 139.511719 161.621094 139.34375 161.148438 C 139.226562 160.808594 139.347656 160.542969 139.421875 160.167969 C 139.546875 159.554688 139.585938 158.925781 139.601562 158.300781 C 139.617188 157.597656 139.425781 157.363281 138.964844 156.828125 C 138.519531 156.3125 138.53125 155.878906 138.476562 155.207031 C 138.441406 154.792969 138.371094 154.507812 138.585938 154.136719 C 138.820312 153.738281 139.214844 153.457031 139.453125 153.050781 C 139.578125 152.839844 139.609375 152.652344 140.039062 152.375 Z M 140.039062 152.375 " fill-opacity="1" fill-rule="nonzero"/><g clip-path="url(#fc3119349f)"><g clip-path="url(#c3a191baf4)"><path fill="#e4a15a" d="M 140.402344 152.039062 C 141.238281 151.558594 142.273438 151.761719 142.84375 152.550781 C 143.359375 153.265625 143.25 154.296875 143.257812 155.140625 C 143.269531 156.042969 143.914062 156.542969 144.195312 157.347656 C 144.382812 157.882812 144.425781 158.125 144.375 158.675781 C 144.332031 159.164062 144.480469 159.5625 144.449219 160.035156 C 144.359375 161.363281 143.050781 162.238281 143.488281 163.660156 C 143.976562 163.164062 144.339844 162.796875 144.984375 162.460938 C 145.523438 162.183594 145.910156 162.046875 146.203125 161.5 C 146.71875 160.542969 146.652344 159.007812 146.652344 157.945312 C 146.652344 157.097656 146.230469 156.773438 145.828125 156.09375 C 145.429688 155.421875 145.453125 154.726562 145.34375 153.96875 C 145.074219 152.152344 144.265625 151.265625 142.417969 150.972656 C 141.914062 150.894531 140.613281 151.121094 140.402344 152.039062 Z M 140.402344 152.039062 " fill-opacity="1" fill-rule="nonzero"/></g></g><g clip-path="url(#83ecb78106)"><g clip-path="url(#d643c083c9)"><path fill="#ffdcac" d="M 140.941406 153.074219 C 140.34375 152.871094 139.996094 153.273438 139.703125 153.726562 C 139.351562 154.277344 139.164062 154.605469 139.417969 155.261719 C 139.5625 155.636719 139.984375 156.285156 140.328125 155.800781 C 140.644531 155.351562 140.1875 154.8125 140.328125 154.300781 C 140.375 154.128906 141.503906 153.175781 140.941406 153.074219 Z M 140.941406 153.074219 " fill-opacity="1" fill-rule="nonzero"/></g></g><g clip-path="url(#e3b4c3813b)"><path fill="#f8b854" d="M 152.773438 147.292969 C 152.59375 147.398438 152.421875 147.523438 152.285156 147.640625 C 151.6875 148.144531 151.4375 148.886719 151.363281 149.628906 C 151.265625 150.613281 150.96875 151.144531 150.324219 151.933594 C 149.820312 152.550781 149.238281 152.792969 149.09375 153.589844 C 148.992188 154.144531 148.480469 155.859375 148.828125 156.253906 C 148.933594 156.367188 149.398438 156.519531 149.558594 156.632812 C 149.679688 156.714844 150.082031 157.160156 150.234375 157.179688 C 150.457031 157.207031 150.558594 157.066406 150.785156 156.941406 C 151.429688 156.578125 152.347656 156.554688 152.824219 156.085938 C 153.363281 155.558594 153.949219 154.753906 153.699219 154.050781 C 153.425781 153.289062 153.230469 152.878906 153.683594 152.097656 C 153.9375 151.65625 154.46875 151.554688 154.808594 151.179688 C 155.160156 150.792969 155.425781 150.300781 155.773438 149.902344 C 155.871094 149.789062 155.914062 149.644531 155.882812 149.503906 C 155.804688 149.167969 155.800781 148.804688 155.601562 148.515625 C 155.359375 148.164062 154.917969 147.871094 154.605469 147.585938 C 154.207031 147.234375 153.914062 146.925781 153.375 147.039062 C 153.179688 147.078125 152.96875 147.175781 152.773438 147.292969 Z M 152.773438 147.292969 " fill-opacity="1" fill-rule="nonzero"/></g><g clip-path="url(#2b7bf7c9f3)"><g clip-path="url(#cc1d76309a)"><path fill="#e4a15a" d="M 151.585938 147.386719 C 152.65625 146.839844 153.332031 147.085938 153.785156 148.042969 C 153.960938 148.410156 154.402344 148.664062 154.546875 149.007812 C 154.671875 149.308594 154.464844 149.804688 154.308594 150.117188 C 153.929688 150.875 153.019531 151.265625 152.671875 151.992188 C 152.574219 152.191406 152.613281 152.492188 152.542969 152.695312 C 152.457031 152.949219 152.167969 153.230469 152.132812 153.472656 C 152.066406 153.921875 152.613281 154.300781 152.539062 154.785156 C 152.46875 155.246094 151.984375 155.433594 151.660156 155.753906 C 151.066406 156.339844 150.824219 156.90625 150.886719 157.765625 C 151.476562 157.132812 152.058594 157.050781 152.824219 156.691406 C 153.40625 156.417969 153.835938 155.871094 154.226562 155.34375 C 154.5625 154.894531 154.972656 154.46875 154.886719 153.882812 C 154.773438 153.136719 154.394531 152.964844 154.953125 152.242188 C 155.292969 151.800781 155.824219 151.632812 156.105469 151.195312 C 156.398438 150.746094 156.570312 149.828125 156.523438 149.296875 C 156.480469 148.773438 156.285156 148.042969 156.066406 147.566406 C 155.746094 146.863281 155.003906 146.605469 154.351562 146.25 C 153.589844 145.835938 153.351562 145.851562 152.570312 146.265625 C 152.089844 146.519531 151.585938 146.601562 151.585938 147.386719 Z M 151.585938 147.386719 " fill-opacity="1" fill-rule="nonzero"/></g></g><g clip-path="url(#1b9cd0410e)"><g clip-path="url(#2f32365115)"><path fill="#ffdcac" d="M 150.515625 152.765625 C 150.054688 153.007812 149.589844 153.453125 149.519531 153.96875 C 149.460938 154.386719 149.085938 155.105469 149.28125 155.5 C 149.464844 155.871094 150.34375 155.839844 150.183594 155.328125 C 150.117188 155.121094 149.902344 155.128906 149.867188 154.839844 C 149.839844 154.621094 149.90625 154.320312 149.984375 154.132812 C 150.148438 153.738281 150.851562 153.308594 150.515625 152.765625 Z M 150.515625 152.765625 " fill-opacity="1" fill-rule="nonzero"/></g></g><g clip-path="url(#2b3c40514b)"><path fill="#f8b854" d="M 153.023438 159.960938 C 152.441406 160.03125 152.164062 159.945312 151.804688 160.445312 C 151.558594 160.796875 151.464844 161.097656 151.121094 161.371094 C 150.859375 161.582031 150.515625 161.652344 150.253906 161.835938 C 149.808594 162.144531 149.492188 162.671875 149.160156 163.09375 C 148.898438 163.429688 148.25 163.820312 148.105469 164.1875 C 147.933594 164.621094 148.347656 164.921875 148.585938 165.253906 C 148.9375 165.746094 149.207031 166.03125 149.859375 165.949219 C 150.363281 165.882812 150.792969 165.535156 151.269531 165.445312 C 151.558594 165.390625 151.902344 165.539062 152.167969 165.375 C 152.519531 165.15625 152.691406 164.390625 153.066406 164.082031 C 153.421875 163.785156 153.929688 163.765625 154.335938 163.539062 C 154.890625 163.230469 155.191406 162.449219 155.113281 161.820312 C 155.089844 161.617188 155.007812 161.316406 154.84375 161.1875 C 154.59375 160.992188 154.332031 161.238281 154.050781 161.121094 C 153.757812 160.996094 153.730469 160.558594 153.570312 160.351562 C 153.414062 160.144531 153.335938 160.058594 153.023438 159.960938 Z M 153.023438 159.960938 " fill-opacity="1" fill-rule="nonzero"/></g><g clip-path="url(#e17a297a48)"><g clip-path="url(#ef12efbb65)"><path fill="#e4a15a" d="M 151.527344 159.972656 C 152.207031 159.683594 152.714844 160.027344 152.984375 160.628906 C 153.125 160.945312 153.15625 161.097656 153.386719 161.390625 C 153.59375 161.652344 153.847656 161.769531 153.878906 162.121094 C 153.9375 162.851562 153.113281 163.074219 152.671875 163.492188 C 152.164062 163.976562 152.164062 164.84375 151.574219 165.210938 C 151.261719 165.402344 150.835938 165.332031 150.515625 165.566406 C 150.140625 165.84375 150.039062 166.296875 149.765625 166.648438 C 150.65625 165.984375 151.542969 166.054688 152.558594 165.804688 C 153.0625 165.679688 153.253906 165.578125 153.503906 165.214844 C 153.832031 164.734375 153.957031 164.488281 154.507812 164.1875 C 155.128906 163.84375 155.285156 163.660156 155.597656 163.019531 C 155.976562 162.242188 155.878906 162.261719 155.601562 161.472656 C 155.449219 161.042969 155.542969 160.515625 155.214844 160.179688 C 154.839844 159.792969 154.328125 159.984375 153.863281 159.914062 C 153.1875 159.8125 152.175781 158.933594 151.527344 159.972656 Z M 151.527344 159.972656 " fill-opacity="1" fill-rule="nonzero"/></g></g><g clip-path="url(#bf29e71e37)"><g clip-path="url(#f8d1a247a9)"><path fill="#ffdcac" d="M 150.824219 162.175781 C 150.425781 162.183594 150.296875 162.6875 150.105469 162.953125 C 149.867188 163.28125 149.402344 163.480469 149.230469 163.828125 C 149.160156 163.980469 149.109375 164.265625 149.277344 164.363281 C 149.496094 164.492188 149.546875 164.277344 149.6875 164.15625 C 149.980469 163.902344 150.292969 163.699219 150.480469 163.390625 C 150.625 163.160156 150.988281 162.570312 150.824219 162.175781 Z M 150.824219 162.175781 " fill-opacity="1" fill-rule="nonzero"/></g></g><path fill="#ce9351" d="M 129.867188 158.433594 C 130.300781 158.875 131.015625 158.941406 131.542969 158.644531 C 131.925781 158.429688 132.382812 158.183594 132.816406 158.0625 C 132.945312 158.011719 132.996094 157.929688 133.023438 157.785156 C 133.097656 157.230469 133.074219 156.53125 132.8125 156.03125 C 132.449219 155.542969 131.871094 155.269531 131.535156 154.695312 C 131.914062 155.210938 132.523438 155.414062 132.949219 155.933594 C 133.148438 156.222656 133.191406 156.550781 133.234375 156.863281 C 133.257812 157.257812 133.347656 157.714844 133.128906 158.085938 C 132.960938 158.300781 132.664062 158.308594 132.449219 158.398438 C 132.171875 158.5 131.910156 158.675781 131.613281 158.796875 C 131.035156 159.089844 130.242188 158.949219 129.867188 158.433594 Z M 129.867188 158.433594 " fill-opacity="1" fill-rule="nonzero"/><path fill="#ce9351" d="M 122.960938 159.761719 C 123.511719 159.898438 124.050781 159.722656 124.601562 159.660156 C 125.175781 159.578125 125.6875 159.933594 126.105469 160.285156 C 127 160.921875 127.640625 161.886719 128.480469 162.570312 C 128.910156 162.90625 129.425781 163.070312 129.96875 163.09375 C 130.371094 163.140625 130.808594 162.992188 131.222656 163.109375 C 131.625 163.21875 131.992188 163.449219 132.375 163.570312 C 132.902344 163.738281 133.480469 163.804688 133.953125 164.144531 C 134.3125 164.40625 134.476562 164.8125 134.707031 165.160156 C 134.839844 165.378906 135.152344 165.65625 135.113281 165.941406 C 134.960938 166.675781 134.222656 167.085938 133.707031 167.511719 C 132.832031 168.15625 132.082031 169.152344 130.917969 169.285156 C 130.339844 169.320312 129.808594 169.113281 129.273438 169.148438 C 127.648438 169.253906 125.929688 169.816406 124.398438 168.96875 C 125.957031 169.769531 127.632812 169.136719 129.265625 169.007812 C 129.835938 168.96875 130.378906 169.164062 130.90625 169.117188 C 131.996094 168.964844 132.734375 167.988281 133.589844 167.351562 C 134.011719 166.992188 135.269531 166.21875 134.777344 165.617188 C 134.621094 165.421875 134.425781 165.132812 134.3125 164.925781 C 134.058594 164.417969 133.652344 164.125 133.109375 163.988281 C 132.585938 163.855469 132.027344 163.683594 131.542969 163.4375 C 131.289062 163.324219 131.054688 163.238281 130.789062 163.257812 C 130.527344 163.261719 130.242188 163.3125 129.957031 163.28125 C 128.773438 163.277344 127.90625 162.355469 127.230469 161.5 C 126.886719 161.074219 126.445312 160.738281 126.039062 160.367188 C 125.632812 160.011719 125.167969 159.644531 124.601562 159.714844 C 124.0625 159.757812 123.503906 159.914062 122.960938 159.761719 Z M 122.960938 159.761719 " fill-opacity="1" fill-rule="nonzero"/><g clip-path="url(#a5e10d7930)"><path fill="#ce9351" d="M 141.074219 166.851562 C 141.722656 167.273438 142.371094 167.675781 142.921875 168.226562 C 143.4375 168.824219 143.539062 169.820312 143.101562 170.492188 C 142.851562 170.816406 142.507812 171.035156 142.15625 171.199219 C 141.121094 171.683594 139.753906 171.597656 138.828125 170.917969 C 140.082031 171.625 141.96875 171.503906 142.929688 170.359375 C 143.320312 169.785156 143.222656 168.882812 142.792969 168.332031 C 142.300781 167.785156 141.648438 167.328125 141.074219 166.851562 Z M 141.074219 166.851562 " fill-opacity="1" fill-rule="nonzero"/></g><path fill="#ce9351" d="M 142.671875 151.792969 C 143.285156 152.011719 143.816406 152.390625 144.335938 152.78125 C 144.609375 152.996094 144.707031 153.371094 144.707031 153.695312 C 144.714844 154.332031 144.664062 154.984375 144.847656 155.59375 C 145.113281 156.523438 146.035156 157.246094 146.007812 158.261719 C 145.957031 158.945312 145.683594 159.53125 145.625 160.171875 C 145.507812 160.613281 145.636719 161.347656 145.140625 161.570312 C 144.699219 161.75 144.398438 162.136719 144.042969 162.457031 C 143.332031 163.300781 142.191406 162.914062 141.265625 162.851562 C 141.90625 162.839844 142.5625 163.011719 143.175781 162.863281 C 143.789062 162.695312 144.136719 162.085938 144.640625 161.671875 C 144.769531 161.566406 144.910156 161.464844 145.070312 161.398438 C 145.199219 161.347656 145.269531 161.25 145.289062 161.097656 C 145.351562 160.785156 145.386719 160.464844 145.429688 160.144531 C 145.484375 159.492188 145.753906 158.867188 145.789062 158.253906 C 145.804688 157.277344 144.90625 156.570312 144.667969 155.648438 C 144.480469 155.011719 144.558594 154.34375 144.570312 153.695312 C 144.578125 153.382812 144.503906 153.066406 144.265625 152.859375 C 143.78125 152.453125 143.265625 152.042969 142.671875 151.792969 Z M 142.671875 151.792969 " fill-opacity="1" fill-rule="nonzero"/><g clip-path="url(#2dd0334683)"><path fill="#ce9351" d="M 150.785156 156.941406 C 151.332031 156.617188 151.996094 156.550781 152.53125 156.238281 C 153.015625 155.902344 153.425781 155.34375 153.613281 154.78125 C 153.84375 154.1875 153.3125 153.660156 153.3125 152.960938 C 153.308594 152.617188 153.445312 152.296875 153.613281 152.015625 C 153.800781 151.707031 154.117188 151.550781 154.371094 151.386719 C 154.917969 151.058594 155.175781 150.46875 155.574219 149.988281 C 155.683594 149.851562 155.785156 149.761719 155.792969 149.636719 C 155.804688 149.535156 155.742188 149.34375 155.730469 149.195312 C 155.691406 148.523438 155.167969 148.152344 154.691406 147.753906 C 154.449219 147.546875 154.238281 147.304688 153.972656 147.164062 C 153.386719 146.847656 152.761719 147.3125 152.285156 147.640625 C 153.273438 146.828125 153.828125 146.699219 154.78125 147.648438 C 155.28125 148.03125 155.875 148.46875 155.914062 149.164062 C 155.929688 149.328125 156 149.480469 155.984375 149.660156 C 155.976562 149.753906 155.9375 149.847656 155.882812 149.921875 C 155.519531 150.34375 155.253906 150.84375 154.878906 151.257812 C 154.570312 151.609375 154.023438 151.746094 153.789062 152.125 C 153.632812 152.382812 153.507812 152.667969 153.511719 152.960938 C 153.5 153.425781 153.796875 153.855469 153.84375 154.332031 C 153.828125 155.15625 153.230469 155.882812 152.582031 156.328125 C 152 156.628906 151.351562 156.648438 150.785156 156.941406 Z M 150.785156 156.941406 " fill-opacity="1" fill-rule="nonzero"/></g><g clip-path="url(#36f3b29f4a)"><path fill="#ce9351" d="M 150.007812 165.921875 C 150.425781 165.804688 150.769531 165.527344 151.203125 165.410156 C 151.605469 165.300781 152.089844 165.558594 152.324219 165.097656 C 152.554688 164.753906 152.65625 164.304688 153.03125 163.984375 C 153.414062 163.695312 153.875 163.660156 154.234375 163.472656 C 154.585938 163.292969 154.828125 162.925781 154.945312 162.535156 C 155.085938 162.078125 155.109375 161.03125 154.386719 161.222656 C 154.160156 161.28125 153.863281 161.164062 153.765625 160.9375 C 153.652344 160.734375 153.628906 160.511719 153.503906 160.355469 C 153.40625 160.175781 153.167969 160.042969 153.027344 159.996094 C 152.734375 160.027344 152.425781 159.984375 152.152344 160.113281 C 152.421875 159.960938 152.746094 159.976562 153.035156 159.929688 C 153.53125 160.011719 153.722656 160.488281 153.886719 160.867188 C 154.066406 161.21875 154.402344 160.992188 154.714844 161.027344 C 154.847656 161.054688 154.960938 161.152344 155.027344 161.257812 C 155.46875 162.074219 155.152344 163.21875 154.328125 163.660156 C 153.914062 163.863281 153.46875 163.894531 153.152344 164.140625 C 152.757812 164.441406 152.65625 165.121094 152.203125 165.433594 C 151.898438 165.617188 151.527344 165.433594 151.222656 165.503906 C 150.8125 165.582031 150.433594 165.835938 150.007812 165.921875 Z M 150.007812 165.921875 " fill-opacity="1" fill-rule="nonzero"/></g></g></g></g></g></g></svg>