<svg xmlns="http://www.w3.org/2000/svg" xmlns:xlink="http://www.w3.org/1999/xlink" width="397" zoomAndPan="magnify" viewBox="0 0 297.12 419.249996" height="559" preserveAspectRatio="xMidYMid meet" version="1.0"><defs><g/><clipPath id="2d1cac06a5"><path d="M 0 0.246094 L 296.109375 0.246094 L 296.109375 417.367188 L 0 417.367188 Z M 0 0.246094 " clip-rule="nonzero"/></clipPath><clipPath id="d38a588a99"><path d="M 29.613281 29.859375 L 266.15625 29.859375 L 266.15625 388.03125 L 29.613281 388.03125 Z M 29.613281 29.859375 " clip-rule="nonzero"/></clipPath><clipPath id="c15489e4a5"><path d="M 29.613281 59.707031 L 29.613281 358.183594 C 29.613281 374.667969 42.976562 388.03125 59.460938 388.03125 L 236.667969 388.03125 C 253.152344 388.03125 266.515625 374.667969 266.515625 358.183594 L 266.515625 59.707031 C 266.515625 43.222656 253.152344 29.859375 236.667969 29.859375 L 59.460938 29.859375 C 42.976562 29.859375 29.613281 43.222656 29.613281 59.707031 Z M 29.613281 59.707031 " clip-rule="nonzero"/></clipPath><clipPath id="bc00a6a50d"><rect x="0" width="92" y="0" height="26"/></clipPath><clipPath id="4593f9d1e1"><rect x="0" width="92" y="0" height="26"/></clipPath></defs><g clip-path="url(#2d1cac06a5)"><path fill="#f8f3e1" d="M 0 -4.339844 L 327.578125 -4.339844 L 327.578125 418.003906 L 0 418.003906 Z M 0 -4.339844 " fill-opacity="1" fill-rule="nonzero"/></g><g clip-path="url(#d38a588a99)"><g clip-path="url(#c15489e4a5)"><path fill="#a2cb8b" d="M 29.613281 29.859375 L 266.15625 29.859375 L 266.15625 388.03125 L 29.613281 388.03125 Z M 29.613281 29.859375 " fill-opacity="1" fill-rule="nonzero"/></g></g><g transform="matrix(1, 0, 0, 1, 102, 343)"><g clip-path="url(#bc00a6a50d)"><g fill="#feffd3" fill-opacity="1"><g transform="translate(91.563791, 6.441182)"><g><path d="M -8.78125 9.734375 C -8.78125 8.941406 -8.785156 8.179688 -8.796875 7.453125 C -8.804688 6.722656 -8.816406 6.019531 -8.828125 5.34375 C -8.828125 4.664062 -8.835938 4.140625 -8.859375 3.765625 C -8.890625 3.390625 -8.929688 3.046875 -8.984375 2.734375 C -9.015625 2.515625 -9.039062 2.304688 -9.0625 2.109375 C -9.082031 1.910156 -9.09375 1.6875 -9.09375 1.4375 C -9.09375 1.320312 -9.09375 1.210938 -9.09375 1.109375 C -9.09375 1.015625 -9.082031 0.910156 -9.0625 0.796875 C -9 0.367188 -8.796875 0.078125 -8.453125 -0.078125 L -8.28125 -0.078125 C -8.070312 -0.078125 -7.894531 -0.03125 -7.75 0.0625 C -7.613281 0.15625 -7.492188 0.28125 -7.390625 0.4375 L -7.40625 0.96875 C -7.445312 1.320312 -7.46875 1.679688 -7.46875 2.046875 C -7.46875 2.234375 -7.457031 2.382812 -7.4375 2.5 C -7.425781 2.625 -7.414062 2.757812 -7.40625 2.90625 C -7.40625 2.945312 -7.398438 2.992188 -7.390625 3.046875 C -7.390625 3.097656 -7.390625 3.148438 -7.390625 3.203125 C -7.390625 3.222656 -7.382812 3.238281 -7.375 3.25 C -7.363281 3.257812 -7.359375 3.273438 -7.359375 3.296875 L -7.34375 3.40625 L -7.34375 3.484375 C -7.289062 3.953125 -7.25 4.40625 -7.21875 4.84375 C -7.195312 5.289062 -7.1875 5.6875 -7.1875 6.03125 C -7.1875 6.125 -7.160156 6.203125 -7.109375 6.265625 C -6.710938 6.703125 -6.335938 7.101562 -5.984375 7.46875 C -5.628906 7.84375 -5.3125 8.175781 -5.03125 8.46875 L -4.921875 8.59375 C -3.941406 9.5625 -3.132812 10.425781 -2.5 11.1875 L -2.5 9.84375 C -2.5 9.507812 -2.503906 9.175781 -2.515625 8.84375 C -2.523438 8.519531 -2.535156 8.191406 -2.546875 7.859375 C -2.578125 7.273438 -2.597656 6.617188 -2.609375 5.890625 C -2.617188 5.160156 -2.625 4.460938 -2.625 3.796875 C -2.625 3.253906 -2.632812 2.789062 -2.65625 2.40625 C -2.6875 2.03125 -2.726562 1.695312 -2.78125 1.40625 C -2.800781 1.363281 -2.8125 1.304688 -2.8125 1.234375 C -2.8125 1.171875 -2.8125 1.117188 -2.8125 1.078125 C -2.8125 0.828125 -2.769531 0.632812 -2.6875 0.5 C -2.601562 0.363281 -2.5 0.226562 -2.375 0.09375 C -2.300781 0.0390625 -2.21875 0.00390625 -2.125 -0.015625 C -2.039062 -0.0351562 -1.945312 -0.046875 -1.84375 -0.046875 C -1.664062 -0.046875 -1.515625 -0.015625 -1.390625 0.046875 C -1.273438 0.109375 -1.207031 0.25 -1.1875 0.46875 C -1.1875 0.925781 -1.1875 1.351562 -1.1875 1.75 C -1.1875 2.144531 -1.175781 2.507812 -1.15625 2.84375 C -1.15625 2.988281 -1.148438 3.125 -1.140625 3.25 C -1.140625 3.382812 -1.140625 3.519531 -1.140625 3.65625 L -1.140625 4.359375 C -1.140625 4.898438 -1.128906 5.445312 -1.109375 6 C -1.085938 6.550781 -1.066406 7.101562 -1.046875 7.65625 C -1.023438 8.019531 -1.007812 8.421875 -1 8.859375 C -1 9.304688 -1 9.75 -1 10.1875 L -1 10.90625 C -1 11.46875 -0.992188 12.007812 -0.984375 12.53125 C -0.972656 13.0625 -0.945312 13.585938 -0.90625 14.109375 C -0.90625 14.179688 -0.925781 14.257812 -0.96875 14.34375 C -1.019531 14.4375 -1.09375 14.5 -1.1875 14.53125 C -1.25 14.550781 -1.3125 14.566406 -1.375 14.578125 C -1.445312 14.597656 -1.507812 14.609375 -1.5625 14.609375 C -1.988281 14.609375 -2.359375 14.414062 -2.671875 14.03125 C -2.742188 13.820312 -2.875 13.5625 -3.0625 13.25 C -3.25 12.945312 -3.453125 12.648438 -3.671875 12.359375 C -3.890625 12.078125 -4.070312 11.863281 -4.21875 11.71875 C -4.332031 11.625 -4.484375 11.488281 -4.671875 11.3125 C -4.859375 11.132812 -5 10.992188 -5.09375 10.890625 C -5.164062 10.796875 -5.238281 10.710938 -5.3125 10.640625 C -5.382812 10.566406 -5.453125 10.5 -5.515625 10.4375 C -5.765625 10.132812 -5.960938 9.890625 -6.109375 9.703125 C -6.265625 9.515625 -6.425781 9.328125 -6.59375 9.140625 C -6.757812 8.960938 -6.984375 8.71875 -7.265625 8.40625 C -7.265625 8.789062 -7.253906 9.179688 -7.234375 9.578125 C -7.222656 9.972656 -7.207031 10.363281 -7.1875 10.75 L -7.0625 13.71875 C -7.113281 14.019531 -7.179688 14.234375 -7.265625 14.359375 C -7.359375 14.484375 -7.59375 14.546875 -7.96875 14.546875 L -8.109375 14.546875 C -8.253906 14.472656 -8.382812 14.382812 -8.5 14.28125 C -8.613281 14.175781 -8.675781 14.050781 -8.6875 13.90625 C -8.71875 13.289062 -8.738281 12.632812 -8.75 11.9375 C -8.757812 11.25 -8.769531 10.515625 -8.78125 9.734375 Z M -8.78125 9.734375 "/></g></g></g><g fill="#feffd3" fill-opacity="1"><g transform="translate(81.032342, 6.441182)"><g><path d="M -5 10.671875 C -5.757812 10.671875 -6.429688 10.46875 -7.015625 10.0625 C -7.609375 9.65625 -8.097656 9.140625 -8.484375 8.515625 C -8.867188 7.890625 -9.144531 7.242188 -9.3125 6.578125 L -9.328125 6.578125 C -9.460938 6.140625 -9.53125 5.570312 -9.53125 4.875 C -9.53125 4.269531 -9.46875 3.660156 -9.34375 3.046875 C -9.21875 2.441406 -9 1.890625 -8.6875 1.390625 C -8.375 0.890625 -7.945312 0.488281 -7.40625 0.1875 C -6.863281 -0.113281 -6.175781 -0.265625 -5.34375 -0.265625 L -4.96875 -0.265625 C -3.507812 -0.0234375 -2.40625 0.515625 -1.65625 1.359375 C -0.914062 2.210938 -0.484375 3.429688 -0.359375 5.015625 L -0.359375 5.578125 C -0.359375 6.097656 -0.472656 6.648438 -0.703125 7.234375 C -0.941406 7.828125 -1.269531 8.382812 -1.6875 8.90625 C -2.113281 9.425781 -2.609375 9.847656 -3.171875 10.171875 C -3.734375 10.503906 -4.34375 10.671875 -5 10.671875 Z M -6.859375 1.75 C -7.234375 2.082031 -7.5 2.507812 -7.65625 3.03125 C -7.820312 3.550781 -7.925781 4.144531 -7.96875 4.8125 L -7.96875 5.0625 C -7.96875 5.5625 -7.882812 6.066406 -7.71875 6.578125 C -7.5625 7.097656 -7.335938 7.566406 -7.046875 7.984375 L -6.453125 8.546875 C -5.992188 8.960938 -5.507812 9.171875 -5 9.171875 C -4.457031 9.171875 -3.957031 8.984375 -3.5 8.609375 C -3.039062 8.234375 -2.632812 7.71875 -2.28125 7.0625 L -2.28125 7.078125 C -2.113281 6.742188 -2 6.394531 -1.9375 6.03125 C -1.882812 5.675781 -1.859375 5.320312 -1.859375 4.96875 C -1.859375 4.113281 -2.109375 3.347656 -2.609375 2.671875 C -3.117188 2.003906 -3.894531 1.578125 -4.9375 1.390625 L -4.921875 1.390625 C -4.984375 1.367188 -5.046875 1.359375 -5.109375 1.359375 C -5.171875 1.359375 -5.226562 1.359375 -5.28125 1.359375 C -5.632812 1.359375 -5.945312 1.382812 -6.21875 1.4375 C -6.5 1.5 -6.710938 1.601562 -6.859375 1.75 Z M -6.859375 1.75 "/></g></g></g><g fill="#feffd3" fill-opacity="1"><g transform="translate(70.902093, 6.441182)"><g/></g></g><g fill="#feffd3" fill-opacity="1"><g transform="translate(65.225142, 6.441182)"><g><path d="M -7.5625 13.78125 L -7.625 13.546875 C -7.625 13.460938 -7.59375 13.328125 -7.53125 13.140625 C -7.46875 12.953125 -7.359375 12.84375 -7.203125 12.8125 C -7.015625 12.832031 -6.828125 12.84375 -6.640625 12.84375 C -6.453125 12.851562 -6.265625 12.859375 -6.078125 12.859375 C -5.984375 12.859375 -5.890625 12.859375 -5.796875 12.859375 C -5.710938 12.867188 -5.625 12.875 -5.53125 12.875 C -5.40625 12.875 -5.207031 12.867188 -4.9375 12.859375 C -4.675781 12.859375 -4.46875 12.863281 -4.3125 12.875 C -4.300781 12.570312 -4.296875 12.285156 -4.296875 12.015625 C -4.296875 11.742188 -4.296875 11.457031 -4.296875 11.15625 L -4.296875 10.6875 C -4.296875 9.820312 -4.300781 8.945312 -4.3125 8.0625 C -4.320312 7.175781 -4.375 6.28125 -4.46875 5.375 L -4.46875 1.25 C -4.46875 0.613281 -4.265625 0.175781 -3.859375 -0.0625 L -3.796875 -0.0625 C -3.703125 -0.113281 -3.597656 -0.140625 -3.484375 -0.140625 C -3.328125 -0.140625 -3.1875 -0.09375 -3.0625 0 C -2.9375 0.09375 -2.859375 0.238281 -2.828125 0.4375 C -2.859375 0.707031 -2.878906 0.992188 -2.890625 1.296875 C -2.898438 1.597656 -2.90625 1.9375 -2.90625 2.3125 C -2.90625 2.375 -2.90625 2.425781 -2.90625 2.46875 C -2.914062 2.519531 -2.921875 2.5625 -2.921875 2.59375 L -2.921875 3.125 C -2.921875 3.175781 -2.914062 3.21875 -2.90625 3.25 C -2.90625 3.289062 -2.90625 3.332031 -2.90625 3.375 L -2.90625 3.859375 C -2.863281 4.535156 -2.828125 5.253906 -2.796875 6.015625 C -2.773438 6.773438 -2.765625 7.5 -2.765625 8.1875 C -2.753906 8.457031 -2.75 8.773438 -2.75 9.140625 C -2.75 9.515625 -2.75 9.835938 -2.75 10.109375 C -2.75 10.335938 -2.75 10.578125 -2.75 10.828125 C -2.75 11.085938 -2.753906 11.320312 -2.765625 11.53125 L -2.765625 12.921875 C -2.722656 12.921875 -2.679688 12.921875 -2.640625 12.921875 C -2.609375 12.921875 -2.554688 12.914062 -2.484375 12.90625 L -2.5 12.90625 C -2.445312 12.882812 -2.390625 12.867188 -2.328125 12.859375 C -2.265625 12.859375 -2.1875 12.859375 -2.09375 12.859375 C -1.96875 12.859375 -1.847656 12.859375 -1.734375 12.859375 C -1.617188 12.859375 -1.53125 12.863281 -1.46875 12.875 C -1.414062 12.875 -1.351562 12.867188 -1.28125 12.859375 C -1.21875 12.859375 -1.148438 12.851562 -1.078125 12.84375 L -1.109375 12.84375 C -1.046875 12.820312 -0.984375 12.8125 -0.921875 12.8125 C -0.867188 12.8125 -0.820312 12.8125 -0.78125 12.8125 L -0.4375 12.8125 C 0 12.8125 0.257812 13.132812 0.34375 13.78125 C 0.34375 13.851562 0.328125 13.898438 0.296875 13.921875 C 0.179688 14.054688 0.0390625 14.164062 -0.125 14.25 C -0.289062 14.34375 -0.484375 14.390625 -0.703125 14.390625 L -0.796875 14.390625 C -0.796875 14.390625 -0.800781 14.382812 -0.8125 14.375 C -0.820312 14.363281 -0.832031 14.359375 -0.84375 14.359375 L -0.96875 14.359375 C -1.125 14.335938 -1.289062 14.320312 -1.46875 14.3125 C -1.65625 14.300781 -1.875 14.296875 -2.125 14.296875 C -2.363281 14.296875 -2.601562 14.296875 -2.84375 14.296875 C -3.082031 14.296875 -3.332031 14.304688 -3.59375 14.328125 L -4.296875 14.328125 C -4.398438 14.328125 -4.507812 14.328125 -4.625 14.328125 C -4.75 14.335938 -4.878906 14.34375 -5.015625 14.34375 C -5.160156 14.34375 -5.328125 14.34375 -5.515625 14.34375 C -5.710938 14.34375 -5.90625 14.347656 -6.09375 14.359375 C -6.332031 14.359375 -6.613281 14.328125 -6.9375 14.265625 C -7.269531 14.203125 -7.476562 14.039062 -7.5625 13.78125 Z M -7.5625 13.78125 "/></g></g></g><g fill="#feffd3" fill-opacity="1"><g transform="translate(57.642501, 6.441182)"><g><path d="M -6.5 3.515625 C -6.5 3.085938 -6.5 2.703125 -6.5 2.359375 C -6.5 2.015625 -6.503906 1.71875 -6.515625 1.46875 L -6.515625 0.375 C -6.503906 0.269531 -6.4375 0.175781 -6.3125 0.09375 C -6.195312 0.0195312 -6.078125 -0.0351562 -5.953125 -0.078125 C -5.835938 -0.117188 -5.765625 -0.140625 -5.734375 -0.140625 C -5.503906 -0.140625 -5.328125 -0.0625 -5.203125 0.09375 C -5.085938 0.257812 -5.003906 0.460938 -4.953125 0.703125 C -4.898438 0.941406 -4.863281 1.175781 -4.84375 1.40625 C -4.832031 1.632812 -4.828125 1.816406 -4.828125 1.953125 C -4.828125 2.066406 -4.832031 2.195312 -4.84375 2.34375 C -4.851562 2.488281 -4.863281 2.65625 -4.875 2.84375 C -4.882812 3.03125 -4.894531 3.253906 -4.90625 3.515625 C -4.914062 3.773438 -4.921875 4.035156 -4.921875 4.296875 L -4.921875 6.484375 C -4.921875 7.421875 -4.878906 8.054688 -4.796875 8.390625 C -4.722656 8.734375 -4.546875 8.90625 -4.265625 8.90625 C -3.867188 8.90625 -3.539062 8.816406 -3.28125 8.640625 C -3.03125 8.472656 -2.832031 8.257812 -2.6875 8 C -2.550781 7.75 -2.457031 7.503906 -2.40625 7.265625 C -2.351562 7.023438 -2.328125 6.832031 -2.328125 6.6875 C -2.328125 6.5625 -2.320312 6.4375 -2.3125 6.3125 C -2.3125 6.1875 -2.3125 6.066406 -2.3125 5.953125 L -2.3125 4.03125 C -2.3125 3.84375 -2.3125 3.664062 -2.3125 3.5 C -2.320312 3.332031 -2.332031 3.160156 -2.34375 2.984375 C -2.34375 2.929688 -2.347656 2.867188 -2.359375 2.796875 C -2.367188 2.734375 -2.375 2.671875 -2.375 2.609375 C -2.394531 2.367188 -2.410156 2.085938 -2.421875 1.765625 C -2.441406 1.441406 -2.453125 1.113281 -2.453125 0.78125 C -2.398438 0.539062 -2.320312 0.363281 -2.21875 0.25 C -2.113281 0.132812 -1.921875 0.0507812 -1.640625 0 C -1.304688 0.125 -1.09375 0.28125 -1 0.46875 C -0.914062 0.65625 -0.863281 0.832031 -0.84375 1 L -0.84375 2.625 C -0.84375 2.8125 -0.835938 3.015625 -0.828125 3.234375 C -0.828125 3.460938 -0.816406 3.703125 -0.796875 3.953125 C -0.796875 4.046875 -0.789062 4.140625 -0.78125 4.234375 C -0.78125 4.328125 -0.78125 4.421875 -0.78125 4.515625 C -0.769531 4.691406 -0.757812 4.878906 -0.75 5.078125 C -0.75 5.285156 -0.75 5.472656 -0.75 5.640625 C -0.75 6.640625 -0.738281 7.503906 -0.71875 8.234375 C -0.695312 8.960938 -0.671875 9.585938 -0.640625 10.109375 L -0.640625 10.296875 C -0.640625 10.347656 -0.632812 10.398438 -0.625 10.453125 C -0.625 10.503906 -0.625 10.554688 -0.625 10.609375 C -0.613281 10.796875 -0.609375 10.988281 -0.609375 11.1875 C -0.609375 11.394531 -0.609375 11.566406 -0.609375 11.703125 C -0.609375 12.203125 -0.609375 12.578125 -0.609375 12.828125 C -0.609375 13.085938 -0.609375 13.304688 -0.609375 13.484375 C -0.617188 13.660156 -0.628906 13.890625 -0.640625 14.171875 C -0.648438 14.273438 -0.695312 14.363281 -0.78125 14.4375 C -0.863281 14.507812 -0.953125 14.546875 -1.046875 14.546875 C -1.441406 14.546875 -1.71875 14.484375 -1.875 14.359375 C -2.03125 14.242188 -2.117188 14.082031 -2.140625 13.875 C -2.171875 13.675781 -2.179688 13.457031 -2.171875 13.21875 L -2.171875 12.078125 C -2.171875 12.023438 -2.164062 11.957031 -2.15625 11.875 C -2.144531 11.789062 -2.140625 11.703125 -2.140625 11.609375 C -2.140625 11.328125 -2.148438 11.050781 -2.171875 10.78125 C -2.191406 10.519531 -2.210938 10.21875 -2.234375 9.875 C -2.492188 10.0625 -2.789062 10.191406 -3.125 10.265625 C -3.457031 10.335938 -3.796875 10.378906 -4.140625 10.390625 C -4.523438 10.378906 -4.84375 10.34375 -5.09375 10.28125 C -5.351562 10.21875 -5.582031 10.09375 -5.78125 9.90625 L -5.78125 9.9375 C -6.007812 9.726562 -6.171875 9.394531 -6.265625 8.9375 C -6.367188 8.488281 -6.429688 7.992188 -6.453125 7.453125 C -6.484375 6.921875 -6.5 6.429688 -6.5 5.984375 Z M -6.5 3.515625 "/></g></g></g><g fill="#feffd3" fill-opacity="1"><g transform="translate(50.0398, 6.441182)"><g><path d="M -6.015625 4.078125 C -6.046875 3.796875 -6.0625 3.4375 -6.0625 3 C -6.070312 2.5625 -6.078125 2.179688 -6.078125 1.859375 C -6.078125 1.085938 -5.832031 0.539062 -5.34375 0.21875 C -4.851562 -0.101562 -4.175781 -0.265625 -3.3125 -0.265625 L -3.015625 -0.265625 C -2.554688 -0.222656 -2.132812 -0.0703125 -1.75 0.1875 C -1.375 0.445312 -1.070312 0.773438 -0.84375 1.171875 C -0.625 1.566406 -0.515625 1.972656 -0.515625 2.390625 C -0.515625 2.773438 -0.582031 3.175781 -0.71875 3.59375 C -0.851562 4.007812 -1.0625 4.382812 -1.34375 4.71875 C -1.625 5.0625 -1.992188 5.304688 -2.453125 5.453125 L -2.421875 5.453125 C -2.566406 5.523438 -2.726562 5.570312 -2.90625 5.59375 C -3.082031 5.613281 -3.257812 5.632812 -3.4375 5.65625 C -3.6875 5.695312 -3.914062 5.738281 -4.125 5.78125 C -4.332031 5.832031 -4.4375 5.863281 -4.4375 5.875 L -4.4375 6.171875 C -4.4375 6.285156 -4.429688 6.398438 -4.421875 6.515625 C -4.410156 6.640625 -4.40625 6.75 -4.40625 6.84375 L -4.40625 7.546875 C -4.382812 7.804688 -4.34375 8.082031 -4.28125 8.375 C -4.21875 8.675781 -4.113281 8.875 -3.96875 8.96875 L -3.9375 8.96875 C -3.851562 9 -3.769531 9.015625 -3.6875 9.015625 C -3.488281 9.015625 -3.28125 8.960938 -3.0625 8.859375 C -2.851562 8.753906 -2.6875 8.644531 -2.5625 8.53125 L -2.5 8.46875 C -2.375 8.34375 -2.222656 8.207031 -2.046875 8.0625 C -1.867188 7.914062 -1.6875 7.84375 -1.5 7.84375 C -1.101562 7.84375 -0.90625 8.109375 -0.90625 8.640625 C -0.90625 8.941406 -1 9.203125 -1.1875 9.421875 C -1.382812 9.648438 -1.609375 9.84375 -1.859375 10 C -2.117188 10.164062 -2.34375 10.289062 -2.53125 10.375 C -2.945312 10.519531 -3.3125 10.59375 -3.625 10.59375 C -4.257812 10.59375 -4.75 10.414062 -5.09375 10.0625 C -5.445312 9.707031 -5.6875 9.238281 -5.8125 8.65625 C -5.945312 8.082031 -6.015625 7.457031 -6.015625 6.78125 C -6.015625 6.632812 -6.007812 6.472656 -6 6.296875 C -6 6.117188 -6 5.953125 -6 5.796875 L -6 4.828125 C -6 4.679688 -6 4.546875 -6 4.421875 C -6 4.296875 -6.003906 4.179688 -6.015625 4.078125 Z M -4.296875 1.40625 C -4.398438 1.46875 -4.460938 1.5625 -4.484375 1.6875 C -4.515625 1.820312 -4.53125 1.957031 -4.53125 2.09375 C -4.53125 2.351562 -4.523438 2.617188 -4.515625 2.890625 C -4.503906 3.171875 -4.488281 3.425781 -4.46875 3.65625 C -4.457031 3.757812 -4.445312 3.867188 -4.4375 3.984375 C -4.4375 4.097656 -4.4375 4.1875 -4.4375 4.25 C -4.050781 4.226562 -3.675781 4.160156 -3.3125 4.046875 C -2.945312 3.929688 -2.65625 3.742188 -2.4375 3.484375 C -2.21875 3.234375 -2.109375 2.878906 -2.109375 2.421875 C -2.109375 2.140625 -2.179688 1.921875 -2.328125 1.765625 C -2.484375 1.609375 -2.660156 1.492188 -2.859375 1.421875 C -3.066406 1.359375 -3.238281 1.328125 -3.375 1.328125 L -3.59375 1.328125 C -3.6875 1.328125 -3.796875 1.328125 -3.921875 1.328125 C -4.046875 1.335938 -4.160156 1.363281 -4.265625 1.40625 Z M -4.296875 1.40625 "/></g></g></g><g fill="#feffd3" fill-opacity="1"><g transform="translate(42.978712, 6.441182)"><g><path d="M -6.65625 7.84375 L -6.65625 3.453125 C -6.65625 3.410156 -6.65625 3.363281 -6.65625 3.3125 C -6.65625 3.269531 -6.664062 3.207031 -6.6875 3.125 C -6.707031 2.925781 -6.722656 2.6875 -6.734375 2.40625 C -6.753906 2.132812 -6.765625 1.851562 -6.765625 1.5625 L -6.765625 1.203125 C -6.765625 0.835938 -6.734375 0.546875 -6.671875 0.328125 C -6.609375 0.109375 -6.390625 0 -6.015625 0 C -5.753906 0 -5.5625 0.0976562 -5.4375 0.296875 C -5.3125 0.503906 -5.234375 0.757812 -5.203125 1.0625 C -5.171875 1.375 -5.15625 1.679688 -5.15625 1.984375 L -5.15625 3.90625 C -5.15625 4.09375 -5.15625 4.285156 -5.15625 4.484375 C -5.15625 4.691406 -5.160156 4.894531 -5.171875 5.09375 L -5.171875 6.3125 C -5.171875 6.625 -5.164062 6.929688 -5.15625 7.234375 C -5.15625 7.546875 -5.132812 7.847656 -5.09375 8.140625 C -5 8.835938 -4.625 9.191406 -3.96875 9.203125 C -3.6875 9.148438 -3.378906 9.035156 -3.046875 8.859375 C -2.710938 8.679688 -2.53125 8.476562 -2.5 8.25 C -2.5 8.21875 -2.492188 8.1875 -2.484375 8.15625 C -2.484375 8.132812 -2.484375 8.109375 -2.484375 8.078125 C -2.441406 7.785156 -2.421875 7.5 -2.421875 7.21875 C -2.421875 6.925781 -2.425781 6.628906 -2.4375 6.328125 C -2.445312 6.035156 -2.457031 5.738281 -2.46875 5.4375 C -2.476562 4.96875 -2.484375 4.460938 -2.484375 3.921875 C -2.484375 3.378906 -2.484375 2.851562 -2.484375 2.34375 L -2.484375 1.53125 C -2.484375 1.28125 -2.472656 1.03125 -2.453125 0.78125 C -2.429688 0.539062 -2.378906 0.335938 -2.296875 0.171875 C -2.210938 0.015625 -2.054688 -0.0625 -1.828125 -0.0625 C -1.785156 -0.0625 -1.726562 -0.0507812 -1.65625 -0.03125 C -1.582031 -0.0195312 -1.503906 0.0078125 -1.421875 0.0625 C -1.234375 0.15625 -1.101562 0.304688 -1.03125 0.515625 C -0.957031 0.734375 -0.910156 0.96875 -0.890625 1.21875 C -0.878906 1.476562 -0.875 1.703125 -0.875 1.890625 L -0.875 5.890625 C -0.875 6.347656 -0.882812 6.800781 -0.90625 7.25 C -0.925781 7.707031 -0.960938 8.160156 -1.015625 8.609375 C -1.085938 9.179688 -1.304688 9.609375 -1.671875 9.890625 C -2.046875 10.179688 -2.492188 10.398438 -3.015625 10.546875 C -3.160156 10.585938 -3.328125 10.617188 -3.515625 10.640625 C -3.710938 10.671875 -3.921875 10.6875 -4.140625 10.6875 C -4.503906 10.6875 -4.859375 10.632812 -5.203125 10.53125 C -5.554688 10.425781 -5.863281 10.242188 -6.125 9.984375 C -6.382812 9.722656 -6.535156 9.40625 -6.578125 9.03125 C -6.628906 8.65625 -6.65625 8.257812 -6.65625 7.84375 Z M -6.65625 7.84375 "/></g></g></g><g fill="#feffd3" fill-opacity="1"><g transform="translate(34.894568, 6.441182)"><g><path d="M -7.109375 9.828125 C -7.109375 9.804688 -7.101562 9.773438 -7.09375 9.734375 C -7.082031 9.691406 -7.066406 9.648438 -7.046875 9.609375 C -6.972656 9.472656 -6.882812 9.335938 -6.78125 9.203125 C -6.675781 9.078125 -6.578125 8.957031 -6.484375 8.84375 L -6.265625 8.609375 C -6.191406 8.523438 -6.125 8.46875 -6.0625 8.4375 C -6.007812 8.414062 -5.953125 8.40625 -5.890625 8.40625 L -6.0625 8.359375 L -4.71875 6.65625 C -4.976562 6.613281 -5.238281 6.53125 -5.5 6.40625 C -5.757812 6.289062 -5.992188 6.109375 -6.203125 5.859375 C -6.429688 5.492188 -6.585938 5.09375 -6.671875 4.65625 C -6.753906 4.21875 -6.796875 3.800781 -6.796875 3.40625 L -6.796875 2.421875 C -6.796875 2.210938 -6.828125 1.976562 -6.890625 1.71875 C -6.953125 1.46875 -7.015625 1.207031 -7.078125 0.9375 L -7.078125 0.71875 C -7.078125 0.488281 -7.003906 0.273438 -6.859375 0.078125 C -6.722656 -0.109375 -6.515625 -0.203125 -6.234375 -0.203125 C -6.023438 -0.203125 -5.851562 -0.101562 -5.71875 0.09375 C -5.582031 0.300781 -5.492188 0.460938 -5.453125 0.578125 L -5.359375 2.3125 C -5.359375 2.351562 -5.351562 2.394531 -5.34375 2.4375 C -5.34375 2.476562 -5.34375 2.53125 -5.34375 2.59375 C -5.28125 3.457031 -5.207031 4.097656 -5.125 4.515625 C -5.039062 4.941406 -4.800781 5.15625 -4.40625 5.15625 C -3.8125 5.15625 -3.351562 5 -3.03125 4.6875 C -2.707031 4.382812 -2.546875 4.019531 -2.546875 3.59375 C -2.546875 3.21875 -2.554688 2.832031 -2.578125 2.4375 C -2.609375 2.050781 -2.644531 1.664062 -2.6875 1.28125 L -2.6875 1.046875 C -2.6875 0.859375 -2.648438 0.648438 -2.578125 0.421875 C -2.515625 0.191406 -2.363281 0.00390625 -2.125 -0.140625 C -1.820312 -0.140625 -1.585938 -0.0507812 -1.421875 0.125 C -1.265625 0.3125 -1.15625 0.535156 -1.09375 0.796875 C -1.039062 1.054688 -1.015625 1.300781 -1.015625 1.53125 C -1.015625 1.59375 -1.019531 1.644531 -1.03125 1.6875 C -1.039062 1.738281 -1.046875 1.789062 -1.046875 1.84375 L -1.046875 2.609375 C -1.046875 3.597656 -1.046875 4.363281 -1.046875 4.90625 C -1.046875 5.457031 -1.035156 5.890625 -1.015625 6.203125 C -1.015625 6.367188 -1.007812 6.515625 -1 6.640625 C -1 6.765625 -1 6.882812 -1 7 C -1 7.144531 -1 7.289062 -1 7.4375 C -1 7.582031 -1.003906 7.722656 -1.015625 7.859375 L -1.046875 8.734375 C -1.046875 9.117188 -1.035156 9.5 -1.015625 9.875 C -1.003906 10.257812 -0.988281 10.640625 -0.96875 11.015625 C -0.945312 11.398438 -0.925781 11.785156 -0.90625 12.171875 C -0.882812 12.566406 -0.875 12.96875 -0.875 13.375 C -0.875 13.53125 -0.882812 13.710938 -0.90625 13.921875 C -0.925781 14.140625 -0.992188 14.332031 -1.109375 14.5 C -1.222656 14.664062 -1.421875 14.75 -1.703125 14.75 C -1.890625 14.75 -2.066406 14.640625 -2.234375 14.421875 C -2.398438 14.210938 -2.484375 13.941406 -2.484375 13.609375 C -2.484375 13.515625 -2.476562 13.421875 -2.46875 13.328125 C -2.46875 13.234375 -2.460938 13.144531 -2.453125 13.0625 C -2.429688 13.007812 -2.421875 12.953125 -2.421875 12.890625 C -2.421875 12.835938 -2.421875 12.785156 -2.421875 12.734375 C -2.421875 12.515625 -2.421875 12.3125 -2.421875 12.125 C -2.421875 11.9375 -2.429688 11.75 -2.453125 11.5625 C -2.453125 11.394531 -2.453125 11.226562 -2.453125 11.0625 C -2.460938 10.894531 -2.46875 10.71875 -2.46875 10.53125 L -2.46875 9.96875 C -2.46875 9.875 -2.460938 9.78125 -2.453125 9.6875 C -2.453125 9.59375 -2.453125 9.492188 -2.453125 9.390625 L -2.453125 7.125 C -2.453125 7 -2.445312 6.914062 -2.4375 6.875 C -2.425781 6.84375 -2.425781 6.800781 -2.4375 6.75 C -2.445312 6.707031 -2.457031 6.601562 -2.46875 6.4375 C -2.769531 6.75 -3.0625 7.0625 -3.34375 7.375 C -3.625 7.695312 -3.894531 8.023438 -4.15625 8.359375 L -4.640625 9.0625 L -4.640625 9.046875 C -4.898438 9.429688 -5.164062 9.796875 -5.4375 10.140625 C -5.707031 10.484375 -5.972656 10.65625 -6.234375 10.65625 C -6.492188 10.65625 -6.703125 10.570312 -6.859375 10.40625 C -7.023438 10.25 -7.109375 10.054688 -7.109375 9.828125 Z M -7.109375 9.828125 "/></g></g></g><g fill="#feffd3" fill-opacity="1"><g transform="translate(26.850545, 6.441182)"><g><path d="M -2.09375 11.4375 C -1.9375 11.4375 -1.769531 11.457031 -1.59375 11.5 C -1.425781 11.550781 -1.285156 11.679688 -1.171875 11.890625 C -1.054688 12.109375 -1 12.457031 -1 12.9375 C -1 13.164062 -1.015625 13.398438 -1.046875 13.640625 C -1.085938 13.878906 -1.15625 14.082031 -1.25 14.25 C -1.34375 14.414062 -1.472656 14.5 -1.640625 14.5 C -1.867188 14.5 -2.066406 14.40625 -2.234375 14.21875 C -2.410156 14.03125 -2.53125 13.804688 -2.59375 13.546875 C -2.613281 13.429688 -2.632812 13.269531 -2.65625 13.0625 C -2.6875 12.863281 -2.703125 12.648438 -2.703125 12.421875 C -2.703125 12.140625 -2.660156 11.90625 -2.578125 11.71875 C -2.492188 11.53125 -2.332031 11.4375 -2.09375 11.4375 Z M -1.140625 4.328125 C -1.140625 4.640625 -1.132812 5 -1.125 5.40625 C -1.125 5.8125 -1.125 6.238281 -1.125 6.6875 C -1.125 7.0625 -1.117188 7.46875 -1.109375 7.90625 C -1.109375 8.34375 -1.109375 8.738281 -1.109375 9.09375 C -1.109375 9.445312 -1.109375 9.671875 -1.109375 9.765625 C -1.109375 10.078125 -1.1875 10.328125 -1.34375 10.515625 C -1.5 10.703125 -1.707031 10.796875 -1.96875 10.796875 C -2.082031 10.796875 -2.226562 10.738281 -2.40625 10.625 C -2.59375 10.519531 -2.6875 10.316406 -2.6875 10.015625 C -2.6875 9.796875 -2.679688 9.578125 -2.671875 9.359375 C -2.671875 9.140625 -2.671875 8.921875 -2.671875 8.703125 L -2.671875 5.8125 C -2.671875 5 -2.671875 4.335938 -2.671875 3.828125 C -2.679688 3.316406 -2.691406 2.867188 -2.703125 2.484375 C -2.722656 2.273438 -2.734375 2.019531 -2.734375 1.71875 C -2.734375 1.414062 -2.734375 1.148438 -2.734375 0.921875 C -2.734375 0.617188 -2.648438 0.375 -2.484375 0.1875 C -2.328125 0 -2.113281 -0.09375 -1.84375 -0.09375 C -1.707031 -0.09375 -1.5625 -0.046875 -1.40625 0.046875 C -1.257812 0.148438 -1.171875 0.347656 -1.140625 0.640625 Z M -1.140625 4.328125 "/></g></g></g><g fill="#feffd3" fill-opacity="1"><g transform="translate(22.758326, 6.441182)"><g><path d="M -5.84375 2.96875 C -6.03125 2.882812 -6.160156 2.769531 -6.234375 2.625 C -6.304688 2.476562 -6.34375 2.285156 -6.34375 2.046875 C -6.34375 1.429688 -6.226562 0.96875 -6 0.65625 C -5.78125 0.34375 -5.488281 0.128906 -5.125 0.015625 C -4.757812 -0.0976562 -4.351562 -0.175781 -3.90625 -0.21875 L -3.8125 -0.21875 C -3.3125 -0.21875 -2.785156 -0.101562 -2.234375 0.125 C -1.691406 0.351562 -1.28125 0.753906 -1 1.328125 C -0.863281 1.515625 -0.757812 1.800781 -0.6875 2.1875 C -0.613281 2.582031 -0.5625 3.023438 -0.53125 3.515625 C -0.5 4.003906 -0.472656 4.492188 -0.453125 4.984375 C -0.441406 5.472656 -0.4375 5.898438 -0.4375 6.265625 C -0.4375 7.410156 -0.535156 8.3125 -0.734375 8.96875 C -0.941406 9.625 -1.25 10.085938 -1.65625 10.359375 C -2.070312 10.640625 -2.597656 10.78125 -3.234375 10.78125 C -3.992188 10.78125 -4.570312 10.640625 -4.96875 10.359375 C -5.375 10.078125 -5.660156 9.578125 -5.828125 8.859375 C -6.003906 8.148438 -6.132812 7.148438 -6.21875 5.859375 L -6.203125 5.703125 C -5.941406 5.285156 -5.59375 5.078125 -5.15625 5.078125 C -5.03125 5.078125 -4.90625 5.085938 -4.78125 5.109375 C -4.75 5.109375 -4.722656 5.113281 -4.703125 5.125 C -4.679688 5.132812 -4.660156 5.140625 -4.640625 5.140625 C -4.609375 5.148438 -4.5625 5.15625 -4.5 5.15625 L -4.328125 5.171875 L -4.09375 5.171875 C -3.59375 5.171875 -3.179688 5.164062 -2.859375 5.15625 C -2.546875 5.15625 -2.273438 5.140625 -2.046875 5.109375 L -2.046875 4.734375 C -2.046875 4.640625 -2.046875 4.550781 -2.046875 4.46875 C -2.046875 4.394531 -2.050781 4.300781 -2.0625 4.1875 L -2.0625 3.859375 C -2.0625 3.796875 -2.066406 3.726562 -2.078125 3.65625 C -2.085938 3.582031 -2.09375 3.515625 -2.09375 3.453125 C -2.09375 2.753906 -2.238281 2.226562 -2.53125 1.875 C -2.832031 1.519531 -3.359375 1.34375 -4.109375 1.34375 C -4.429688 1.34375 -4.640625 1.4375 -4.734375 1.625 C -4.765625 1.65625 -4.78125 1.695312 -4.78125 1.75 C -4.789062 1.8125 -4.796875 1.847656 -4.796875 1.859375 C -4.796875 1.929688 -4.800781 2 -4.8125 2.0625 C -4.820312 2.132812 -4.835938 2.179688 -4.859375 2.203125 L -4.859375 2.1875 L -4.875 2.25 C -5.050781 2.726562 -5.335938 2.972656 -5.734375 2.984375 Z M -2.484375 8.953125 C -2.296875 8.691406 -2.171875 8.425781 -2.109375 8.15625 C -2.054688 7.882812 -2.03125 7.59375 -2.03125 7.28125 C -2.03125 7.144531 -2.03125 7.03125 -2.03125 6.9375 C -2.03125 6.84375 -2.035156 6.742188 -2.046875 6.640625 L -2.34375 6.640625 C -2.519531 6.640625 -2.707031 6.640625 -2.90625 6.640625 C -3.101562 6.640625 -3.316406 6.632812 -3.546875 6.625 L -4.515625 6.625 C -4.503906 6.925781 -4.492188 7.179688 -4.484375 7.390625 C -4.472656 7.597656 -4.457031 7.78125 -4.4375 7.9375 C -4.414062 8.25 -4.375 8.5 -4.3125 8.6875 C -4.257812 8.882812 -4.179688 9.007812 -4.078125 9.0625 L -4.09375 9.0625 C -4 9.101562 -3.890625 9.140625 -3.765625 9.171875 C -3.648438 9.210938 -3.519531 9.234375 -3.375 9.234375 L -3.234375 9.234375 C -3.046875 9.203125 -2.882812 9.171875 -2.75 9.140625 C -2.625 9.109375 -2.535156 9.046875 -2.484375 8.953125 Z M -2.484375 8.953125 "/></g></g></g><g fill="#feffd3" fill-opacity="1"><g transform="translate(15.73736, 6.441182)"><g><path d="M -9.171875 10.40625 C -9.429688 10.351562 -9.582031 10.273438 -9.625 10.171875 C -9.664062 10.066406 -9.6875 9.929688 -9.6875 9.765625 L -9.6875 9.421875 C -9.664062 9.171875 -9.625 8.957031 -9.5625 8.78125 C -9.507812 8.613281 -9.457031 8.445312 -9.40625 8.28125 L -9.34375 8.125 L -9.375 8.125 C -9.34375 8.03125 -9.304688 7.925781 -9.265625 7.8125 C -9.222656 7.695312 -9.191406 7.570312 -9.171875 7.4375 C -9.078125 6.96875 -8.972656 6.476562 -8.859375 5.96875 C -8.742188 5.46875 -8.632812 4.984375 -8.53125 4.515625 L -8.40625 4.140625 L -8.421875 4.140625 C -8.367188 3.972656 -8.316406 3.804688 -8.265625 3.640625 C -8.222656 3.484375 -8.179688 3.328125 -8.140625 3.171875 C -8.085938 2.859375 -8.023438 2.539062 -7.953125 2.21875 C -7.890625 1.90625 -7.828125 1.59375 -7.765625 1.28125 C -7.734375 1.132812 -7.679688 0.957031 -7.609375 0.75 C -7.535156 0.539062 -7.4375 0.359375 -7.3125 0.203125 C -7.195312 0.0546875 -7.035156 -0.015625 -6.828125 -0.015625 C -6.566406 -0.015625 -6.375 0.046875 -6.25 0.171875 C -6.132812 0.304688 -6.054688 0.476562 -6.015625 0.6875 C -5.972656 0.894531 -5.945312 1.09375 -5.9375 1.28125 C -5.9375 1.320312 -5.9375 1.363281 -5.9375 1.40625 C -5.9375 1.457031 -5.929688 1.5 -5.921875 1.53125 C -5.898438 1.71875 -5.863281 1.914062 -5.8125 2.125 C -5.757812 2.34375 -5.707031 2.554688 -5.65625 2.765625 L -5.484375 3.53125 C -5.410156 3.90625 -5.351562 4.203125 -5.3125 4.421875 C -5.269531 4.640625 -5.234375 4.832031 -5.203125 5 C -5.179688 5.164062 -5.144531 5.34375 -5.09375 5.53125 C -5.050781 5.71875 -4.992188 5.96875 -4.921875 6.28125 L -4.71875 5.515625 C -4.632812 5.191406 -4.554688 4.859375 -4.484375 4.515625 C -4.410156 4.179688 -4.335938 3.851562 -4.265625 3.53125 L -4.09375 2.765625 C -4.039062 2.554688 -3.988281 2.34375 -3.9375 2.125 C -3.894531 1.914062 -3.867188 1.71875 -3.859375 1.53125 C -3.835938 1.5 -3.828125 1.457031 -3.828125 1.40625 C -3.828125 1.363281 -3.828125 1.320312 -3.828125 1.28125 C -3.816406 1.09375 -3.789062 0.894531 -3.75 0.6875 C -3.707031 0.476562 -3.625 0.304688 -3.5 0.171875 C -3.382812 0.046875 -3.191406 -0.015625 -2.921875 -0.015625 C -2.722656 -0.015625 -2.5625 0.0546875 -2.4375 0.203125 C -2.3125 0.359375 -2.210938 0.539062 -2.140625 0.75 C -2.078125 0.957031 -2.023438 1.132812 -1.984375 1.28125 L -1.609375 3.15625 C -1.554688 3.375 -1.5 3.597656 -1.4375 3.828125 C -1.382812 4.054688 -1.332031 4.28125 -1.28125 4.5 L -1.1875 5.0625 C -1.101562 5.4375 -1.019531 5.816406 -0.9375 6.203125 C -0.863281 6.585938 -0.765625 6.988281 -0.640625 7.40625 C -0.640625 7.40625 -0.632812 7.414062 -0.625 7.4375 C -0.625 7.46875 -0.625 7.492188 -0.625 7.515625 L -0.625 7.5 C -0.582031 7.601562 -0.546875 7.722656 -0.515625 7.859375 C -0.484375 7.992188 -0.472656 8.050781 -0.484375 8.03125 C -0.390625 8.289062 -0.304688 8.535156 -0.234375 8.765625 C -0.171875 9.003906 -0.132812 9.234375 -0.125 9.453125 L -0.140625 9.40625 C -0.109375 9.5 -0.0859375 9.566406 -0.078125 9.609375 C -0.078125 9.660156 -0.078125 9.710938 -0.078125 9.765625 C -0.078125 9.929688 -0.109375 10.070312 -0.171875 10.1875 C -0.242188 10.300781 -0.40625 10.375 -0.65625 10.40625 L -0.78125 10.4375 C -0.914062 10.4375 -1.066406 10.398438 -1.234375 10.328125 C -1.398438 10.265625 -1.488281 10.132812 -1.5 9.9375 C -1.550781 9.800781 -1.609375 9.625 -1.671875 9.40625 C -1.742188 9.195312 -1.804688 8.988281 -1.859375 8.78125 C -1.921875 8.570312 -1.957031 8.414062 -1.96875 8.3125 L -2.421875 6.5 C -2.585938 5.78125 -2.726562 5.078125 -2.84375 4.390625 L -2.890625 4.21875 C -2.953125 4.4375 -3.007812 4.671875 -3.0625 4.921875 C -3.125 5.179688 -3.179688 5.46875 -3.234375 5.78125 C -3.285156 6.03125 -3.320312 6.25 -3.34375 6.4375 C -3.375 6.625 -3.410156 6.800781 -3.453125 6.96875 L -3.453125 6.9375 L -3.515625 7.1875 C -3.535156 7.257812 -3.554688 7.347656 -3.578125 7.453125 C -3.609375 7.566406 -3.632812 7.675781 -3.65625 7.78125 C -3.675781 8.007812 -3.722656 8.273438 -3.796875 8.578125 C -3.867188 8.878906 -3.96875 9.132812 -4.09375 9.34375 C -4.289062 9.675781 -4.554688 9.84375 -4.890625 9.84375 C -5.066406 9.84375 -5.203125 9.8125 -5.296875 9.75 C -5.398438 9.695312 -5.476562 9.628906 -5.53125 9.546875 C -5.664062 9.367188 -5.753906 9.175781 -5.796875 8.96875 C -5.847656 8.769531 -5.878906 8.582031 -5.890625 8.40625 C -5.890625 8.394531 -5.894531 8.378906 -5.90625 8.359375 C -5.914062 8.335938 -5.921875 8.3125 -5.921875 8.28125 L -5.953125 7.9375 C -5.984375 7.75 -6.023438 7.554688 -6.078125 7.359375 C -6.128906 7.160156 -6.179688 6.992188 -6.234375 6.859375 L -6.28125 6.734375 C -6.320312 6.628906 -6.363281 6.523438 -6.40625 6.421875 C -6.457031 6.328125 -6.492188 6.097656 -6.515625 5.734375 C -6.546875 5.398438 -6.597656 5.101562 -6.671875 4.84375 C -6.742188 4.582031 -6.804688 4.328125 -6.859375 4.078125 L -6.96875 4.4375 L -7.40625 6.5 L -7.796875 8.3125 C -7.828125 8.425781 -7.863281 8.585938 -7.90625 8.796875 C -7.957031 9.015625 -8.015625 9.226562 -8.078125 9.4375 C -8.148438 9.65625 -8.210938 9.820312 -8.265625 9.9375 C -8.304688 10.101562 -8.40625 10.226562 -8.5625 10.3125 C -8.726562 10.394531 -8.867188 10.4375 -8.984375 10.4375 C -9.003906 10.4375 -9.019531 10.429688 -9.03125 10.421875 C -9.039062 10.410156 -9.050781 10.40625 -9.0625 10.40625 Z M -9.171875 10.40625 "/></g></g></g><g fill="#feffd3" fill-opacity="1"><g transform="translate(5.687344, 6.441182)"><g><path d="M -3.234375 9.765625 C -3.234375 9.203125 -3.222656 8.65625 -3.203125 8.125 C -3.179688 7.601562 -3.15625 7.101562 -3.125 6.625 C -3.113281 6.476562 -3.109375 6.316406 -3.109375 6.140625 C -3.109375 5.960938 -3.109375 5.800781 -3.109375 5.65625 C -3.109375 5.101562 -3.128906 4.492188 -3.171875 3.828125 C -3.171875 3.628906 -3.125 3.488281 -3.03125 3.40625 C -2.945312 3.332031 -2.816406 3.28125 -2.640625 3.25 L -2.671875 3.25 C -2.617188 3.238281 -2.566406 3.226562 -2.515625 3.21875 C -2.472656 3.207031 -2.429688 3.203125 -2.390625 3.203125 C -2.210938 3.203125 -2.066406 3.242188 -1.953125 3.328125 C -1.835938 3.410156 -1.707031 3.523438 -1.5625 3.671875 C -1.550781 4.054688 -1.539062 4.457031 -1.53125 4.875 C -1.53125 5.300781 -1.53125 5.679688 -1.53125 6.015625 C -1.53125 6.347656 -1.53125 6.675781 -1.53125 7 C -1.539062 7.320312 -1.550781 7.632812 -1.5625 7.9375 L -1.5625 8.203125 C -1.5625 8.347656 -1.5625 8.625 -1.5625 9.03125 C -1.570312 9.445312 -1.578125 10.117188 -1.578125 11.046875 C -1.578125 11.515625 -1.570312 11.976562 -1.5625 12.4375 C -1.550781 12.894531 -1.507812 13.347656 -1.4375 13.796875 C -1.4375 13.929688 -1.472656 14.035156 -1.546875 14.109375 C -1.628906 14.179688 -1.734375 14.25 -1.859375 14.3125 C -1.984375 14.382812 -2.113281 14.421875 -2.25 14.421875 C -2.59375 14.421875 -2.875 14.257812 -3.09375 13.9375 C -3.15625 13.457031 -3.195312 12.945312 -3.21875 12.40625 C -3.238281 11.863281 -3.25 11.285156 -3.25 10.671875 L -3.25 10.25 C -3.25 10.207031 -3.242188 10.164062 -3.234375 10.125 C -3.234375 10.09375 -3.234375 10.054688 -3.234375 10.015625 Z M -1.40625 1.6875 L -1.421875 1.8125 C -1.503906 1.96875 -1.617188 2.078125 -1.765625 2.140625 C -1.910156 2.203125 -2.070312 2.234375 -2.25 2.234375 C -2.601562 2.234375 -2.882812 2.054688 -3.09375 1.703125 L -3.09375 1.25 C -3.09375 1.226562 -3.09375 1.210938 -3.09375 1.203125 C -3.101562 1.191406 -3.109375 1.171875 -3.109375 1.140625 C -3.109375 1.003906 -3.097656 0.847656 -3.078125 0.671875 C -3.066406 0.492188 -3.046875 0.300781 -3.015625 0.09375 C -2.898438 -0.0078125 -2.789062 -0.0820312 -2.6875 -0.125 C -2.59375 -0.175781 -2.515625 -0.203125 -2.453125 -0.203125 C -2.242188 -0.203125 -2.054688 -0.101562 -1.890625 0.09375 C -1.722656 0.300781 -1.585938 0.53125 -1.484375 0.78125 C -1.390625 1.03125 -1.34375 1.242188 -1.34375 1.421875 C -1.34375 1.503906 -1.363281 1.59375 -1.40625 1.6875 Z M -1.40625 1.6875 "/></g></g></g></g></g><g transform="matrix(1, 0, 0, 1, 102, 49)"><g clip-path="url(#4593f9d1e1)"><g fill="#feffd3" fill-opacity="1"><g transform="translate(0.555501, 19.649206)"><g><path d="M 8.78125 -9.734375 C 8.78125 -8.941406 8.785156 -8.179688 8.796875 -7.453125 C 8.804688 -6.722656 8.816406 -6.019531 8.828125 -5.34375 C 8.828125 -4.664062 8.835938 -4.140625 8.859375 -3.765625 C 8.890625 -3.390625 8.929688 -3.046875 8.984375 -2.734375 C 9.015625 -2.515625 9.039062 -2.304688 9.0625 -2.109375 C 9.082031 -1.910156 9.09375 -1.6875 9.09375 -1.4375 C 9.09375 -1.320312 9.09375 -1.210938 9.09375 -1.109375 C 9.09375 -1.015625 9.082031 -0.910156 9.0625 -0.796875 C 9 -0.367188 8.796875 -0.078125 8.453125 0.078125 L 8.28125 0.078125 C 8.070312 0.078125 7.894531 0.03125 7.75 -0.0625 C 7.613281 -0.15625 7.492188 -0.28125 7.390625 -0.4375 L 7.40625 -0.96875 C 7.445312 -1.320312 7.46875 -1.679688 7.46875 -2.046875 C 7.46875 -2.234375 7.457031 -2.382812 7.4375 -2.5 C 7.425781 -2.625 7.414062 -2.757812 7.40625 -2.90625 C 7.40625 -2.945312 7.398438 -2.992188 7.390625 -3.046875 C 7.390625 -3.097656 7.390625 -3.148438 7.390625 -3.203125 C 7.390625 -3.222656 7.382812 -3.238281 7.375 -3.25 C 7.363281 -3.257812 7.359375 -3.273438 7.359375 -3.296875 L 7.34375 -3.40625 L 7.34375 -3.484375 C 7.289062 -3.953125 7.25 -4.40625 7.21875 -4.84375 C 7.195312 -5.289062 7.1875 -5.6875 7.1875 -6.03125 C 7.1875 -6.125 7.160156 -6.203125 7.109375 -6.265625 C 6.710938 -6.703125 6.335938 -7.101562 5.984375 -7.46875 C 5.628906 -7.84375 5.3125 -8.175781 5.03125 -8.46875 L 4.921875 -8.59375 C 3.941406 -9.5625 3.132812 -10.425781 2.5 -11.1875 L 2.5 -9.84375 C 2.5 -9.507812 2.503906 -9.175781 2.515625 -8.84375 C 2.523438 -8.519531 2.535156 -8.191406 2.546875 -7.859375 C 2.578125 -7.273438 2.597656 -6.617188 2.609375 -5.890625 C 2.617188 -5.160156 2.625 -4.460938 2.625 -3.796875 C 2.625 -3.253906 2.632812 -2.789062 2.65625 -2.40625 C 2.6875 -2.03125 2.726562 -1.695312 2.78125 -1.40625 C 2.800781 -1.363281 2.8125 -1.304688 2.8125 -1.234375 C 2.8125 -1.171875 2.8125 -1.117188 2.8125 -1.078125 C 2.8125 -0.828125 2.769531 -0.632812 2.6875 -0.5 C 2.601562 -0.363281 2.5 -0.226562 2.375 -0.09375 C 2.300781 -0.0390625 2.21875 -0.00390625 2.125 0.015625 C 2.039062 0.0351562 1.945312 0.046875 1.84375 0.046875 C 1.664062 0.046875 1.515625 0.015625 1.390625 -0.046875 C 1.273438 -0.109375 1.207031 -0.25 1.1875 -0.46875 C 1.1875 -0.925781 1.1875 -1.351562 1.1875 -1.75 C 1.1875 -2.144531 1.175781 -2.507812 1.15625 -2.84375 C 1.15625 -2.988281 1.148438 -3.125 1.140625 -3.25 C 1.140625 -3.382812 1.140625 -3.519531 1.140625 -3.65625 L 1.140625 -4.359375 C 1.140625 -4.898438 1.128906 -5.445312 1.109375 -6 C 1.085938 -6.550781 1.066406 -7.101562 1.046875 -7.65625 C 1.023438 -8.019531 1.007812 -8.421875 1 -8.859375 C 1 -9.304688 1 -9.75 1 -10.1875 L 1 -10.90625 C 1 -11.46875 0.992188 -12.007812 0.984375 -12.53125 C 0.972656 -13.0625 0.945312 -13.585938 0.90625 -14.109375 C 0.90625 -14.179688 0.925781 -14.257812 0.96875 -14.34375 C 1.019531 -14.4375 1.09375 -14.5 1.1875 -14.53125 C 1.25 -14.550781 1.3125 -14.566406 1.375 -14.578125 C 1.445312 -14.597656 1.507812 -14.609375 1.5625 -14.609375 C 1.988281 -14.609375 2.359375 -14.414062 2.671875 -14.03125 C 2.742188 -13.820312 2.875 -13.5625 3.0625 -13.25 C 3.25 -12.945312 3.453125 -12.648438 3.671875 -12.359375 C 3.890625 -12.078125 4.070312 -11.863281 4.21875 -11.71875 C 4.332031 -11.625 4.484375 -11.488281 4.671875 -11.3125 C 4.859375 -11.132812 5 -10.992188 5.09375 -10.890625 C 5.164062 -10.796875 5.238281 -10.710938 5.3125 -10.640625 C 5.382812 -10.566406 5.453125 -10.5 5.515625 -10.4375 C 5.765625 -10.132812 5.960938 -9.890625 6.109375 -9.703125 C 6.265625 -9.515625 6.425781 -9.328125 6.59375 -9.140625 C 6.757812 -8.960938 6.984375 -8.71875 7.265625 -8.40625 C 7.265625 -8.789062 7.253906 -9.179688 7.234375 -9.578125 C 7.222656 -9.972656 7.207031 -10.363281 7.1875 -10.75 L 7.0625 -13.71875 C 7.113281 -14.019531 7.179688 -14.234375 7.265625 -14.359375 C 7.359375 -14.484375 7.59375 -14.546875 7.96875 -14.546875 L 8.109375 -14.546875 C 8.253906 -14.472656 8.382812 -14.382812 8.5 -14.28125 C 8.613281 -14.175781 8.675781 -14.050781 8.6875 -13.90625 C 8.71875 -13.289062 8.738281 -12.632812 8.75 -11.9375 C 8.757812 -11.25 8.769531 -10.515625 8.78125 -9.734375 Z M 8.78125 -9.734375 "/></g></g></g><g fill="#feffd3" fill-opacity="1"><g transform="translate(11.08695, 19.649206)"><g><path d="M 5 -10.671875 C 5.757812 -10.671875 6.429688 -10.46875 7.015625 -10.0625 C 7.609375 -9.65625 8.097656 -9.140625 8.484375 -8.515625 C 8.867188 -7.890625 9.144531 -7.242188 9.3125 -6.578125 L 9.328125 -6.578125 C 9.460938 -6.140625 9.53125 -5.570312 9.53125 -4.875 C 9.53125 -4.269531 9.46875 -3.660156 9.34375 -3.046875 C 9.21875 -2.441406 9 -1.890625 8.6875 -1.390625 C 8.375 -0.890625 7.945312 -0.488281 7.40625 -0.1875 C 6.863281 0.113281 6.175781 0.265625 5.34375 0.265625 L 4.96875 0.265625 C 3.507812 0.0234375 2.40625 -0.515625 1.65625 -1.359375 C 0.914062 -2.210938 0.484375 -3.429688 0.359375 -5.015625 L 0.359375 -5.578125 C 0.359375 -6.097656 0.472656 -6.648438 0.703125 -7.234375 C 0.941406 -7.828125 1.269531 -8.382812 1.6875 -8.90625 C 2.113281 -9.425781 2.609375 -9.847656 3.171875 -10.171875 C 3.734375 -10.503906 4.34375 -10.671875 5 -10.671875 Z M 6.859375 -1.75 C 7.234375 -2.082031 7.5 -2.507812 7.65625 -3.03125 C 7.820312 -3.550781 7.925781 -4.144531 7.96875 -4.8125 L 7.96875 -5.0625 C 7.96875 -5.5625 7.882812 -6.066406 7.71875 -6.578125 C 7.5625 -7.097656 7.335938 -7.566406 7.046875 -7.984375 L 6.453125 -8.546875 C 5.992188 -8.960938 5.507812 -9.171875 5 -9.171875 C 4.457031 -9.171875 3.957031 -8.984375 3.5 -8.609375 C 3.039062 -8.234375 2.632812 -7.71875 2.28125 -7.0625 L 2.28125 -7.078125 C 2.113281 -6.742188 2 -6.394531 1.9375 -6.03125 C 1.882812 -5.675781 1.859375 -5.320312 1.859375 -4.96875 C 1.859375 -4.113281 2.109375 -3.347656 2.609375 -2.671875 C 3.117188 -2.003906 3.894531 -1.578125 4.9375 -1.390625 L 4.921875 -1.390625 C 4.984375 -1.367188 5.046875 -1.359375 5.109375 -1.359375 C 5.171875 -1.359375 5.226562 -1.359375 5.28125 -1.359375 C 5.632812 -1.359375 5.945312 -1.382812 6.21875 -1.4375 C 6.5 -1.5 6.710938 -1.601562 6.859375 -1.75 Z M 6.859375 -1.75 "/></g></g></g><g fill="#feffd3" fill-opacity="1"><g transform="translate(21.217198, 19.649206)"><g/></g></g><g fill="#feffd3" fill-opacity="1"><g transform="translate(26.894149, 19.649206)"><g><path d="M 7.5625 -13.78125 L 7.625 -13.546875 C 7.625 -13.460938 7.59375 -13.328125 7.53125 -13.140625 C 7.46875 -12.953125 7.359375 -12.84375 7.203125 -12.8125 C 7.015625 -12.832031 6.828125 -12.84375 6.640625 -12.84375 C 6.453125 -12.851562 6.265625 -12.859375 6.078125 -12.859375 C 5.984375 -12.859375 5.890625 -12.859375 5.796875 -12.859375 C 5.710938 -12.867188 5.625 -12.875 5.53125 -12.875 C 5.40625 -12.875 5.207031 -12.867188 4.9375 -12.859375 C 4.675781 -12.859375 4.46875 -12.863281 4.3125 -12.875 C 4.300781 -12.570312 4.296875 -12.285156 4.296875 -12.015625 C 4.296875 -11.742188 4.296875 -11.457031 4.296875 -11.15625 L 4.296875 -10.6875 C 4.296875 -9.820312 4.300781 -8.945312 4.3125 -8.0625 C 4.320312 -7.175781 4.375 -6.28125 4.46875 -5.375 L 4.46875 -1.25 C 4.46875 -0.613281 4.265625 -0.175781 3.859375 0.0625 L 3.796875 0.0625 C 3.703125 0.113281 3.597656 0.140625 3.484375 0.140625 C 3.328125 0.140625 3.1875 0.09375 3.0625 0 C 2.9375 -0.09375 2.859375 -0.238281 2.828125 -0.4375 C 2.859375 -0.707031 2.878906 -0.992188 2.890625 -1.296875 C 2.898438 -1.597656 2.90625 -1.9375 2.90625 -2.3125 C 2.90625 -2.375 2.90625 -2.425781 2.90625 -2.46875 C 2.914062 -2.519531 2.921875 -2.5625 2.921875 -2.59375 L 2.921875 -3.125 C 2.921875 -3.175781 2.914062 -3.21875 2.90625 -3.25 C 2.90625 -3.289062 2.90625 -3.332031 2.90625 -3.375 L 2.90625 -3.859375 C 2.863281 -4.535156 2.828125 -5.253906 2.796875 -6.015625 C 2.773438 -6.773438 2.765625 -7.5 2.765625 -8.1875 C 2.753906 -8.457031 2.75 -8.773438 2.75 -9.140625 C 2.75 -9.515625 2.75 -9.835938 2.75 -10.109375 C 2.75 -10.335938 2.75 -10.578125 2.75 -10.828125 C 2.75 -11.085938 2.753906 -11.320312 2.765625 -11.53125 L 2.765625 -12.921875 C 2.722656 -12.921875 2.679688 -12.921875 2.640625 -12.921875 C 2.609375 -12.921875 2.554688 -12.914062 2.484375 -12.90625 L 2.5 -12.90625 C 2.445312 -12.882812 2.390625 -12.867188 2.328125 -12.859375 C 2.265625 -12.859375 2.1875 -12.859375 2.09375 -12.859375 C 1.96875 -12.859375 1.847656 -12.859375 1.734375 -12.859375 C 1.617188 -12.859375 1.53125 -12.863281 1.46875 -12.875 C 1.414062 -12.875 1.351562 -12.867188 1.28125 -12.859375 C 1.21875 -12.859375 1.148438 -12.851562 1.078125 -12.84375 L 1.109375 -12.84375 C 1.046875 -12.820312 0.984375 -12.8125 0.921875 -12.8125 C 0.867188 -12.8125 0.820312 -12.8125 0.78125 -12.8125 L 0.4375 -12.8125 C 0 -12.8125 -0.257812 -13.132812 -0.34375 -13.78125 C -0.34375 -13.851562 -0.328125 -13.898438 -0.296875 -13.921875 C -0.179688 -14.054688 -0.0390625 -14.164062 0.125 -14.25 C 0.289062 -14.34375 0.484375 -14.390625 0.703125 -14.390625 L 0.796875 -14.390625 C 0.796875 -14.390625 0.800781 -14.382812 0.8125 -14.375 C 0.820312 -14.363281 0.832031 -14.359375 0.84375 -14.359375 L 0.96875 -14.359375 C 1.125 -14.335938 1.289062 -14.320312 1.46875 -14.3125 C 1.65625 -14.300781 1.875 -14.296875 2.125 -14.296875 C 2.363281 -14.296875 2.601562 -14.296875 2.84375 -14.296875 C 3.082031 -14.296875 3.332031 -14.304688 3.59375 -14.328125 L 4.296875 -14.328125 C 4.398438 -14.328125 4.507812 -14.328125 4.625 -14.328125 C 4.75 -14.335938 4.878906 -14.34375 5.015625 -14.34375 C 5.160156 -14.34375 5.328125 -14.34375 5.515625 -14.34375 C 5.710938 -14.34375 5.90625 -14.347656 6.09375 -14.359375 C 6.332031 -14.359375 6.613281 -14.328125 6.9375 -14.265625 C 7.269531 -14.203125 7.476562 -14.039062 7.5625 -13.78125 Z M 7.5625 -13.78125 "/></g></g></g><g fill="#feffd3" fill-opacity="1"><g transform="translate(34.47679, 19.649206)"><g><path d="M 6.5 -3.515625 C 6.5 -3.085938 6.5 -2.703125 6.5 -2.359375 C 6.5 -2.015625 6.503906 -1.71875 6.515625 -1.46875 L 6.515625 -0.375 C 6.503906 -0.269531 6.4375 -0.175781 6.3125 -0.09375 C 6.195312 -0.0195312 6.078125 0.0351562 5.953125 0.078125 C 5.835938 0.117188 5.765625 0.140625 5.734375 0.140625 C 5.503906 0.140625 5.328125 0.0625 5.203125 -0.09375 C 5.085938 -0.257812 5.003906 -0.460938 4.953125 -0.703125 C 4.898438 -0.941406 4.863281 -1.175781 4.84375 -1.40625 C 4.832031 -1.632812 4.828125 -1.816406 4.828125 -1.953125 C 4.828125 -2.066406 4.832031 -2.195312 4.84375 -2.34375 C 4.851562 -2.488281 4.863281 -2.65625 4.875 -2.84375 C 4.882812 -3.03125 4.894531 -3.253906 4.90625 -3.515625 C 4.914062 -3.773438 4.921875 -4.035156 4.921875 -4.296875 L 4.921875 -6.484375 C 4.921875 -7.421875 4.878906 -8.054688 4.796875 -8.390625 C 4.722656 -8.734375 4.546875 -8.90625 4.265625 -8.90625 C 3.867188 -8.90625 3.539062 -8.816406 3.28125 -8.640625 C 3.03125 -8.472656 2.832031 -8.257812 2.6875 -8 C 2.550781 -7.75 2.457031 -7.503906 2.40625 -7.265625 C 2.351562 -7.023438 2.328125 -6.832031 2.328125 -6.6875 C 2.328125 -6.5625 2.320312 -6.4375 2.3125 -6.3125 C 2.3125 -6.1875 2.3125 -6.066406 2.3125 -5.953125 L 2.3125 -4.03125 C 2.3125 -3.84375 2.3125 -3.664062 2.3125 -3.5 C 2.320312 -3.332031 2.332031 -3.160156 2.34375 -2.984375 C 2.34375 -2.929688 2.347656 -2.867188 2.359375 -2.796875 C 2.367188 -2.734375 2.375 -2.671875 2.375 -2.609375 C 2.394531 -2.367188 2.410156 -2.085938 2.421875 -1.765625 C 2.441406 -1.441406 2.453125 -1.113281 2.453125 -0.78125 C 2.398438 -0.539062 2.320312 -0.363281 2.21875 -0.25 C 2.113281 -0.132812 1.921875 -0.0507812 1.640625 0 C 1.304688 -0.125 1.09375 -0.28125 1 -0.46875 C 0.914062 -0.65625 0.863281 -0.832031 0.84375 -1 L 0.84375 -2.625 C 0.84375 -2.8125 0.835938 -3.015625 0.828125 -3.234375 C 0.828125 -3.460938 0.816406 -3.703125 0.796875 -3.953125 C 0.796875 -4.046875 0.789062 -4.140625 0.78125 -4.234375 C 0.78125 -4.328125 0.78125 -4.421875 0.78125 -4.515625 C 0.769531 -4.691406 0.757812 -4.878906 0.75 -5.078125 C 0.75 -5.285156 0.75 -5.472656 0.75 -5.640625 C 0.75 -6.640625 0.738281 -7.503906 0.71875 -8.234375 C 0.695312 -8.960938 0.671875 -9.585938 0.640625 -10.109375 L 0.640625 -10.296875 C 0.640625 -10.347656 0.632812 -10.398438 0.625 -10.453125 C 0.625 -10.503906 0.625 -10.554688 0.625 -10.609375 C 0.613281 -10.796875 0.609375 -10.988281 0.609375 -11.1875 C 0.609375 -11.394531 0.609375 -11.566406 0.609375 -11.703125 C 0.609375 -12.203125 0.609375 -12.578125 0.609375 -12.828125 C 0.609375 -13.085938 0.609375 -13.304688 0.609375 -13.484375 C 0.617188 -13.660156 0.628906 -13.890625 0.640625 -14.171875 C 0.648438 -14.273438 0.695312 -14.363281 0.78125 -14.4375 C 0.863281 -14.507812 0.953125 -14.546875 1.046875 -14.546875 C 1.441406 -14.546875 1.71875 -14.484375 1.875 -14.359375 C 2.03125 -14.242188 2.117188 -14.082031 2.140625 -13.875 C 2.171875 -13.675781 2.179688 -13.457031 2.171875 -13.21875 L 2.171875 -12.078125 C 2.171875 -12.023438 2.164062 -11.957031 2.15625 -11.875 C 2.144531 -11.789062 2.140625 -11.703125 2.140625 -11.609375 C 2.140625 -11.328125 2.148438 -11.050781 2.171875 -10.78125 C 2.191406 -10.519531 2.210938 -10.21875 2.234375 -9.875 C 2.492188 -10.0625 2.789062 -10.191406 3.125 -10.265625 C 3.457031 -10.335938 3.796875 -10.378906 4.140625 -10.390625 C 4.523438 -10.378906 4.84375 -10.34375 5.09375 -10.28125 C 5.351562 -10.21875 5.582031 -10.09375 5.78125 -9.90625 L 5.78125 -9.9375 C 6.007812 -9.726562 6.171875 -9.394531 6.265625 -8.9375 C 6.367188 -8.488281 6.429688 -7.992188 6.453125 -7.453125 C 6.484375 -6.921875 6.5 -6.429688 6.5 -5.984375 Z M 6.5 -3.515625 "/></g></g></g><g fill="#feffd3" fill-opacity="1"><g transform="translate(42.079492, 19.649206)"><g><path d="M 6.015625 -4.078125 C 6.046875 -3.796875 6.0625 -3.4375 6.0625 -3 C 6.070312 -2.5625 6.078125 -2.179688 6.078125 -1.859375 C 6.078125 -1.085938 5.832031 -0.539062 5.34375 -0.21875 C 4.851562 0.101562 4.175781 0.265625 3.3125 0.265625 L 3.015625 0.265625 C 2.554688 0.222656 2.132812 0.0703125 1.75 -0.1875 C 1.375 -0.445312 1.070312 -0.773438 0.84375 -1.171875 C 0.625 -1.566406 0.515625 -1.972656 0.515625 -2.390625 C 0.515625 -2.773438 0.582031 -3.175781 0.71875 -3.59375 C 0.851562 -4.007812 1.0625 -4.382812 1.34375 -4.71875 C 1.625 -5.0625 1.992188 -5.304688 2.453125 -5.453125 L 2.421875 -5.453125 C 2.566406 -5.523438 2.726562 -5.570312 2.90625 -5.59375 C 3.082031 -5.613281 3.257812 -5.632812 3.4375 -5.65625 C 3.6875 -5.695312 3.914062 -5.738281 4.125 -5.78125 C 4.332031 -5.832031 4.4375 -5.863281 4.4375 -5.875 L 4.4375 -6.171875 C 4.4375 -6.285156 4.429688 -6.398438 4.421875 -6.515625 C 4.410156 -6.640625 4.40625 -6.75 4.40625 -6.84375 L 4.40625 -7.546875 C 4.382812 -7.804688 4.34375 -8.082031 4.28125 -8.375 C 4.21875 -8.675781 4.113281 -8.875 3.96875 -8.96875 L 3.9375 -8.96875 C 3.851562 -9 3.769531 -9.015625 3.6875 -9.015625 C 3.488281 -9.015625 3.28125 -8.960938 3.0625 -8.859375 C 2.851562 -8.753906 2.6875 -8.644531 2.5625 -8.53125 L 2.5 -8.46875 C 2.375 -8.34375 2.222656 -8.207031 2.046875 -8.0625 C 1.867188 -7.914062 1.6875 -7.84375 1.5 -7.84375 C 1.101562 -7.84375 0.90625 -8.109375 0.90625 -8.640625 C 0.90625 -8.941406 1 -9.203125 1.1875 -9.421875 C 1.382812 -9.648438 1.609375 -9.84375 1.859375 -10 C 2.117188 -10.164062 2.34375 -10.289062 2.53125 -10.375 C 2.945312 -10.519531 3.3125 -10.59375 3.625 -10.59375 C 4.257812 -10.59375 4.75 -10.414062 5.09375 -10.0625 C 5.445312 -9.707031 5.6875 -9.238281 5.8125 -8.65625 C 5.945312 -8.082031 6.015625 -7.457031 6.015625 -6.78125 C 6.015625 -6.632812 6.007812 -6.472656 6 -6.296875 C 6 -6.117188 6 -5.953125 6 -5.796875 L 6 -4.828125 C 6 -4.679688 6 -4.546875 6 -4.421875 C 6 -4.296875 6.003906 -4.179688 6.015625 -4.078125 Z M 4.296875 -1.40625 C 4.398438 -1.46875 4.460938 -1.5625 4.484375 -1.6875 C 4.515625 -1.820312 4.53125 -1.957031 4.53125 -2.09375 C 4.53125 -2.351562 4.523438 -2.617188 4.515625 -2.890625 C 4.503906 -3.171875 4.488281 -3.425781 4.46875 -3.65625 C 4.457031 -3.757812 4.445312 -3.867188 4.4375 -3.984375 C 4.4375 -4.097656 4.4375 -4.1875 4.4375 -4.25 C 4.050781 -4.226562 3.675781 -4.160156 3.3125 -4.046875 C 2.945312 -3.929688 2.65625 -3.742188 2.4375 -3.484375 C 2.21875 -3.234375 2.109375 -2.878906 2.109375 -2.421875 C 2.109375 -2.140625 2.179688 -1.921875 2.328125 -1.765625 C 2.484375 -1.609375 2.660156 -1.492188 2.859375 -1.421875 C 3.066406 -1.359375 3.238281 -1.328125 3.375 -1.328125 L 3.59375 -1.328125 C 3.6875 -1.328125 3.796875 -1.328125 3.921875 -1.328125 C 4.046875 -1.335938 4.160156 -1.363281 4.265625 -1.40625 Z M 4.296875 -1.40625 "/></g></g></g><g fill="#feffd3" fill-opacity="1"><g transform="translate(49.140579, 19.649206)"><g><path d="M 6.65625 -7.84375 L 6.65625 -3.453125 C 6.65625 -3.410156 6.65625 -3.363281 6.65625 -3.3125 C 6.65625 -3.269531 6.664062 -3.207031 6.6875 -3.125 C 6.707031 -2.925781 6.722656 -2.6875 6.734375 -2.40625 C 6.753906 -2.132812 6.765625 -1.851562 6.765625 -1.5625 L 6.765625 -1.203125 C 6.765625 -0.835938 6.734375 -0.546875 6.671875 -0.328125 C 6.609375 -0.109375 6.390625 0 6.015625 0 C 5.753906 0 5.5625 -0.0976562 5.4375 -0.296875 C 5.3125 -0.503906 5.234375 -0.757812 5.203125 -1.0625 C 5.171875 -1.375 5.15625 -1.679688 5.15625 -1.984375 L 5.15625 -3.90625 C 5.15625 -4.09375 5.15625 -4.285156 5.15625 -4.484375 C 5.15625 -4.691406 5.160156 -4.894531 5.171875 -5.09375 L 5.171875 -6.3125 C 5.171875 -6.625 5.164062 -6.929688 5.15625 -7.234375 C 5.15625 -7.546875 5.132812 -7.847656 5.09375 -8.140625 C 5 -8.835938 4.625 -9.191406 3.96875 -9.203125 C 3.6875 -9.148438 3.378906 -9.035156 3.046875 -8.859375 C 2.710938 -8.679688 2.53125 -8.476562 2.5 -8.25 C 2.5 -8.21875 2.492188 -8.1875 2.484375 -8.15625 C 2.484375 -8.132812 2.484375 -8.109375 2.484375 -8.078125 C 2.441406 -7.785156 2.421875 -7.5 2.421875 -7.21875 C 2.421875 -6.925781 2.425781 -6.628906 2.4375 -6.328125 C 2.445312 -6.035156 2.457031 -5.738281 2.46875 -5.4375 C 2.476562 -4.96875 2.484375 -4.460938 2.484375 -3.921875 C 2.484375 -3.378906 2.484375 -2.851562 2.484375 -2.34375 L 2.484375 -1.53125 C 2.484375 -1.28125 2.472656 -1.03125 2.453125 -0.78125 C 2.429688 -0.539062 2.378906 -0.335938 2.296875 -0.171875 C 2.210938 -0.015625 2.054688 0.0625 1.828125 0.0625 C 1.785156 0.0625 1.726562 0.0507812 1.65625 0.03125 C 1.582031 0.0195312 1.503906 -0.0078125 1.421875 -0.0625 C 1.234375 -0.15625 1.101562 -0.304688 1.03125 -0.515625 C 0.957031 -0.734375 0.910156 -0.96875 0.890625 -1.21875 C 0.878906 -1.476562 0.875 -1.703125 0.875 -1.890625 L 0.875 -5.890625 C 0.875 -6.347656 0.882812 -6.800781 0.90625 -7.25 C 0.925781 -7.707031 0.960938 -8.160156 1.015625 -8.609375 C 1.085938 -9.179688 1.304688 -9.609375 1.671875 -9.890625 C 2.046875 -10.179688 2.492188 -10.398438 3.015625 -10.546875 C 3.160156 -10.585938 3.328125 -10.617188 3.515625 -10.640625 C 3.710938 -10.671875 3.921875 -10.6875 4.140625 -10.6875 C 4.503906 -10.6875 4.859375 -10.632812 5.203125 -10.53125 C 5.554688 -10.425781 5.863281 -10.242188 6.125 -9.984375 C 6.382812 -9.722656 6.535156 -9.40625 6.578125 -9.03125 C 6.628906 -8.65625 6.65625 -8.257812 6.65625 -7.84375 Z M 6.65625 -7.84375 "/></g></g></g><g fill="#feffd3" fill-opacity="1"><g transform="translate(57.224723, 19.649206)"><g><path d="M 7.109375 -9.828125 C 7.109375 -9.804688 7.101562 -9.773438 7.09375 -9.734375 C 7.082031 -9.691406 7.066406 -9.648438 7.046875 -9.609375 C 6.972656 -9.472656 6.882812 -9.335938 6.78125 -9.203125 C 6.675781 -9.078125 6.578125 -8.957031 6.484375 -8.84375 L 6.265625 -8.609375 C 6.191406 -8.523438 6.125 -8.46875 6.0625 -8.4375 C 6.007812 -8.414062 5.953125 -8.40625 5.890625 -8.40625 L 6.0625 -8.359375 L 4.71875 -6.65625 C 4.976562 -6.613281 5.238281 -6.53125 5.5 -6.40625 C 5.757812 -6.289062 5.992188 -6.109375 6.203125 -5.859375 C 6.429688 -5.492188 6.585938 -5.09375 6.671875 -4.65625 C 6.753906 -4.21875 6.796875 -3.800781 6.796875 -3.40625 L 6.796875 -2.421875 C 6.796875 -2.210938 6.828125 -1.976562 6.890625 -1.71875 C 6.953125 -1.46875 7.015625 -1.207031 7.078125 -0.9375 L 7.078125 -0.71875 C 7.078125 -0.488281 7.003906 -0.273438 6.859375 -0.078125 C 6.722656 0.109375 6.515625 0.203125 6.234375 0.203125 C 6.023438 0.203125 5.851562 0.101562 5.71875 -0.09375 C 5.582031 -0.300781 5.492188 -0.460938 5.453125 -0.578125 L 5.359375 -2.3125 C 5.359375 -2.351562 5.351562 -2.394531 5.34375 -2.4375 C 5.34375 -2.476562 5.34375 -2.53125 5.34375 -2.59375 C 5.28125 -3.457031 5.207031 -4.097656 5.125 -4.515625 C 5.039062 -4.941406 4.800781 -5.15625 4.40625 -5.15625 C 3.8125 -5.15625 3.351562 -5 3.03125 -4.6875 C 2.707031 -4.382812 2.546875 -4.019531 2.546875 -3.59375 C 2.546875 -3.21875 2.554688 -2.832031 2.578125 -2.4375 C 2.609375 -2.050781 2.644531 -1.664062 2.6875 -1.28125 L 2.6875 -1.046875 C 2.6875 -0.859375 2.648438 -0.648438 2.578125 -0.421875 C 2.515625 -0.191406 2.363281 -0.00390625 2.125 0.140625 C 1.820312 0.140625 1.585938 0.0507812 1.421875 -0.125 C 1.265625 -0.3125 1.15625 -0.535156 1.09375 -0.796875 C 1.039062 -1.054688 1.015625 -1.300781 1.015625 -1.53125 C 1.015625 -1.59375 1.019531 -1.644531 1.03125 -1.6875 C 1.039062 -1.738281 1.046875 -1.789062 1.046875 -1.84375 L 1.046875 -2.609375 C 1.046875 -3.597656 1.046875 -4.363281 1.046875 -4.90625 C 1.046875 -5.457031 1.035156 -5.890625 1.015625 -6.203125 C 1.015625 -6.367188 1.007812 -6.515625 1 -6.640625 C 1 -6.765625 1 -6.882812 1 -7 C 1 -7.144531 1 -7.289062 1 -7.4375 C 1 -7.582031 1.003906 -7.722656 1.015625 -7.859375 L 1.046875 -8.734375 C 1.046875 -9.117188 1.035156 -9.5 1.015625 -9.875 C 1.003906 -10.257812 0.988281 -10.640625 0.96875 -11.015625 C 0.945312 -11.398438 0.925781 -11.785156 0.90625 -12.171875 C 0.882812 -12.566406 0.875 -12.96875 0.875 -13.375 C 0.875 -13.53125 0.882812 -13.710938 0.90625 -13.921875 C 0.925781 -14.140625 0.992188 -14.332031 1.109375 -14.5 C 1.222656 -14.664062 1.421875 -14.75 1.703125 -14.75 C 1.890625 -14.75 2.066406 -14.640625 2.234375 -14.421875 C 2.398438 -14.210938 2.484375 -13.941406 2.484375 -13.609375 C 2.484375 -13.515625 2.476562 -13.421875 2.46875 -13.328125 C 2.46875 -13.234375 2.460938 -13.144531 2.453125 -13.0625 C 2.429688 -13.007812 2.421875 -12.953125 2.421875 -12.890625 C 2.421875 -12.835938 2.421875 -12.785156 2.421875 -12.734375 C 2.421875 -12.515625 2.421875 -12.3125 2.421875 -12.125 C 2.421875 -11.9375 2.429688 -11.75 2.453125 -11.5625 C 2.453125 -11.394531 2.453125 -11.226562 2.453125 -11.0625 C 2.460938 -10.894531 2.46875 -10.71875 2.46875 -10.53125 L 2.46875 -9.96875 C 2.46875 -9.875 2.460938 -9.78125 2.453125 -9.6875 C 2.453125 -9.59375 2.453125 -9.492188 2.453125 -9.390625 L 2.453125 -7.125 C 2.453125 -7 2.445312 -6.914062 2.4375 -6.875 C 2.425781 -6.84375 2.425781 -6.800781 2.4375 -6.75 C 2.445312 -6.707031 2.457031 -6.601562 2.46875 -6.4375 C 2.769531 -6.75 3.0625 -7.0625 3.34375 -7.375 C 3.625 -7.695312 3.894531 -8.023438 4.15625 -8.359375 L 4.640625 -9.0625 L 4.640625 -9.046875 C 4.898438 -9.429688 5.164062 -9.796875 5.4375 -10.140625 C 5.707031 -10.484375 5.972656 -10.65625 6.234375 -10.65625 C 6.492188 -10.65625 6.703125 -10.570312 6.859375 -10.40625 C 7.023438 -10.25 7.109375 -10.054688 7.109375 -9.828125 Z M 7.109375 -9.828125 "/></g></g></g><g fill="#feffd3" fill-opacity="1"><g transform="translate(65.268746, 19.649206)"><g><path d="M 2.09375 -11.4375 C 1.9375 -11.4375 1.769531 -11.457031 1.59375 -11.5 C 1.425781 -11.550781 1.285156 -11.679688 1.171875 -11.890625 C 1.054688 -12.109375 1 -12.457031 1 -12.9375 C 1 -13.164062 1.015625 -13.398438 1.046875 -13.640625 C 1.085938 -13.878906 1.15625 -14.082031 1.25 -14.25 C 1.34375 -14.414062 1.472656 -14.5 1.640625 -14.5 C 1.867188 -14.5 2.066406 -14.40625 2.234375 -14.21875 C 2.410156 -14.03125 2.53125 -13.804688 2.59375 -13.546875 C 2.613281 -13.429688 2.632812 -13.269531 2.65625 -13.0625 C 2.6875 -12.863281 2.703125 -12.648438 2.703125 -12.421875 C 2.703125 -12.140625 2.660156 -11.90625 2.578125 -11.71875 C 2.492188 -11.53125 2.332031 -11.4375 2.09375 -11.4375 Z M 1.140625 -4.328125 C 1.140625 -4.640625 1.132812 -5 1.125 -5.40625 C 1.125 -5.8125 1.125 -6.238281 1.125 -6.6875 C 1.125 -7.0625 1.117188 -7.46875 1.109375 -7.90625 C 1.109375 -8.34375 1.109375 -8.738281 1.109375 -9.09375 C 1.109375 -9.445312 1.109375 -9.671875 1.109375 -9.765625 C 1.109375 -10.078125 1.1875 -10.328125 1.34375 -10.515625 C 1.5 -10.703125 1.707031 -10.796875 1.96875 -10.796875 C 2.082031 -10.796875 2.226562 -10.738281 2.40625 -10.625 C 2.59375 -10.519531 2.6875 -10.316406 2.6875 -10.015625 C 2.6875 -9.796875 2.679688 -9.578125 2.671875 -9.359375 C 2.671875 -9.140625 2.671875 -8.921875 2.671875 -8.703125 L 2.671875 -5.8125 C 2.671875 -5 2.671875 -4.335938 2.671875 -3.828125 C 2.679688 -3.316406 2.691406 -2.867188 2.703125 -2.484375 C 2.722656 -2.273438 2.734375 -2.019531 2.734375 -1.71875 C 2.734375 -1.414062 2.734375 -1.148438 2.734375 -0.921875 C 2.734375 -0.617188 2.648438 -0.375 2.484375 -0.1875 C 2.328125 0 2.113281 0.09375 1.84375 0.09375 C 1.707031 0.09375 1.5625 0.046875 1.40625 -0.046875 C 1.257812 -0.148438 1.171875 -0.347656 1.140625 -0.640625 Z M 1.140625 -4.328125 "/></g></g></g><g fill="#feffd3" fill-opacity="1"><g transform="translate(69.360965, 19.649206)"><g><path d="M 5.84375 -2.96875 C 6.03125 -2.882812 6.160156 -2.769531 6.234375 -2.625 C 6.304688 -2.476562 6.34375 -2.285156 6.34375 -2.046875 C 6.34375 -1.429688 6.226562 -0.96875 6 -0.65625 C 5.78125 -0.34375 5.488281 -0.128906 5.125 -0.015625 C 4.757812 0.0976562 4.351562 0.175781 3.90625 0.21875 L 3.8125 0.21875 C 3.3125 0.21875 2.785156 0.101562 2.234375 -0.125 C 1.691406 -0.351562 1.28125 -0.753906 1 -1.328125 C 0.863281 -1.515625 0.757812 -1.800781 0.6875 -2.1875 C 0.613281 -2.582031 0.5625 -3.023438 0.53125 -3.515625 C 0.5 -4.003906 0.472656 -4.492188 0.453125 -4.984375 C 0.441406 -5.472656 0.4375 -5.898438 0.4375 -6.265625 C 0.4375 -7.410156 0.535156 -8.3125 0.734375 -8.96875 C 0.941406 -9.625 1.25 -10.085938 1.65625 -10.359375 C 2.070312 -10.640625 2.597656 -10.78125 3.234375 -10.78125 C 3.992188 -10.78125 4.570312 -10.640625 4.96875 -10.359375 C 5.375 -10.078125 5.660156 -9.578125 5.828125 -8.859375 C 6.003906 -8.148438 6.132812 -7.148438 6.21875 -5.859375 L 6.203125 -5.703125 C 5.941406 -5.285156 5.59375 -5.078125 5.15625 -5.078125 C 5.03125 -5.078125 4.90625 -5.085938 4.78125 -5.109375 C 4.75 -5.109375 4.722656 -5.113281 4.703125 -5.125 C 4.679688 -5.132812 4.660156 -5.140625 4.640625 -5.140625 C 4.609375 -5.148438 4.5625 -5.15625 4.5 -5.15625 L 4.328125 -5.171875 L 4.09375 -5.171875 C 3.59375 -5.171875 3.179688 -5.164062 2.859375 -5.15625 C 2.546875 -5.15625 2.273438 -5.140625 2.046875 -5.109375 L 2.046875 -4.734375 C 2.046875 -4.640625 2.046875 -4.550781 2.046875 -4.46875 C 2.046875 -4.394531 2.050781 -4.300781 2.0625 -4.1875 L 2.0625 -3.859375 C 2.0625 -3.796875 2.066406 -3.726562 2.078125 -3.65625 C 2.085938 -3.582031 2.09375 -3.515625 2.09375 -3.453125 C 2.09375 -2.753906 2.238281 -2.226562 2.53125 -1.875 C 2.832031 -1.519531 3.359375 -1.34375 4.109375 -1.34375 C 4.429688 -1.34375 4.640625 -1.4375 4.734375 -1.625 C 4.765625 -1.65625 4.78125 -1.695312 4.78125 -1.75 C 4.789062 -1.8125 4.796875 -1.847656 4.796875 -1.859375 C 4.796875 -1.929688 4.800781 -2 4.8125 -2.0625 C 4.820312 -2.132812 4.835938 -2.179688 4.859375 -2.203125 L 4.859375 -2.1875 L 4.875 -2.25 C 5.050781 -2.726562 5.335938 -2.972656 5.734375 -2.984375 Z M 2.484375 -8.953125 C 2.296875 -8.691406 2.171875 -8.425781 2.109375 -8.15625 C 2.054688 -7.882812 2.03125 -7.59375 2.03125 -7.28125 C 2.03125 -7.144531 2.03125 -7.03125 2.03125 -6.9375 C 2.03125 -6.84375 2.035156 -6.742188 2.046875 -6.640625 L 2.34375 -6.640625 C 2.519531 -6.640625 2.707031 -6.640625 2.90625 -6.640625 C 3.101562 -6.640625 3.316406 -6.632812 3.546875 -6.625 L 4.515625 -6.625 C 4.503906 -6.925781 4.492188 -7.179688 4.484375 -7.390625 C 4.472656 -7.597656 4.457031 -7.78125 4.4375 -7.9375 C 4.414062 -8.25 4.375 -8.5 4.3125 -8.6875 C 4.257812 -8.882812 4.179688 -9.007812 4.078125 -9.0625 L 4.09375 -9.0625 C 4 -9.101562 3.890625 -9.140625 3.765625 -9.171875 C 3.648438 -9.210938 3.519531 -9.234375 3.375 -9.234375 L 3.234375 -9.234375 C 3.046875 -9.203125 2.882812 -9.171875 2.75 -9.140625 C 2.625 -9.109375 2.535156 -9.046875 2.484375 -8.953125 Z M 2.484375 -8.953125 "/></g></g></g><g fill="#feffd3" fill-opacity="1"><g transform="translate(76.381931, 19.649206)"><g><path d="M 9.171875 -10.40625 C 9.429688 -10.351562 9.582031 -10.273438 9.625 -10.171875 C 9.664062 -10.066406 9.6875 -9.929688 9.6875 -9.765625 L 9.6875 -9.421875 C 9.664062 -9.171875 9.625 -8.957031 9.5625 -8.78125 C 9.507812 -8.613281 9.457031 -8.445312 9.40625 -8.28125 L 9.34375 -8.125 L 9.375 -8.125 C 9.34375 -8.03125 9.304688 -7.925781 9.265625 -7.8125 C 9.222656 -7.695312 9.191406 -7.570312 9.171875 -7.4375 C 9.078125 -6.96875 8.972656 -6.476562 8.859375 -5.96875 C 8.742188 -5.46875 8.632812 -4.984375 8.53125 -4.515625 L 8.40625 -4.140625 L 8.421875 -4.140625 C 8.367188 -3.972656 8.316406 -3.804688 8.265625 -3.640625 C 8.222656 -3.484375 8.179688 -3.328125 8.140625 -3.171875 C 8.085938 -2.859375 8.023438 -2.539062 7.953125 -2.21875 C 7.890625 -1.90625 7.828125 -1.59375 7.765625 -1.28125 C 7.734375 -1.132812 7.679688 -0.957031 7.609375 -0.75 C 7.535156 -0.539062 7.4375 -0.359375 7.3125 -0.203125 C 7.195312 -0.0546875 7.035156 0.015625 6.828125 0.015625 C 6.566406 0.015625 6.375 -0.046875 6.25 -0.171875 C 6.132812 -0.304688 6.054688 -0.476562 6.015625 -0.6875 C 5.972656 -0.894531 5.945312 -1.09375 5.9375 -1.28125 C 5.9375 -1.320312 5.9375 -1.363281 5.9375 -1.40625 C 5.9375 -1.457031 5.929688 -1.5 5.921875 -1.53125 C 5.898438 -1.71875 5.863281 -1.914062 5.8125 -2.125 C 5.757812 -2.34375 5.707031 -2.554688 5.65625 -2.765625 L 5.484375 -3.53125 C 5.410156 -3.90625 5.351562 -4.203125 5.3125 -4.421875 C 5.269531 -4.640625 5.234375 -4.832031 5.203125 -5 C 5.179688 -5.164062 5.144531 -5.34375 5.09375 -5.53125 C 5.050781 -5.71875 4.992188 -5.96875 4.921875 -6.28125 L 4.71875 -5.515625 C 4.632812 -5.191406 4.554688 -4.859375 4.484375 -4.515625 C 4.410156 -4.179688 4.335938 -3.851562 4.265625 -3.53125 L 4.09375 -2.765625 C 4.039062 -2.554688 3.988281 -2.34375 3.9375 -2.125 C 3.894531 -1.914062 3.867188 -1.71875 3.859375 -1.53125 C 3.835938 -1.5 3.828125 -1.457031 3.828125 -1.40625 C 3.828125 -1.363281 3.828125 -1.320312 3.828125 -1.28125 C 3.816406 -1.09375 3.789062 -0.894531 3.75 -0.6875 C 3.707031 -0.476562 3.625 -0.304688 3.5 -0.171875 C 3.382812 -0.046875 3.191406 0.015625 2.921875 0.015625 C 2.722656 0.015625 2.5625 -0.0546875 2.4375 -0.203125 C 2.3125 -0.359375 2.210938 -0.539062 2.140625 -0.75 C 2.078125 -0.957031 2.023438 -1.132812 1.984375 -1.28125 L 1.609375 -3.15625 C 1.554688 -3.375 1.5 -3.597656 1.4375 -3.828125 C 1.382812 -4.054688 1.332031 -4.28125 1.28125 -4.5 L 1.1875 -5.0625 C 1.101562 -5.4375 1.019531 -5.816406 0.9375 -6.203125 C 0.863281 -6.585938 0.765625 -6.988281 0.640625 -7.40625 C 0.640625 -7.40625 0.632812 -7.414062 0.625 -7.4375 C 0.625 -7.46875 0.625 -7.492188 0.625 -7.515625 L 0.625 -7.5 C 0.582031 -7.601562 0.546875 -7.722656 0.515625 -7.859375 C 0.484375 -7.992188 0.472656 -8.050781 0.484375 -8.03125 C 0.390625 -8.289062 0.304688 -8.535156 0.234375 -8.765625 C 0.171875 -9.003906 0.132812 -9.234375 0.125 -9.453125 L 0.140625 -9.40625 C 0.109375 -9.5 0.0859375 -9.566406 0.078125 -9.609375 C 0.078125 -9.660156 0.078125 -9.710938 0.078125 -9.765625 C 0.078125 -9.929688 0.109375 -10.070312 0.171875 -10.1875 C 0.242188 -10.300781 0.40625 -10.375 0.65625 -10.40625 L 0.78125 -10.4375 C 0.914062 -10.4375 1.066406 -10.398438 1.234375 -10.328125 C 1.398438 -10.265625 1.488281 -10.132812 1.5 -9.9375 C 1.550781 -9.800781 1.609375 -9.625 1.671875 -9.40625 C 1.742188 -9.195312 1.804688 -8.988281 1.859375 -8.78125 C 1.921875 -8.570312 1.957031 -8.414062 1.96875 -8.3125 L 2.421875 -6.5 C 2.585938 -5.78125 2.726562 -5.078125 2.84375 -4.390625 L 2.890625 -4.21875 C 2.953125 -4.4375 3.007812 -4.671875 3.0625 -4.921875 C 3.125 -5.179688 3.179688 -5.46875 3.234375 -5.78125 C 3.285156 -6.03125 3.320312 -6.25 3.34375 -6.4375 C 3.375 -6.625 3.410156 -6.800781 3.453125 -6.96875 L 3.453125 -6.9375 L 3.515625 -7.1875 C 3.535156 -7.257812 3.554688 -7.347656 3.578125 -7.453125 C 3.609375 -7.566406 3.632812 -7.675781 3.65625 -7.78125 C 3.675781 -8.007812 3.722656 -8.273438 3.796875 -8.578125 C 3.867188 -8.878906 3.96875 -9.132812 4.09375 -9.34375 C 4.289062 -9.675781 4.554688 -9.84375 4.890625 -9.84375 C 5.066406 -9.84375 5.203125 -9.8125 5.296875 -9.75 C 5.398438 -9.695312 5.476562 -9.628906 5.53125 -9.546875 C 5.664062 -9.367188 5.753906 -9.175781 5.796875 -8.96875 C 5.847656 -8.769531 5.878906 -8.582031 5.890625 -8.40625 C 5.890625 -8.394531 5.894531 -8.378906 5.90625 -8.359375 C 5.914062 -8.335938 5.921875 -8.3125 5.921875 -8.28125 L 5.953125 -7.9375 C 5.984375 -7.75 6.023438 -7.554688 6.078125 -7.359375 C 6.128906 -7.160156 6.179688 -6.992188 6.234375 -6.859375 L 6.28125 -6.734375 C 6.320312 -6.628906 6.363281 -6.523438 6.40625 -6.421875 C 6.457031 -6.328125 6.492188 -6.097656 6.515625 -5.734375 C 6.546875 -5.398438 6.597656 -5.101562 6.671875 -4.84375 C 6.742188 -4.582031 6.804688 -4.328125 6.859375 -4.078125 L 6.96875 -4.4375 L 7.40625 -6.5 L 7.796875 -8.3125 C 7.828125 -8.425781 7.863281 -8.585938 7.90625 -8.796875 C 7.957031 -9.015625 8.015625 -9.226562 8.078125 -9.4375 C 8.148438 -9.65625 8.210938 -9.820312 8.265625 -9.9375 C 8.304688 -10.101562 8.40625 -10.226562 8.5625 -10.3125 C 8.726562 -10.394531 8.867188 -10.4375 8.984375 -10.4375 C 9.003906 -10.4375 9.019531 -10.429688 9.03125 -10.421875 C 9.039062 -10.410156 9.050781 -10.40625 9.0625 -10.40625 Z M 9.171875 -10.40625 "/></g></g></g><g fill="#feffd3" fill-opacity="1"><g transform="translate(86.431947, 19.649206)"><g><path d="M 3.234375 -9.765625 C 3.234375 -9.203125 3.222656 -8.65625 3.203125 -8.125 C 3.179688 -7.601562 3.15625 -7.101562 3.125 -6.625 C 3.113281 -6.476562 3.109375 -6.316406 3.109375 -6.140625 C 3.109375 -5.960938 3.109375 -5.800781 3.109375 -5.65625 C 3.109375 -5.101562 3.128906 -4.492188 3.171875 -3.828125 C 3.171875 -3.628906 3.125 -3.488281 3.03125 -3.40625 C 2.945312 -3.332031 2.816406 -3.28125 2.640625 -3.25 L 2.671875 -3.25 C 2.617188 -3.238281 2.566406 -3.226562 2.515625 -3.21875 C 2.472656 -3.207031 2.429688 -3.203125 2.390625 -3.203125 C 2.210938 -3.203125 2.066406 -3.242188 1.953125 -3.328125 C 1.835938 -3.410156 1.707031 -3.523438 1.5625 -3.671875 C 1.550781 -4.054688 1.539062 -4.457031 1.53125 -4.875 C 1.53125 -5.300781 1.53125 -5.679688 1.53125 -6.015625 C 1.53125 -6.347656 1.53125 -6.675781 1.53125 -7 C 1.539062 -7.320312 1.550781 -7.632812 1.5625 -7.9375 L 1.5625 -8.203125 C 1.5625 -8.347656 1.5625 -8.625 1.5625 -9.03125 C 1.570312 -9.445312 1.578125 -10.117188 1.578125 -11.046875 C 1.578125 -11.515625 1.570312 -11.976562 1.5625 -12.4375 C 1.550781 -12.894531 1.507812 -13.347656 1.4375 -13.796875 C 1.4375 -13.929688 1.472656 -14.035156 1.546875 -14.109375 C 1.628906 -14.179688 1.734375 -14.25 1.859375 -14.3125 C 1.984375 -14.382812 2.113281 -14.421875 2.25 -14.421875 C 2.59375 -14.421875 2.875 -14.257812 3.09375 -13.9375 C 3.15625 -13.457031 3.195312 -12.945312 3.21875 -12.40625 C 3.238281 -11.863281 3.25 -11.285156 3.25 -10.671875 L 3.25 -10.25 C 3.25 -10.207031 3.242188 -10.164062 3.234375 -10.125 C 3.234375 -10.09375 3.234375 -10.054688 3.234375 -10.015625 Z M 1.40625 -1.6875 L 1.421875 -1.8125 C 1.503906 -1.96875 1.617188 -2.078125 1.765625 -2.140625 C 1.910156 -2.203125 2.070312 -2.234375 2.25 -2.234375 C 2.601562 -2.234375 2.882812 -2.054688 3.09375 -1.703125 L 3.09375 -1.25 C 3.09375 -1.226562 3.09375 -1.210938 3.09375 -1.203125 C 3.101562 -1.191406 3.109375 -1.171875 3.109375 -1.140625 C 3.109375 -1.003906 3.097656 -0.847656 3.078125 -0.671875 C 3.066406 -0.492188 3.046875 -0.300781 3.015625 -0.09375 C 2.898438 0.0078125 2.789062 0.0820312 2.6875 0.125 C 2.59375 0.175781 2.515625 0.203125 2.453125 0.203125 C 2.242188 0.203125 2.054688 0.101562 1.890625 -0.09375 C 1.722656 -0.300781 1.585938 -0.53125 1.484375 -0.78125 C 1.390625 -1.03125 1.34375 -1.242188 1.34375 -1.421875 C 1.34375 -1.503906 1.363281 -1.59375 1.40625 -1.6875 Z M 1.40625 -1.6875 "/></g></g></g></g></g></svg>