<svg xmlns="http://www.w3.org/2000/svg" xmlns:xlink="http://www.w3.org/1999/xlink" width="397" zoomAndPan="magnify" viewBox="0 0 297.75 419.249996" height="559" preserveAspectRatio="xMidYMid meet" version="1.0"><defs><filter x="0%" y="0%" width="100%" height="100%" id="fef1f264e6"><feColorMatrix values="0 0 0 0 1 0 0 0 0 1 0 0 0 0 1 0 0 0 1 0" color-interpolation-filters="sRGB"/></filter><clipPath id="57a27d9765"><path d="M 2 1 L 129 1 L 129 151.609375 L 2 151.609375 Z M 2 1 " clip-rule="nonzero"/></clipPath><clipPath id="3b43fbb3c7"><path d="M 0.511719 0.390625 L 130.839844 0.390625 L 130.839844 119 L 0.511719 119 Z M 0.511719 0.390625 " clip-rule="nonzero"/></clipPath><mask id="8e87a21d60"><g filter="url(#fef1f264e6)"><rect x="-148.505" width="428.76" fill="#000000" y="-225.234999" height="603.719994" fill-opacity="0.25"/></g></mask><clipPath id="a75911f14b"><path d="M 0.460938 0.617188 L 108.984375 0.617188 L 108.984375 92 L 0.460938 92 Z M 0.460938 0.617188 " clip-rule="nonzero"/></clipPath><clipPath id="0050df0f0d"><rect x="0" width="109" y="0" height="93"/></clipPath><clipPath id="5da23b45c4"><path d="M 61.804688 73.71875 L 63.972656 73.71875 L 63.972656 76.105469 L 61.804688 76.105469 Z M 61.804688 73.71875 " clip-rule="nonzero"/></clipPath><clipPath id="9857903bb6"><path d="M 62.175781 73.921875 C 62.078125 74.101562 61.839844 74.347656 61.808594 74.554688 C 61.773438 74.777344 62.050781 75.097656 62.128906 75.339844 C 62.257812 75.746094 62.402344 76.074219 62.898438 76.078125 C 63.148438 76.078125 63.386719 75.871094 63.621094 75.789062 C 63.835938 75.714844 63.929688 75.734375 63.949219 75.464844 C 63.964844 75.257812 63.9375 74.871094 63.828125 74.699219 C 63.71875 74.53125 63.464844 74.390625 63.320312 74.242188 C 63.160156 74.082031 63.050781 73.851562 62.835938 73.78125 C 62.679688 73.730469 62.328125 73.699219 62.175781 73.921875 Z M 62.175781 73.921875 " clip-rule="nonzero"/></clipPath><clipPath id="866ea150d2"><path d="M 61.804688 74 L 63 74 L 63 76 L 61.804688 76 Z M 61.804688 74 " clip-rule="nonzero"/></clipPath><clipPath id="90978a7bb8"><path d="M 62.175781 73.921875 C 62.078125 74.101562 61.839844 74.347656 61.808594 74.554688 C 61.773438 74.777344 62.050781 75.097656 62.128906 75.339844 C 62.257812 75.746094 62.402344 76.074219 62.898438 76.078125 C 63.148438 76.078125 63.386719 75.871094 63.621094 75.789062 C 63.835938 75.714844 63.929688 75.734375 63.949219 75.464844 C 63.964844 75.257812 63.9375 74.871094 63.828125 74.699219 C 63.71875 74.53125 63.464844 74.390625 63.320312 74.242188 C 63.160156 74.082031 63.050781 73.851562 62.835938 73.78125 C 62.679688 73.730469 62.328125 73.699219 62.175781 73.921875 Z M 62.175781 73.921875 " clip-rule="nonzero"/></clipPath><clipPath id="ec52d6ef43"><path d="M 56.175781 76 L 65 76 L 65 82 L 56.175781 82 Z M 56.175781 76 " clip-rule="nonzero"/></clipPath><clipPath id="00728148b7"><path d="M 58 76.015625 L 64.867188 76.015625 L 64.867188 81.140625 L 58 81.140625 Z M 58 76.015625 " clip-rule="nonzero"/></clipPath><clipPath id="bdfc814fdb"><path d="M 57.644531 76.027344 C 57.90625 76.078125 58.136719 76.085938 58.390625 76.203125 C 58.734375 76.363281 58.992188 76.542969 59.390625 76.519531 C 59.609375 76.507812 59.875 76.417969 60.097656 76.476562 C 60.359375 76.550781 60.628906 76.832031 60.832031 77 C 61.152344 77.261719 61.335938 77.597656 61.660156 77.847656 C 61.929688 78.058594 62.144531 78.121094 62.484375 78.136719 C 62.636719 78.144531 62.84375 78.097656 62.992188 78.136719 C 63.183594 78.183594 63.382812 78.308594 63.582031 78.371094 C 63.820312 78.445312 64.125 78.488281 64.320312 78.644531 C 64.457031 78.757812 64.539062 78.929688 64.628906 79.074219 C 64.675781 79.15625 64.832031 79.324219 64.835938 79.410156 C 64.855469 79.691406 64.339844 80.042969 64.15625 80.1875 C 63.792969 80.464844 63.324219 81.003906 62.839844 81.015625 C 62.585938 81.019531 62.34375 80.933594 62.082031 80.953125 C 61.710938 80.980469 61.332031 81.046875 60.960938 81.097656 C 60.554688 81.15625 60.140625 81.078125 59.761719 80.898438 C 59.480469 80.769531 59.390625 80.425781 59.089844 80.316406 C 58.769531 80.195312 58.363281 80.28125 58.066406 80.152344 C 57.769531 80.023438 57.492188 79.761719 57.222656 79.585938 C 57.027344 79.457031 56.855469 79.410156 56.761719 79.199219 C 56.640625 78.929688 56.625 78.617188 56.5 78.34375 C 56.410156 78.148438 56.25 77.945312 56.21875 77.726562 C 56.175781 77.40625 56.488281 76.703125 56.757812 76.472656 C 56.921875 76.332031 57.363281 76.054688 57.644531 76.027344 Z M 57.644531 76.027344 " clip-rule="nonzero"/></clipPath><clipPath id="1270b7c808"><path d="M 56.214844 76.015625 L 59 76.015625 L 59 80 L 56.214844 80 Z M 56.214844 76.015625 " clip-rule="nonzero"/></clipPath><clipPath id="157bf33733"><path d="M 57.644531 76.027344 C 57.90625 76.078125 58.136719 76.085938 58.390625 76.203125 C 58.734375 76.363281 58.992188 76.542969 59.390625 76.519531 C 59.609375 76.507812 59.875 76.417969 60.097656 76.476562 C 60.359375 76.550781 60.628906 76.832031 60.832031 77 C 61.152344 77.261719 61.335938 77.597656 61.660156 77.847656 C 61.929688 78.058594 62.144531 78.121094 62.484375 78.136719 C 62.636719 78.144531 62.84375 78.097656 62.992188 78.136719 C 63.183594 78.183594 63.382812 78.308594 63.582031 78.371094 C 63.820312 78.445312 64.125 78.488281 64.320312 78.644531 C 64.457031 78.757812 64.539062 78.929688 64.628906 79.074219 C 64.675781 79.15625 64.832031 79.324219 64.835938 79.410156 C 64.855469 79.691406 64.339844 80.042969 64.15625 80.1875 C 63.792969 80.464844 63.324219 81.003906 62.839844 81.015625 C 62.585938 81.019531 62.34375 80.933594 62.082031 80.953125 C 61.710938 80.980469 61.332031 81.046875 60.960938 81.097656 C 60.554688 81.15625 60.140625 81.078125 59.761719 80.898438 C 59.480469 80.769531 59.390625 80.425781 59.089844 80.316406 C 58.769531 80.195312 58.363281 80.28125 58.066406 80.152344 C 57.769531 80.023438 57.492188 79.761719 57.222656 79.585938 C 57.027344 79.457031 56.855469 79.410156 56.761719 79.199219 C 56.640625 78.929688 56.625 78.617188 56.5 78.34375 C 56.410156 78.148438 56.25 77.945312 56.21875 77.726562 C 56.175781 77.40625 56.488281 76.703125 56.757812 76.472656 C 56.921875 76.332031 57.363281 76.054688 57.644531 76.027344 Z M 57.644531 76.027344 " clip-rule="nonzero"/></clipPath><clipPath id="6f352b7d47"><path d="M 66 79 L 69 79 L 69 82.207031 L 66 82.207031 Z M 66 79 " clip-rule="nonzero"/></clipPath><clipPath id="e2aaed066c"><path d="M 67 79.832031 L 68.816406 79.832031 L 68.816406 82.097656 L 67 82.097656 Z M 67 79.832031 " clip-rule="nonzero"/></clipPath><clipPath id="830614d8cb"><path d="M 67.125 79.941406 C 67.382812 79.847656 67.601562 79.773438 67.820312 79.941406 C 68.027344 80.097656 68.261719 80.261719 68.457031 80.433594 C 68.746094 80.683594 68.84375 81.003906 68.761719 81.394531 C 68.679688 81.785156 68.0625 82.058594 67.6875 82.074219 C 67.371094 82.085938 66.914062 82.03125 66.664062 81.832031 C 66.519531 81.71875 66.445312 81.402344 66.425781 81.207031 C 66.394531 80.949219 66.550781 80.6875 66.710938 80.503906 C 66.835938 80.359375 66.941406 80.101562 67.125 79.941406 Z M 67.125 79.941406 " clip-rule="nonzero"/></clipPath><clipPath id="4ae6c37977"><path d="M 66.410156 80 L 68 80 L 68 82 L 66.410156 82 Z M 66.410156 80 " clip-rule="nonzero"/></clipPath><clipPath id="c1f9f0d4c1"><path d="M 67.125 79.941406 C 67.382812 79.847656 67.601562 79.773438 67.820312 79.941406 C 68.027344 80.097656 68.261719 80.261719 68.457031 80.433594 C 68.746094 80.683594 68.84375 81.003906 68.761719 81.394531 C 68.679688 81.785156 68.0625 82.058594 67.6875 82.074219 C 67.371094 82.085938 66.914062 82.03125 66.664062 81.832031 C 66.519531 81.71875 66.445312 81.402344 66.425781 81.207031 C 66.394531 80.949219 66.550781 80.6875 66.710938 80.503906 C 66.835938 80.359375 66.941406 80.101562 67.125 79.941406 Z M 67.125 79.941406 " clip-rule="nonzero"/></clipPath><clipPath id="2abe8ed47a"><path d="M 67 72.644531 L 70.066406 72.644531 L 70.066406 78.042969 L 67 78.042969 Z M 67 72.644531 " clip-rule="nonzero"/></clipPath><clipPath id="774a8814d2"><path d="M 67.242188 72.960938 C 67.542969 72.757812 68.160156 72.566406 68.503906 72.683594 C 68.738281 72.761719 69.050781 72.988281 69.25 73.144531 C 69.492188 73.335938 69.4375 73.570312 69.4375 73.859375 C 69.4375 74.179688 69.4375 74.386719 69.554688 74.664062 C 69.683594 74.960938 69.933594 75.246094 70.023438 75.554688 C 70.105469 75.835938 69.953125 76.195312 69.898438 76.492188 C 69.859375 76.714844 69.84375 76.957031 69.792969 77.179688 C 69.777344 77.242188 69.734375 77.292969 69.671875 77.316406 C 69.351562 77.441406 69.132812 77.871094 68.8125 77.988281 C 68.542969 78.085938 68.125 77.972656 67.828125 77.972656 C 67.582031 77.972656 67.59375 77.988281 67.433594 77.789062 C 67.277344 77.597656 66.992188 77.386719 66.910156 77.160156 C 66.855469 76.996094 66.914062 76.871094 66.949219 76.6875 C 67.007812 76.394531 67.027344 76.09375 67.035156 75.796875 C 67.042969 75.460938 66.949219 75.347656 66.730469 75.089844 C 66.515625 74.84375 66.523438 74.636719 66.496094 74.316406 C 66.480469 74.117188 66.445312 73.980469 66.546875 73.804688 C 66.660156 73.613281 66.847656 73.476562 66.960938 73.285156 C 67.023438 73.183594 67.039062 73.09375 67.242188 72.960938 Z M 67.242188 72.960938 " clip-rule="nonzero"/></clipPath><clipPath id="c1c6c14de7"><path d="M 66.46875 73 L 68 73 L 68 75 L 66.46875 75 Z M 66.46875 73 " clip-rule="nonzero"/></clipPath><clipPath id="55db492edf"><path d="M 67.242188 72.960938 C 67.542969 72.757812 68.160156 72.566406 68.503906 72.683594 C 68.738281 72.761719 69.050781 72.988281 69.25 73.144531 C 69.492188 73.335938 69.4375 73.570312 69.4375 73.859375 C 69.4375 74.179688 69.4375 74.386719 69.554688 74.664062 C 69.683594 74.960938 69.933594 75.246094 70.023438 75.554688 C 70.105469 75.835938 69.953125 76.195312 69.898438 76.492188 C 69.859375 76.714844 69.84375 76.957031 69.792969 77.179688 C 69.777344 77.242188 69.734375 77.292969 69.671875 77.316406 C 69.351562 77.441406 69.132812 77.871094 68.8125 77.988281 C 68.542969 78.085938 68.125 77.972656 67.828125 77.972656 C 67.582031 77.972656 67.59375 77.988281 67.433594 77.789062 C 67.277344 77.597656 66.992188 77.386719 66.910156 77.160156 C 66.855469 76.996094 66.914062 76.871094 66.949219 76.6875 C 67.007812 76.394531 67.027344 76.09375 67.035156 75.796875 C 67.042969 75.460938 66.949219 75.347656 66.730469 75.089844 C 66.515625 74.84375 66.523438 74.636719 66.496094 74.316406 C 66.480469 74.117188 66.445312 73.980469 66.546875 73.804688 C 66.660156 73.613281 66.847656 73.476562 66.960938 73.285156 C 67.023438 73.183594 67.039062 73.09375 67.242188 72.960938 Z M 67.242188 72.960938 " clip-rule="nonzero"/></clipPath><clipPath id="ef085375af"><path d="M 71 70.238281 L 74.878906 70.238281 L 74.878906 76 L 71 76 Z M 71 70.238281 " clip-rule="nonzero"/></clipPath><clipPath id="912b3bca8a"><path d="M 72 70.378906 L 74.851562 70.378906 L 74.851562 75.269531 L 72 75.269531 Z M 72 70.378906 " clip-rule="nonzero"/></clipPath><clipPath id="129d9cf041"><path d="M 73.335938 70.527344 C 73.25 70.578125 73.167969 70.640625 73.101562 70.695312 C 72.816406 70.9375 72.699219 71.292969 72.664062 71.648438 C 72.617188 72.117188 72.472656 72.371094 72.164062 72.75 C 71.921875 73.042969 71.644531 73.160156 71.574219 73.542969 C 71.527344 73.808594 71.28125 74.628906 71.449219 74.816406 C 71.5 74.871094 71.722656 74.945312 71.796875 74.996094 C 71.855469 75.039062 72.046875 75.25 72.121094 75.257812 C 72.230469 75.273438 72.277344 75.207031 72.382812 75.144531 C 72.691406 74.972656 73.132812 74.960938 73.363281 74.734375 C 73.617188 74.484375 73.898438 74.097656 73.777344 73.761719 C 73.648438 73.398438 73.554688 73.203125 73.769531 72.828125 C 73.894531 72.617188 74.148438 72.566406 74.308594 72.390625 C 74.480469 72.203125 74.605469 71.96875 74.773438 71.777344 C 74.820312 71.722656 74.839844 71.65625 74.824219 71.585938 C 74.785156 71.425781 74.785156 71.253906 74.6875 71.113281 C 74.574219 70.945312 74.363281 70.804688 74.210938 70.671875 C 74.023438 70.5 73.882812 70.355469 73.625 70.40625 C 73.53125 70.425781 73.429688 70.472656 73.335938 70.527344 Z M 73.335938 70.527344 " clip-rule="nonzero"/></clipPath><clipPath id="e4755e9283"><path d="M 71.375 73 L 73 73 L 73 75 L 71.375 75 Z M 71.375 73 " clip-rule="nonzero"/></clipPath><clipPath id="0c6e704edf"><path d="M 73.335938 70.527344 C 73.25 70.578125 73.167969 70.640625 73.101562 70.695312 C 72.816406 70.9375 72.699219 71.292969 72.664062 71.648438 C 72.617188 72.117188 72.472656 72.371094 72.164062 72.75 C 71.921875 73.042969 71.644531 73.160156 71.574219 73.542969 C 71.527344 73.808594 71.28125 74.628906 71.449219 74.816406 C 71.5 74.871094 71.722656 74.945312 71.796875 74.996094 C 71.855469 75.039062 72.046875 75.25 72.121094 75.257812 C 72.230469 75.273438 72.277344 75.207031 72.382812 75.144531 C 72.691406 74.972656 73.132812 74.960938 73.363281 74.734375 C 73.617188 74.484375 73.898438 74.097656 73.777344 73.761719 C 73.648438 73.398438 73.554688 73.203125 73.769531 72.828125 C 73.894531 72.617188 74.148438 72.566406 74.308594 72.390625 C 74.480469 72.203125 74.605469 71.96875 74.773438 71.777344 C 74.820312 71.722656 74.839844 71.65625 74.824219 71.585938 C 74.785156 71.425781 74.785156 71.253906 74.6875 71.113281 C 74.574219 70.945312 74.363281 70.804688 74.210938 70.671875 C 74.023438 70.5 73.882812 70.355469 73.625 70.40625 C 73.53125 70.425781 73.429688 70.472656 73.335938 70.527344 Z M 73.335938 70.527344 " clip-rule="nonzero"/></clipPath><clipPath id="5444472719"><path d="M 71 76 L 74.878906 76 L 74.878906 80 L 71 80 Z M 71 76 " clip-rule="nonzero"/></clipPath><clipPath id="805bcf2f02"><path d="M 71.078125 76.582031 L 74.464844 76.582031 L 74.464844 79.472656 L 71.078125 79.472656 Z M 71.078125 76.582031 " clip-rule="nonzero"/></clipPath><clipPath id="c60d792155"><path d="M 73.457031 76.589844 C 73.179688 76.625 73.042969 76.582031 72.875 76.824219 C 72.753906 76.988281 72.710938 77.132812 72.546875 77.265625 C 72.417969 77.367188 72.253906 77.398438 72.128906 77.488281 C 71.917969 77.636719 71.765625 77.886719 71.609375 78.089844 C 71.484375 78.25 71.171875 78.4375 71.101562 78.613281 C 71.019531 78.820312 71.21875 78.964844 71.332031 79.121094 C 71.5 79.359375 71.628906 79.496094 71.941406 79.457031 C 72.183594 79.425781 72.386719 79.257812 72.617188 79.214844 C 72.753906 79.1875 72.917969 79.257812 73.046875 79.179688 C 73.214844 79.074219 73.296875 78.710938 73.476562 78.5625 C 73.648438 78.421875 73.890625 78.410156 74.082031 78.300781 C 74.347656 78.15625 74.492188 77.78125 74.457031 77.480469 C 74.445312 77.382812 74.40625 77.238281 74.328125 77.175781 C 74.207031 77.085938 74.082031 77.203125 73.949219 77.144531 C 73.808594 77.085938 73.792969 76.875 73.71875 76.777344 C 73.640625 76.679688 73.605469 76.636719 73.457031 76.589844 Z M 73.457031 76.589844 " clip-rule="nonzero"/></clipPath><clipPath id="48aabdcc2b"><path d="M 71.078125 77 L 73 77 L 73 79 L 71.078125 79 Z M 71.078125 77 " clip-rule="nonzero"/></clipPath><clipPath id="d8d9ec14f6"><path d="M 73.457031 76.589844 C 73.179688 76.625 73.042969 76.582031 72.875 76.824219 C 72.753906 76.988281 72.710938 77.132812 72.546875 77.265625 C 72.417969 77.367188 72.253906 77.398438 72.128906 77.488281 C 71.917969 77.636719 71.765625 77.886719 71.609375 78.089844 C 71.484375 78.25 71.171875 78.4375 71.101562 78.613281 C 71.019531 78.820312 71.21875 78.964844 71.332031 79.121094 C 71.5 79.359375 71.628906 79.496094 71.941406 79.457031 C 72.183594 79.425781 72.386719 79.257812 72.617188 79.214844 C 72.753906 79.1875 72.917969 79.257812 73.046875 79.179688 C 73.214844 79.074219 73.296875 78.710938 73.476562 78.5625 C 73.648438 78.421875 73.890625 78.410156 74.082031 78.300781 C 74.347656 78.15625 74.492188 77.78125 74.457031 77.480469 C 74.445312 77.382812 74.40625 77.238281 74.328125 77.175781 C 74.207031 77.085938 74.082031 77.203125 73.949219 77.144531 C 73.808594 77.085938 73.792969 76.875 73.71875 76.777344 C 73.640625 76.679688 73.605469 76.636719 73.457031 76.589844 Z M 73.457031 76.589844 " clip-rule="nonzero"/></clipPath><clipPath id="db87e19d40"><path d="M 66 79 L 69 79 L 69 82.207031 L 66 82.207031 Z M 66 79 " clip-rule="nonzero"/></clipPath><clipPath id="6ec854a290"><path d="M 72 70.238281 L 74.878906 70.238281 L 74.878906 76 L 72 76 Z M 72 70.238281 " clip-rule="nonzero"/></clipPath><clipPath id="c8f2f95424"><path d="M 72 76 L 74.878906 76 L 74.878906 80 L 72 80 Z M 72 76 " clip-rule="nonzero"/></clipPath><clipPath id="560f880b48"><rect x="0" width="131" y="0" height="152"/></clipPath></defs><g transform="matrix(1, 0, 0, 1, 83, 133)"><g clip-path="url(#560f880b48)"><g clip-path="url(#57a27d9765)"><path fill="#ec5409" d="M 52.667969 109.109375 C 33.304688 126.648438 53.34375 142.445312 52.78125 148.519531 C 52.46875 151.878906 27 151.945312 26.773438 148.851562 C 26.550781 145.757812 30.828125 143.328125 40.058594 143.769531 C 25.875 127.863281 40.507812 105.996094 40.507812 105.996094 C 40.507812 105.996094 68.644531 94.636719 52.667969 109.109375 Z M 78.28125 109.109375 C 97.644531 126.648438 77.605469 142.445312 78.167969 148.519531 C 78.480469 151.878906 103.949219 151.945312 104.175781 148.851562 C 104.398438 145.757812 100.121094 143.328125 90.890625 143.769531 C 105.074219 127.863281 90.441406 105.996094 90.441406 105.996094 C 90.441406 105.996094 62.304688 94.636719 78.28125 109.109375 Z M 90.8125 38.886719 C 90.8125 38.886719 99.726562 34.820312 107.605469 19.570312 C 115.480469 4.320312 122.097656 0.539062 126.136719 2.207031 C 131.523438 4.425781 129.117188 18.355469 118.054688 34.21875 C 106.988281 50.085938 98.628906 53.65625 98.628906 53.65625 Z M 32.316406 53.65625 C 32.316406 53.65625 23.960938 50.085938 12.894531 34.21875 C 1.832031 18.355469 -0.574219 4.425781 4.808594 2.207031 C 8.851562 0.539062 15.46875 4.320312 23.34375 19.570312 C 31.222656 34.820312 40.136719 38.886719 40.136719 38.886719 Z M 32.316406 53.65625 " fill-opacity="1" fill-rule="nonzero"/></g><g clip-path="url(#3b43fbb3c7)"><path fill="#ff7b2c" d="M 112.894531 100.15625 C 118.128906 116.027344 98.542969 117.546875 95.0625 108.382812 C 96.347656 119.40625 79.160156 120.621094 76.757812 110.117188 C 75.492188 116.789062 68.808594 118.476562 65.613281 118.476562 C 62.417969 118.476562 56.242188 117.039062 54.46875 110.117188 C 52.066406 120.621094 34.882812 119.40625 36.164062 108.382812 C 32.6875 117.546875 13.097656 116.027344 18.332031 100.15625 C 2.542969 105.980469 -2.664062 83.519531 9.71875 77.695312 C -5.421875 75.726562 -0.0742188 52.027344 12.761719 55.40625 C 1.53125 47.300781 12.011719 29.929688 23.664062 35.082031 C 13.613281 23.769531 32.449219 10.511719 39.28125 18.300781 C 34.992188 5.816406 55.03125 1.085938 57.339844 11.214844 C 55.988281 3.785156 61.222656 0.777344 65.613281 0.777344 C 70.003906 0.777344 75.238281 3.785156 73.886719 11.214844 C 76.195312 1.085938 96.234375 5.816406 91.949219 18.300781 C 98.777344 10.511719 117.613281 23.769531 107.566406 35.082031 C 119.21875 29.929688 129.699219 47.300781 118.46875 55.40625 C 131.300781 52.027344 136.648438 75.726562 121.507812 77.695312 C 133.890625 83.519531 128.683594 105.980469 112.894531 100.15625 Z M 112.894531 100.15625 C 118.128906 116.027344 98.542969 117.546875 95.0625 108.382812 C 96.347656 119.40625 79.160156 120.621094 76.757812 110.117188 C 75.492188 116.789062 68.808594 118.476562 65.613281 118.476562 C 62.417969 118.476562 56.242188 117.039062 54.46875 110.117188 C 52.066406 120.621094 34.882812 119.40625 36.164062 108.382812 C 32.6875 117.546875 13.097656 116.027344 18.332031 100.15625 C 2.542969 105.980469 -2.664062 83.519531 9.71875 77.695312 C -5.421875 75.726562 -0.0742188 52.027344 12.761719 55.40625 C 1.53125 47.300781 12.011719 29.929688 23.664062 35.082031 C 13.613281 23.769531 32.449219 10.511719 39.28125 18.300781 C 34.992188 5.816406 55.03125 1.085938 57.339844 11.214844 C 55.988281 3.785156 61.222656 0.777344 65.613281 0.777344 C 70.003906 0.777344 75.238281 3.785156 73.886719 11.214844 C 76.195312 1.085938 96.234375 5.816406 91.949219 18.300781 C 98.777344 10.511719 117.613281 23.769531 107.566406 35.082031 C 119.21875 29.929688 129.699219 47.300781 118.46875 55.40625 C 131.300781 52.027344 136.648438 75.726562 121.507812 77.695312 C 133.890625 83.519531 128.683594 105.980469 112.894531 100.15625 Z M 112.894531 100.15625 " fill-opacity="1" fill-rule="nonzero"/></g><path fill="#ffffff" d="M 73.492188 53.078125 C 73.492188 67.039062 80.699219 70.34375 87.621094 70.941406 C 94.457031 71.535156 104.300781 68.574219 104.765625 55.5625 C 105.226562 42.550781 97.816406 35.214844 89.242188 35.214844 C 81.601562 35.214844 73.492188 38.527344 73.492188 53.078125 Z M 26.164062 53.078125 C 26.164062 67.039062 33.703125 70.34375 40.945312 70.941406 C 48.09375 71.535156 58.394531 68.574219 58.878906 55.5625 C 59.363281 42.550781 51.609375 35.214844 42.640625 35.214844 C 34.644531 35.214844 26.164062 38.527344 26.164062 53.078125 Z M 26.164062 53.078125 " fill-opacity="1" fill-rule="nonzero"/><path fill="#0e0f1a" d="M 86.589844 41.316406 C 91.726562 41.316406 96.167969 46.152344 95.890625 54.726562 C 95.613281 63.304688 89.714844 65.253906 85.617188 64.863281 C 81.46875 64.46875 77.148438 62.292969 77.148438 53.089844 C 77.148438 43.5 82.007812 41.316406 86.589844 41.316406 Z M 44.359375 65.453125 C 39.222656 65.453125 34.78125 60.617188 35.058594 52.039062 C 35.335938 43.464844 41.234375 41.515625 45.332031 41.902344 C 49.480469 42.296875 53.800781 44.476562 53.800781 53.679688 C 53.800781 63.269531 48.941406 65.453125 44.359375 65.453125 Z M 44.359375 65.453125 " fill-opacity="1" fill-rule="nonzero"/><path fill="#c83340" d="M 35.226562 117.941406 C 38.425781 118.917969 41.609375 119.941406 44.8125 120.910156 C 44.609375 121.683594 44.457031 122.445312 44.363281 123.203125 C 41.121094 122.226562 37.898438 121.191406 34.664062 120.199219 C 34.832031 119.425781 35.019531 118.671875 35.226562 117.941406 Z M 44.320312 127.480469 C 40.839844 127.460938 37.355469 127.4375 33.871094 127.417969 C 33.875 128.1875 33.910156 128.964844 33.980469 129.746094 C 37.554688 129.765625 41.128906 129.785156 44.699219 129.808594 C 44.53125 129.042969 44.40625 128.269531 44.320312 127.480469 Z M 47.019531 136.289062 C 43.230469 136.628906 39.429688 136.652344 35.628906 136.691406 C 35.941406 137.46875 36.300781 138.242188 36.710938 139.007812 C 40.53125 138.96875 44.347656 138.914062 48.152344 138.503906 C 47.765625 137.789062 47.386719 137.050781 47.019531 136.289062 Z M 95.714844 117.910156 C 92.515625 118.890625 89.328125 119.910156 86.128906 120.878906 C 86.335938 121.652344 86.484375 122.417969 86.582031 123.171875 C 89.820312 122.195312 93.042969 121.160156 96.277344 120.171875 C 96.109375 119.398438 95.921875 118.644531 95.714844 117.910156 Z M 97.078125 127.417969 C 93.59375 127.4375 90.109375 127.457031 86.628906 127.476562 C 86.542969 128.265625 86.417969 129.042969 86.25 129.804688 C 89.820312 129.785156 93.394531 129.765625 96.96875 129.746094 C 97.039062 128.964844 97.074219 128.1875 97.078125 127.417969 Z M 95.320312 136.695312 C 91.515625 136.652344 87.714844 136.632812 83.921875 136.296875 C 83.558594 137.058594 83.175781 137.796875 82.792969 138.511719 C 86.597656 138.917969 90.414062 138.96875 94.234375 139.007812 C 94.648438 138.242188 95.007812 137.46875 95.320312 136.695312 Z M 52.425781 75.5625 C 53.027344 75.914062 53.359375 77.199219 53.539062 78.351562 C 54.707031 77.222656 56.683594 75.507812 57.21875 76.261719 C 57.78125 77.054688 57.128906 79.28125 56.726562 80.445312 C 57.742188 80.199219 59.03125 80.019531 59.632812 80.476562 C 60.496094 81.132812 57.898438 83.65625 56.886719 84.585938 C 56.828125 84.960938 56.734375 85.332031 56.605469 85.6875 C 55.980469 87.464844 53.347656 91.871094 52.441406 93.519531 C 52.199219 93.960938 51.539062 94.03125 51.148438 93.769531 C 50.707031 93.472656 50.65625 92.917969 50.898438 92.480469 C 51.3125 91.726562 53.25 88.242188 53.660156 87.488281 C 54.117188 86.644531 54.617188 85.8125 54.914062 84.890625 C 55.414062 83.332031 55 81.523438 53.300781 80.976562 C 51.476562 80.386719 49.898438 81.5625 48.710938 82.835938 C 47.210938 84.4375 45.84375 86.1875 44.425781 87.859375 C 42.96875 89.582031 43.808594 88.558594 42.351562 90.28125 C 42.023438 90.664062 41.511719 90.835938 41.058594 90.53125 C 40.675781 90.273438 40.484375 89.621094 40.808594 89.238281 C 42.734375 86.964844 42.363281 87.433594 44.292969 85.15625 C 45.117188 84.183594 45.9375 83.199219 46.773438 82.230469 C 47.570312 81.316406 48.394531 80.445312 49.429688 79.800781 C 49.507812 79.753906 49.585938 79.710938 49.664062 79.667969 C 50.132812 78.386719 51.484375 75.011719 52.425781 75.5625 Z M 81.285156 79.667969 C 81.363281 79.710938 81.441406 79.753906 81.519531 79.800781 C 82.554688 80.449219 83.378906 81.316406 84.175781 82.230469 C 85.011719 83.199219 85.832031 84.183594 86.65625 85.15625 C 88.585938 87.433594 88.214844 86.964844 90.140625 89.238281 C 90.464844 89.621094 90.273438 90.273438 89.890625 90.53125 C 89.4375 90.835938 88.925781 90.664062 88.597656 90.28125 C 87.140625 88.558594 87.980469 89.582031 86.523438 87.859375 C 85.105469 86.1875 83.738281 84.4375 82.238281 82.835938 C 81.050781 81.5625 79.472656 80.386719 77.648438 80.976562 C 75.949219 81.523438 75.535156 83.332031 76.035156 84.890625 C 76.332031 85.8125 76.832031 86.644531 77.289062 87.488281 C 77.699219 88.242188 79.636719 91.726562 80.050781 92.480469 C 80.292969 92.917969 80.242188 93.472656 79.800781 93.769531 C 79.410156 94.03125 78.75 93.960938 78.507812 93.519531 C 77.601562 91.871094 74.96875 87.464844 74.34375 85.6875 C 74.214844 85.332031 74.121094 84.960938 74.0625 84.585938 C 73.050781 83.65625 70.453125 81.132812 71.316406 80.476562 C 71.917969 80.019531 73.207031 80.199219 74.222656 80.445312 C 73.820312 79.28125 73.167969 77.054688 73.730469 76.261719 C 74.265625 75.507812 76.242188 77.222656 77.410156 78.351562 C 77.589844 77.199219 77.921875 75.914062 78.523438 75.5625 C 79.464844 75.011719 80.816406 78.386719 81.285156 79.667969 Z M 70.082031 67.917969 C 69.21875 69.640625 67.449219 70.847656 65.496094 70.859375 C 63.542969 70.867188 61.753906 69.691406 60.871094 67.976562 C 60.324219 66.910156 58.71875 67.851562 59.265625 68.914062 C 60.441406 71.195312 62.921875 72.730469 65.496094 72.71875 C 68.066406 72.707031 70.539062 71.148438 71.6875 68.855469 C 72.222656 67.789062 70.617188 66.847656 70.082031 67.917969 Z M 107.566406 35.082031 C 108.902344 34.488281 110.226562 34.199219 111.503906 34.152344 C 114.980469 28.722656 123.851562 14.242188 120.902344 12.179688 C 118.867188 10.753906 113.878906 18.128906 109.878906 24.902344 C 111 28.046875 110.609375 31.652344 107.566406 35.082031 Z M 23.664062 35.082031 C 20.933594 32.007812 20.339844 28.796875 21.050781 25.898438 C 16.964844 18.875 11.578125 10.683594 9.441406 12.179688 C 6.492188 14.246094 15.371094 28.730469 18.847656 34.160156 C 20.390625 34.074219 22.015625 34.351562 23.664062 35.082031 Z M 23.664062 35.082031 " fill-opacity="1" fill-rule="nonzero"/><g mask="url(#8e87a21d60)"><g transform="matrix(1, 0, 0, 1, 7, 13)"><g clip-path="url(#0050df0f0d)"><g clip-path="url(#a75911f14b)"><path fill="#c83340" d="M 13.300781 74.554688 C 15.449219 77.097656 15.027344 81.222656 10.867188 84.503906 C 6.707031 87.78125 3.320312 85.636719 1.789062 83.453125 C 0.242188 81.242188 -0.539062 78.234375 3.796875 74.570312 C 8.320312 70.75 11.382812 72.285156 13.300781 74.554688 Z M 25.773438 90.199219 C 24.613281 91.847656 22.113281 92.671875 19.554688 90.734375 C 16.996094 88.796875 17.757812 86.039062 18.800781 84.808594 C 19.863281 83.5625 22.179688 82.421875 24.988281 84.40625 C 27.917969 86.472656 26.8125 88.730469 25.773438 90.199219 Z M 24.460938 73.636719 C 23.835938 74.515625 22.503906 74.957031 21.136719 73.921875 C 19.773438 72.886719 20.175781 71.414062 20.734375 70.757812 C 21.300781 70.089844 22.539062 69.480469 24.039062 70.542969 C 25.601562 71.644531 25.011719 72.851562 24.460938 73.636719 Z M 96.097656 14.59375 C 94.949219 16.222656 92.476562 17.039062 89.953125 15.121094 C 87.425781 13.207031 88.171875 10.480469 89.207031 9.265625 C 90.257812 8.035156 92.542969 6.90625 95.320312 8.867188 C 98.214844 10.910156 97.125 13.140625 96.097656 14.59375 Z M 78.027344 14.761719 C 77.269531 15.835938 75.636719 16.375 73.96875 15.109375 C 72.296875 13.84375 72.792969 12.042969 73.476562 11.242188 C 74.167969 10.429688 75.679688 9.683594 77.515625 10.976562 C 79.425781 12.328125 78.707031 13.800781 78.027344 14.761719 Z M 108.042969 39.03125 C 107.28125 40.105469 105.652344 40.644531 103.980469 39.378906 C 102.3125 38.113281 102.808594 36.3125 103.492188 35.511719 C 104.183594 34.699219 105.695312 33.953125 107.527344 35.246094 C 109.441406 36.597656 108.71875 38.070312 108.042969 39.03125 Z M 56.898438 13.605469 C 54.75 16.644531 50.136719 18.171875 45.417969 14.59375 C 40.699219 11.015625 42.097656 5.925781 44.03125 3.65625 C 45.988281 1.355469 50.257812 -0.75 55.445312 2.914062 C 60.851562 6.730469 58.8125 10.894531 56.898438 13.605469 Z M 56.898438 13.605469 " fill-opacity="1" fill-rule="nonzero"/></g></g></g></g><path fill="#ec5409" d="M 76.746094 65.609375 C 76.746094 65.609375 88.953125 54.601562 102.636719 63.9375 C 100.421875 71.011719 84.25 75.792969 76.746094 65.609375 Z M 55.648438 65.609375 C 55.648438 65.609375 43.480469 55.074219 28.726562 64.367188 C 30.941406 71.445312 48.144531 75.792969 55.648438 65.609375 Z M 55.648438 65.609375 " fill-opacity="1" fill-rule="nonzero"/><path fill="#f8b854" d="M 62.175781 73.921875 C 62.078125 74.101562 61.839844 74.347656 61.808594 74.554688 C 61.773438 74.777344 62.050781 75.097656 62.128906 75.339844 C 62.257812 75.746094 62.402344 76.074219 62.898438 76.078125 C 63.148438 76.078125 63.386719 75.871094 63.621094 75.789062 C 63.835938 75.714844 63.929688 75.734375 63.949219 75.464844 C 63.964844 75.257812 63.9375 74.871094 63.828125 74.699219 C 63.71875 74.53125 63.464844 74.390625 63.320312 74.242188 C 63.160156 74.082031 63.050781 73.851562 62.835938 73.78125 C 62.679688 73.730469 62.328125 73.699219 62.175781 73.921875 Z M 62.175781 73.921875 " fill-opacity="1" fill-rule="nonzero"/><g clip-path="url(#5da23b45c4)"><g clip-path="url(#9857903bb6)"><path fill="#e4a15a" d="M 61.980469 73.714844 C 62.261719 73.773438 62.492188 73.765625 62.664062 74.015625 C 62.820312 74.238281 62.765625 74.453125 62.992188 74.625 C 63.152344 74.742188 63.375 74.742188 63.492188 74.941406 C 63.664062 75.238281 63.355469 75.390625 63.144531 75.570312 C 62.941406 75.742188 62.710938 76.148438 62.417969 76.027344 C 62.703125 76.160156 62.980469 76.304688 63.308594 76.285156 C 63.679688 76.261719 64.199219 75.972656 64.351562 75.625 C 64.460938 75.378906 64.304688 75.058594 64.199219 74.839844 C 64.101562 74.632812 64.066406 74.390625 63.917969 74.214844 C 63.828125 74.105469 63.699219 74.0625 63.570312 74 C 63.378906 73.90625 63.246094 73.8125 63.066406 73.699219 C 62.90625 73.597656 62.65625 73.496094 62.464844 73.515625 C 62.351562 73.527344 62.183594 73.632812 61.980469 73.714844 Z M 61.980469 73.714844 " fill-opacity="1" fill-rule="nonzero"/></g></g><g clip-path="url(#866ea150d2)"><g clip-path="url(#90978a7bb8)"><path fill="#ffdcac" d="M 62.304688 75.109375 C 62.605469 75.152344 62.554688 73.957031 62.15625 74.28125 C 62.0625 74.355469 62.019531 74.546875 61.980469 74.65625 C 62.0625 74.816406 62.242188 74.933594 62.304688 75.109375 Z M 62.304688 75.109375 " fill-opacity="1" fill-rule="nonzero"/></g></g><g clip-path="url(#ec52d6ef43)"><path fill="#f8b854" d="M 57.644531 76.027344 C 57.90625 76.078125 58.136719 76.085938 58.390625 76.203125 C 58.734375 76.363281 58.992188 76.542969 59.390625 76.519531 C 59.609375 76.507812 59.875 76.417969 60.097656 76.476562 C 60.359375 76.550781 60.628906 76.832031 60.832031 77 C 61.152344 77.261719 61.335938 77.597656 61.660156 77.847656 C 61.929688 78.058594 62.144531 78.121094 62.484375 78.136719 C 62.636719 78.144531 62.84375 78.097656 62.992188 78.136719 C 63.183594 78.183594 63.382812 78.308594 63.582031 78.371094 C 63.820312 78.445312 64.125 78.488281 64.320312 78.644531 C 64.457031 78.757812 64.539062 78.929688 64.628906 79.074219 C 64.675781 79.15625 64.832031 79.324219 64.835938 79.410156 C 64.855469 79.691406 64.339844 80.042969 64.15625 80.1875 C 63.792969 80.464844 63.324219 81.003906 62.839844 81.015625 C 62.585938 81.019531 62.34375 80.933594 62.082031 80.953125 C 61.710938 80.980469 61.332031 81.046875 60.960938 81.097656 C 60.554688 81.15625 60.140625 81.078125 59.761719 80.898438 C 59.480469 80.769531 59.390625 80.425781 59.089844 80.316406 C 58.769531 80.195312 58.363281 80.28125 58.066406 80.152344 C 57.769531 80.023438 57.492188 79.761719 57.222656 79.585938 C 57.027344 79.457031 56.855469 79.410156 56.761719 79.199219 C 56.640625 78.929688 56.625 78.617188 56.5 78.34375 C 56.410156 78.148438 56.25 77.945312 56.21875 77.726562 C 56.175781 77.40625 56.488281 76.703125 56.757812 76.472656 C 56.921875 76.332031 57.363281 76.054688 57.644531 76.027344 Z M 57.644531 76.027344 " fill-opacity="1" fill-rule="nonzero"/></g><g clip-path="url(#00728148b7)"><g clip-path="url(#bdfc814fdb)"><path fill="#e4a15a" d="M 59.164062 76.339844 C 59.316406 76.460938 59.726562 76.515625 59.953125 76.632812 C 60.226562 76.773438 60.382812 76.929688 60.53125 77.199219 C 60.878906 77.824219 61.175781 78.320312 61.898438 78.515625 C 62.550781 78.695312 63.390625 78.636719 63.699219 79.394531 C 63.832031 79.726562 63.558594 79.941406 63.292969 80.171875 C 62.890625 80.519531 62.644531 80.566406 62.105469 80.566406 C 61.460938 80.5625 60.839844 80.921875 60.210938 80.878906 C 59.679688 80.84375 59.28125 80.316406 58.710938 80.570312 C 59.011719 80.792969 59.324219 81.078125 59.683594 81.222656 C 60.222656 81.4375 60.878906 81.347656 61.441406 81.394531 C 62.535156 81.484375 63.851562 81.539062 64.550781 80.515625 C 64.746094 80.230469 64.910156 79.984375 65.15625 79.742188 C 65.332031 79.566406 65.488281 79.5 65.476562 79.242188 C 65.457031 78.726562 64.722656 78.207031 64.300781 78.050781 C 63.777344 77.859375 63.179688 77.894531 62.671875 77.683594 C 62.175781 77.476562 61.761719 77.109375 61.421875 76.699219 C 61.027344 76.21875 60.761719 75.785156 60.058594 75.914062 C 59.761719 75.96875 59.421875 76.316406 59.164062 76.339844 Z M 59.164062 76.339844 " fill-opacity="1" fill-rule="nonzero"/></g></g><g clip-path="url(#1270b7c808)"><g clip-path="url(#157bf33733)"><path fill="#ffdcac" d="M 58.226562 76.652344 C 57.660156 76.34375 56.949219 76.5625 56.664062 77.15625 C 56.539062 77.410156 56.542969 77.691406 56.667969 77.9375 C 56.808594 78.226562 56.894531 78.507812 57.03125 78.792969 C 57.144531 79.03125 57.644531 79.371094 57.625 78.859375 C 57.363281 78.726562 57.3125 78.585938 57.257812 78.3125 C 57.207031 78.046875 57.023438 77.859375 56.976562 77.609375 C 56.925781 77.363281 57.179688 76.980469 57.386719 76.867188 C 57.511719 76.796875 58.027344 76.722656 58.226562 76.652344 Z M 58.226562 76.652344 " fill-opacity="1" fill-rule="nonzero"/></g></g><g clip-path="url(#6f352b7d47)"><path fill="#f8b854" d="M 67.125 79.941406 C 67.382812 79.847656 67.601562 79.773438 67.820312 79.941406 C 68.027344 80.097656 68.261719 80.261719 68.457031 80.433594 C 68.746094 80.683594 68.84375 81.003906 68.761719 81.394531 C 68.679688 81.785156 68.0625 82.058594 67.6875 82.074219 C 67.371094 82.085938 66.914062 82.03125 66.664062 81.832031 C 66.519531 81.71875 66.445312 81.402344 66.425781 81.207031 C 66.394531 80.949219 66.550781 80.6875 66.710938 80.503906 C 66.835938 80.359375 66.941406 80.101562 67.125 79.941406 Z M 67.125 79.941406 " fill-opacity="1" fill-rule="nonzero"/></g><g clip-path="url(#e2aaed066c)"><g clip-path="url(#830614d8cb)"><path fill="#e4a15a" d="M 67.503906 79.679688 C 67.691406 79.460938 67.867188 80.027344 67.902344 80.152344 C 67.972656 80.398438 68.121094 80.449219 68.25 80.648438 C 68.375 80.847656 68.335938 81.0625 68.199219 81.25 C 68.007812 81.511719 67.847656 81.445312 67.558594 81.507812 C 67.390625 81.542969 67.105469 81.703125 67.074219 81.90625 C 67.027344 82.214844 67.660156 82.113281 67.917969 82.148438 C 68.136719 82.183594 68.515625 82.304688 68.71875 82.214844 C 69.089844 82.050781 69.289062 81.402344 69.199219 81.050781 C 69.066406 80.558594 68.648438 80.476562 68.386719 80.09375 C 68.160156 79.765625 68.121094 79.566406 67.503906 79.679688 Z M 67.503906 79.679688 " fill-opacity="1" fill-rule="nonzero"/></g></g><g clip-path="url(#4ae6c37977)"><g clip-path="url(#c1f9f0d4c1)"><path fill="#ffdcac" d="M 67.363281 80.222656 C 67.085938 80.132812 66.789062 80.777344 66.796875 80.996094 C 66.800781 81.15625 66.898438 81.441406 67.085938 81.21875 C 67.140625 81.148438 67.113281 81.023438 67.140625 80.941406 C 67.167969 80.84375 67.214844 80.761719 67.28125 80.683594 C 67.371094 80.574219 67.613281 80.367188 67.363281 80.222656 Z M 67.363281 80.222656 " fill-opacity="1" fill-rule="nonzero"/></g></g><path fill="#f8b854" d="M 67.242188 72.960938 C 67.542969 72.757812 68.160156 72.566406 68.503906 72.683594 C 68.738281 72.761719 69.050781 72.988281 69.25 73.144531 C 69.492188 73.335938 69.4375 73.570312 69.4375 73.859375 C 69.4375 74.179688 69.4375 74.386719 69.554688 74.664062 C 69.683594 74.960938 69.933594 75.246094 70.023438 75.554688 C 70.105469 75.835938 69.953125 76.195312 69.898438 76.492188 C 69.859375 76.714844 69.84375 76.957031 69.792969 77.179688 C 69.777344 77.242188 69.734375 77.292969 69.671875 77.316406 C 69.351562 77.441406 69.132812 77.871094 68.8125 77.988281 C 68.542969 78.085938 68.125 77.972656 67.828125 77.972656 C 67.582031 77.972656 67.59375 77.988281 67.433594 77.789062 C 67.277344 77.597656 66.992188 77.386719 66.910156 77.160156 C 66.855469 76.996094 66.914062 76.871094 66.949219 76.6875 C 67.007812 76.394531 67.027344 76.09375 67.035156 75.796875 C 67.042969 75.460938 66.949219 75.347656 66.730469 75.089844 C 66.515625 74.84375 66.523438 74.636719 66.496094 74.316406 C 66.480469 74.117188 66.445312 73.980469 66.546875 73.804688 C 66.660156 73.613281 66.847656 73.476562 66.960938 73.285156 C 67.023438 73.183594 67.039062 73.09375 67.242188 72.960938 Z M 67.242188 72.960938 " fill-opacity="1" fill-rule="nonzero"/><g clip-path="url(#2abe8ed47a)"><g clip-path="url(#774a8814d2)"><path fill="#e4a15a" d="M 67.417969 72.800781 C 67.816406 72.570312 68.3125 72.667969 68.585938 73.046875 C 68.832031 73.386719 68.78125 73.878906 68.785156 74.285156 C 68.789062 74.714844 69.097656 74.953125 69.234375 75.339844 C 69.320312 75.597656 69.34375 75.710938 69.320312 75.976562 C 69.296875 76.207031 69.367188 76.402344 69.351562 76.625 C 69.308594 77.261719 68.683594 77.679688 68.894531 78.359375 C 69.128906 78.121094 69.300781 77.945312 69.609375 77.789062 C 69.867188 77.65625 70.050781 77.589844 70.191406 77.328125 C 70.4375 76.867188 70.40625 76.132812 70.40625 75.625 C 70.410156 75.21875 70.207031 75.066406 70.015625 74.742188 C 69.824219 74.417969 69.832031 74.085938 69.78125 73.722656 C 69.652344 72.855469 69.265625 72.429688 68.382812 72.289062 C 68.140625 72.253906 67.519531 72.359375 67.417969 72.800781 Z M 67.417969 72.800781 " fill-opacity="1" fill-rule="nonzero"/></g></g><g clip-path="url(#c1c6c14de7)"><g clip-path="url(#55db492edf)"><path fill="#ffdcac" d="M 67.675781 73.292969 C 67.390625 73.199219 67.222656 73.390625 67.082031 73.609375 C 66.914062 73.871094 66.824219 74.027344 66.945312 74.339844 C 67.015625 74.523438 67.21875 74.832031 67.382812 74.597656 C 67.535156 74.382812 67.3125 74.128906 67.382812 73.882812 C 67.40625 73.800781 67.945312 73.34375 67.675781 73.292969 Z M 67.675781 73.292969 " fill-opacity="1" fill-rule="nonzero"/></g></g><g clip-path="url(#ef085375af)"><path fill="#f8b854" d="M 73.335938 70.527344 C 73.25 70.578125 73.167969 70.640625 73.101562 70.695312 C 72.816406 70.9375 72.699219 71.292969 72.664062 71.648438 C 72.617188 72.117188 72.472656 72.371094 72.164062 72.75 C 71.921875 73.042969 71.644531 73.160156 71.574219 73.542969 C 71.527344 73.808594 71.28125 74.628906 71.449219 74.816406 C 71.5 74.871094 71.722656 74.945312 71.796875 74.996094 C 71.855469 75.039062 72.046875 75.25 72.121094 75.257812 C 72.230469 75.273438 72.277344 75.207031 72.382812 75.144531 C 72.691406 74.972656 73.132812 74.960938 73.363281 74.734375 C 73.617188 74.484375 73.898438 74.097656 73.777344 73.761719 C 73.648438 73.398438 73.554688 73.203125 73.769531 72.828125 C 73.894531 72.617188 74.148438 72.566406 74.308594 72.390625 C 74.480469 72.203125 74.605469 71.96875 74.773438 71.777344 C 74.820312 71.722656 74.839844 71.65625 74.824219 71.585938 C 74.785156 71.425781 74.785156 71.253906 74.6875 71.113281 C 74.574219 70.945312 74.363281 70.804688 74.210938 70.671875 C 74.023438 70.5 73.882812 70.355469 73.625 70.40625 C 73.53125 70.425781 73.429688 70.472656 73.335938 70.527344 Z M 73.335938 70.527344 " fill-opacity="1" fill-rule="nonzero"/></g><g clip-path="url(#912b3bca8a)"><g clip-path="url(#129d9cf041)"><path fill="#e4a15a" d="M 72.769531 70.574219 C 73.28125 70.3125 73.605469 70.429688 73.820312 70.886719 C 73.90625 71.066406 74.117188 71.183594 74.183594 71.351562 C 74.246094 71.492188 74.144531 71.730469 74.070312 71.878906 C 73.890625 72.242188 73.453125 72.429688 73.289062 72.777344 C 73.242188 72.875 73.257812 73.015625 73.226562 73.113281 C 73.183594 73.234375 73.046875 73.371094 73.03125 73.484375 C 72.996094 73.703125 73.257812 73.882812 73.222656 74.113281 C 73.191406 74.335938 72.957031 74.425781 72.804688 74.578125 C 72.519531 74.859375 72.402344 75.128906 72.433594 75.539062 C 72.714844 75.238281 72.996094 75.199219 73.359375 75.027344 C 73.640625 74.894531 73.84375 74.632812 74.03125 74.382812 C 74.191406 74.164062 74.390625 73.960938 74.347656 73.683594 C 74.292969 73.324219 74.113281 73.242188 74.378906 72.898438 C 74.542969 72.6875 74.796875 72.605469 74.929688 72.398438 C 75.070312 72.179688 75.152344 71.742188 75.132812 71.488281 C 75.109375 71.238281 75.015625 70.886719 74.910156 70.660156 C 74.757812 70.324219 74.402344 70.199219 74.089844 70.03125 C 73.726562 69.832031 73.613281 69.839844 73.238281 70.039062 C 73.007812 70.160156 72.765625 70.199219 72.769531 70.574219 Z M 72.769531 70.574219 " fill-opacity="1" fill-rule="nonzero"/></g></g><g clip-path="url(#e4755e9283)"><g clip-path="url(#0c6e704edf)"><path fill="#ffdcac" d="M 72.257812 73.148438 C 72.035156 73.265625 71.8125 73.476562 71.78125 73.722656 C 71.75 73.921875 71.574219 74.265625 71.667969 74.457031 C 71.753906 74.632812 72.171875 74.617188 72.097656 74.375 C 72.066406 74.273438 71.960938 74.277344 71.945312 74.140625 C 71.933594 74.035156 71.964844 73.890625 72 73.800781 C 72.082031 73.613281 72.417969 73.40625 72.257812 73.148438 Z M 72.257812 73.148438 " fill-opacity="1" fill-rule="nonzero"/></g></g><g clip-path="url(#5444472719)"><path fill="#f8b854" d="M 73.457031 76.589844 C 73.179688 76.625 73.042969 76.582031 72.875 76.824219 C 72.753906 76.988281 72.710938 77.132812 72.546875 77.265625 C 72.417969 77.367188 72.253906 77.398438 72.128906 77.488281 C 71.917969 77.636719 71.765625 77.886719 71.609375 78.089844 C 71.484375 78.25 71.171875 78.4375 71.101562 78.613281 C 71.019531 78.820312 71.21875 78.964844 71.332031 79.121094 C 71.5 79.359375 71.628906 79.496094 71.941406 79.457031 C 72.183594 79.425781 72.386719 79.257812 72.617188 79.214844 C 72.753906 79.1875 72.917969 79.257812 73.046875 79.179688 C 73.214844 79.074219 73.296875 78.710938 73.476562 78.5625 C 73.648438 78.421875 73.890625 78.410156 74.082031 78.300781 C 74.347656 78.15625 74.492188 77.78125 74.457031 77.480469 C 74.445312 77.382812 74.40625 77.238281 74.328125 77.175781 C 74.207031 77.085938 74.082031 77.203125 73.949219 77.144531 C 73.808594 77.085938 73.792969 76.875 73.71875 76.777344 C 73.640625 76.679688 73.605469 76.636719 73.457031 76.589844 Z M 73.457031 76.589844 " fill-opacity="1" fill-rule="nonzero"/></g><g clip-path="url(#805bcf2f02)"><g clip-path="url(#c60d792155)"><path fill="#e4a15a" d="M 72.742188 76.597656 C 73.066406 76.457031 73.308594 76.621094 73.4375 76.910156 C 73.503906 77.0625 73.519531 77.136719 73.628906 77.273438 C 73.730469 77.398438 73.851562 77.457031 73.863281 77.625 C 73.894531 77.972656 73.5 78.082031 73.289062 78.28125 C 73.042969 78.511719 73.046875 78.925781 72.761719 79.101562 C 72.613281 79.195312 72.410156 79.160156 72.257812 79.273438 C 72.078125 79.40625 72.027344 79.621094 71.898438 79.789062 C 72.324219 79.472656 72.75 79.507812 73.234375 79.386719 C 73.472656 79.328125 73.566406 79.277344 73.683594 79.105469 C 73.84375 78.875 73.902344 78.757812 74.164062 78.613281 C 74.464844 78.449219 74.539062 78.359375 74.6875 78.054688 C 74.871094 77.679688 74.824219 77.691406 74.6875 77.3125 C 74.617188 77.109375 74.660156 76.855469 74.503906 76.695312 C 74.324219 76.511719 74.078125 76.601562 73.859375 76.566406 C 73.535156 76.519531 73.050781 76.097656 72.742188 76.597656 Z M 72.742188 76.597656 " fill-opacity="1" fill-rule="nonzero"/></g></g><g clip-path="url(#48aabdcc2b)"><g clip-path="url(#d8d9ec14f6)"><path fill="#ffdcac" d="M 72.402344 77.652344 C 72.214844 77.652344 72.152344 77.894531 72.058594 78.023438 C 71.945312 78.179688 71.722656 78.273438 71.640625 78.441406 C 71.605469 78.515625 71.585938 78.648438 71.664062 78.695312 C 71.765625 78.757812 71.792969 78.65625 71.859375 78.597656 C 72 78.476562 72.148438 78.378906 72.238281 78.230469 C 72.308594 78.121094 72.484375 77.839844 72.402344 77.652344 Z M 72.402344 77.652344 " fill-opacity="1" fill-rule="nonzero"/></g></g><path fill="#ce9351" d="M 62.375 75.859375 C 62.585938 76.070312 62.925781 76.101562 63.179688 75.960938 C 63.359375 75.855469 63.578125 75.742188 63.789062 75.683594 C 63.847656 75.65625 63.875 75.617188 63.886719 75.550781 C 63.921875 75.285156 63.910156 74.949219 63.785156 74.710938 C 63.613281 74.476562 63.335938 74.34375 63.175781 74.070312 C 63.355469 74.316406 63.648438 74.414062 63.851562 74.664062 C 63.945312 74.800781 63.964844 74.957031 63.988281 75.109375 C 63.996094 75.296875 64.042969 75.515625 63.9375 75.691406 C 63.855469 75.796875 63.714844 75.800781 63.613281 75.84375 C 63.476562 75.890625 63.351562 75.976562 63.210938 76.035156 C 62.933594 76.175781 62.554688 76.105469 62.375 75.859375 Z M 62.375 75.859375 " fill-opacity="1" fill-rule="nonzero"/><path fill="#ce9351" d="M 59.074219 76.496094 C 59.335938 76.558594 59.59375 76.476562 59.855469 76.449219 C 60.132812 76.40625 60.375 76.578125 60.578125 76.746094 C 61.003906 77.050781 61.308594 77.511719 61.714844 77.839844 C 61.917969 78 62.164062 78.078125 62.425781 78.089844 C 62.617188 78.113281 62.828125 78.039062 63.023438 78.097656 C 63.214844 78.148438 63.394531 78.257812 63.578125 78.316406 C 63.828125 78.398438 64.105469 78.429688 64.332031 78.589844 C 64.503906 78.71875 64.582031 78.910156 64.691406 79.078125 C 64.757812 79.183594 64.90625 79.316406 64.886719 79.453125 C 64.8125 79.804688 64.460938 80 64.214844 80.203125 C 63.796875 80.511719 63.4375 80.988281 62.878906 81.050781 C 62.601562 81.066406 62.347656 80.96875 62.089844 80.984375 C 61.3125 81.035156 60.492188 81.308594 59.757812 80.898438 C 60.503906 81.28125 61.308594 80.980469 62.085938 80.917969 C 62.359375 80.898438 62.621094 80.992188 62.875 80.972656 C 63.394531 80.898438 63.75 80.429688 64.15625 80.125 C 64.359375 79.953125 64.960938 79.585938 64.726562 79.296875 C 64.648438 79.203125 64.558594 79.066406 64.503906 78.964844 C 64.382812 78.722656 64.1875 78.582031 63.929688 78.519531 C 63.679688 78.453125 63.410156 78.371094 63.179688 78.253906 C 63.058594 78.199219 62.945312 78.15625 62.816406 78.167969 C 62.691406 78.171875 62.554688 78.195312 62.417969 78.179688 C 61.851562 78.175781 61.4375 77.734375 61.113281 77.328125 C 60.949219 77.121094 60.738281 76.960938 60.542969 76.785156 C 60.351562 76.613281 60.128906 76.441406 59.859375 76.472656 C 59.597656 76.492188 59.332031 76.570312 59.074219 76.496094 Z M 59.074219 76.496094 " fill-opacity="1" fill-rule="nonzero"/><g clip-path="url(#db87e19d40)"><path fill="#ce9351" d="M 67.738281 79.886719 C 68.046875 80.089844 68.359375 80.28125 68.621094 80.546875 C 68.867188 80.832031 68.917969 81.308594 68.710938 81.628906 C 68.589844 81.785156 68.425781 81.890625 68.253906 81.96875 C 67.761719 82.199219 67.105469 82.160156 66.664062 81.832031 C 67.265625 82.171875 68.164062 82.113281 68.625 81.566406 C 68.8125 81.289062 68.765625 80.859375 68.5625 80.597656 C 68.324219 80.335938 68.011719 80.117188 67.738281 79.886719 Z M 67.738281 79.886719 " fill-opacity="1" fill-rule="nonzero"/></g><path fill="#ce9351" d="M 68.503906 72.683594 C 68.796875 72.789062 69.050781 72.96875 69.300781 73.15625 C 69.429688 73.257812 69.476562 73.4375 69.476562 73.59375 C 69.480469 73.898438 69.457031 74.210938 69.542969 74.5 C 69.671875 74.945312 70.113281 75.289062 70.097656 75.777344 C 70.074219 76.105469 69.945312 76.386719 69.917969 76.691406 C 69.859375 76.902344 69.921875 77.253906 69.683594 77.359375 C 69.472656 77.445312 69.328125 77.632812 69.160156 77.785156 C 68.820312 78.1875 68.273438 78.003906 67.828125 77.972656 C 68.136719 77.96875 68.449219 78.050781 68.746094 77.980469 C 69.035156 77.898438 69.203125 77.609375 69.445312 77.410156 C 69.507812 77.359375 69.574219 77.3125 69.652344 77.277344 C 69.710938 77.253906 69.746094 77.207031 69.753906 77.132812 C 69.785156 76.984375 69.800781 76.832031 69.824219 76.679688 C 69.847656 76.367188 69.976562 76.066406 69.996094 75.773438 C 70 75.304688 69.574219 74.96875 69.457031 74.527344 C 69.367188 74.222656 69.40625 73.902344 69.410156 73.59375 C 69.414062 73.441406 69.378906 73.292969 69.265625 73.191406 C 69.035156 73 68.789062 72.800781 68.503906 72.683594 Z M 68.503906 72.683594 " fill-opacity="1" fill-rule="nonzero"/><g clip-path="url(#6ec854a290)"><path fill="#ce9351" d="M 72.382812 75.144531 C 72.648438 74.992188 72.964844 74.960938 73.21875 74.808594 C 73.453125 74.648438 73.648438 74.382812 73.738281 74.113281 C 73.847656 73.828125 73.59375 73.574219 73.59375 73.242188 C 73.59375 73.074219 73.65625 72.921875 73.738281 72.789062 C 73.828125 72.640625 73.980469 72.566406 74.101562 72.488281 C 74.363281 72.332031 74.484375 72.046875 74.675781 71.820312 C 74.726562 71.753906 74.777344 71.710938 74.78125 71.652344 C 74.789062 71.601562 74.757812 71.511719 74.75 71.4375 C 74.730469 71.117188 74.480469 70.941406 74.253906 70.75 C 74.136719 70.652344 74.039062 70.535156 73.910156 70.464844 C 73.628906 70.316406 73.332031 70.539062 73.101562 70.695312 C 73.574219 70.304688 73.839844 70.246094 74.296875 70.699219 C 74.535156 70.882812 74.820312 71.09375 74.839844 71.425781 C 74.847656 71.503906 74.878906 71.578125 74.875 71.660156 C 74.867188 71.707031 74.851562 71.75 74.824219 71.789062 C 74.652344 71.988281 74.523438 72.226562 74.34375 72.425781 C 74.195312 72.59375 73.933594 72.660156 73.820312 72.839844 C 73.746094 72.964844 73.6875 73.101562 73.691406 73.242188 C 73.683594 73.464844 73.828125 73.667969 73.847656 73.898438 C 73.839844 74.292969 73.554688 74.636719 73.246094 74.851562 C 72.964844 74.996094 72.65625 75.003906 72.382812 75.144531 Z M 72.382812 75.144531 " fill-opacity="1" fill-rule="nonzero"/></g><g clip-path="url(#c8f2f95424)"><path fill="#ce9351" d="M 72.011719 79.441406 C 72.214844 79.386719 72.378906 79.253906 72.585938 79.195312 C 72.777344 79.144531 73.007812 79.269531 73.121094 79.046875 C 73.230469 78.882812 73.28125 78.667969 73.460938 78.515625 C 73.640625 78.375 73.863281 78.359375 74.035156 78.269531 C 74.203125 78.183594 74.320312 78.007812 74.375 77.824219 C 74.441406 77.601562 74.453125 77.101562 74.109375 77.195312 C 74 77.222656 73.855469 77.167969 73.8125 77.058594 C 73.757812 76.960938 73.746094 76.855469 73.683594 76.777344 C 73.636719 76.691406 73.527344 76.628906 73.457031 76.605469 C 73.316406 76.625 73.171875 76.601562 73.039062 76.664062 C 73.167969 76.589844 73.324219 76.597656 73.460938 76.574219 C 73.699219 76.613281 73.789062 76.84375 73.871094 77.023438 C 73.953125 77.191406 74.117188 77.082031 74.265625 77.101562 C 74.328125 77.113281 74.382812 77.160156 74.414062 77.210938 C 74.625 77.601562 74.472656 78.148438 74.078125 78.359375 C 73.882812 78.457031 73.667969 78.472656 73.515625 78.589844 C 73.328125 78.734375 73.28125 79.058594 73.0625 79.210938 C 72.917969 79.296875 72.738281 79.210938 72.59375 79.242188 C 72.398438 79.28125 72.21875 79.402344 72.011719 79.441406 Z M 72.011719 79.441406 " fill-opacity="1" fill-rule="nonzero"/></g></g></g></svg>